<?xml version="1.0" encoding="utf-8"?>
<!-- Generator: Adobe Illustrator 19.0.0, SVG Export Plug-In . SVG Version: 6.00 Build 0)  -->
<svg version="1.1" id="Layer_1" xmlns="http://www.w3.org/2000/svg" xmlns:xlink="http://www.w3.org/1999/xlink" x="0px" y="0px"
	 viewBox="1422 -468 3456 1728" style="enable-background:new 1422 -468 3456 1728;" xml:space="preserve">
<style type="text/css">
	.st0{fill:none;stroke:#010101;stroke-width:2;}
	.st1{fill:none;stroke:#000000;stroke-width:2;stroke-miterlimit:10;}
	.st2{fill:none;stroke:#00AEEF;stroke-width:2;stroke-miterlimit:10;}
	.st3{clip-path:url(#SVGID_1_);}
	.st4{clip-path:url(#SVGID_2_);fill:#29292A;}
	.st5{fill-rule:evenodd;clip-rule:evenodd;fill:#8BC53F;stroke:#8BC53F;stroke-width:3;stroke-miterlimit:10;}
	.st6{fill:none;stroke:#231F20;stroke-width:6;stroke-miterlimit:10;}
	.st7{fill:#000002;}
	.st8{clip-path:url(#SVGID_3_);}
	.st9{clip-path:url(#SVGID_4_);fill:#242629;}
</style>
<g transform="translate(22.5, 22.5) ">
	<polygon class="st0" points="2209.5,-356.8 2254,-356.8 2254,-340.6 2298.4,-340.6 2298.4,-356.8 2342.9,-356.8 2342.9,-340.6 
		2387.4,-340.6 2387.4,-356.8 2431.8,-356.8 2431.8,-312.3 2415.7,-312.3 2415.7,-267.8 2431.8,-267.8 2431.8,-223.4 2415.7,-223.4 
		2415.7,-178.9 2431.8,-178.9 2431.8,-134.5 2387.4,-134.5 2387.4,-150.6 2342.9,-150.6 2342.9,-134.5 2298.4,-134.5 2298.4,-150.6 
		2254,-150.6 2254,-134.5 2209.5,-134.5 2209.5,-178.9 2225.7,-178.9 2225.7,-223.4 2209.5,-223.4 2209.5,-267.8 2225.7,-267.8 
		2225.7,-312.3 2209.5,-312.3 	"/>
</g>
<g transform="translate(315, 22.5) ">
	<polygon class="st0" points="2139.3,-356.8 2183.8,-356.8 2183.8,-340.6 2228.2,-340.6 2228.2,-356.8 2272.7,-356.8 2272.7,-340.6 
		2317.2,-340.6 2317.2,-356.8 2361.6,-356.8 2361.6,-312.3 2345.5,-312.3 2345.5,-267.8 2361.6,-267.8 2361.6,-223.4 2345.5,-223.4 
		2345.5,-178.9 2361.6,-178.9 2361.6,-134.5 2317.2,-134.5 2317.2,-150.6 2272.7,-150.6 2272.7,-134.5 2228.2,-134.5 2228.2,-150.6 
		2183.8,-150.6 2183.8,-134.5 2139.3,-134.5 2139.3,-178.9 2155.5,-178.9 2155.5,-223.4 2139.3,-223.4 2139.3,-267.8 2155.5,-267.8 
		2155.5,-312.3 2139.3,-312.3 	"/>
</g>
<g transform="translate(607.5, 22.5) ">
	<polygon class="st0" points="2085.3,-356.8 2142.2,-356.8 2142.2,-340.6 2215.3,-340.6 2215.3,-356.8 2259.8,-356.8 2259.8,-340.6 
		2304.2,-340.6 2304.2,-356.8 2348.7,-356.8 2348.7,-340.6 2393.2,-340.6 2393.2,-356.8 2437.6,-356.8 2437.6,-340.6 2482.1,-340.6 
		2482.1,-356.8 2526.5,-356.8 2526.5,-340.6 2571,-340.6 2571,-356.8 2615.5,-356.8 2615.5,-340.6 2688.6,-340.6 2688.6,-356.8 
		2745.5,-356.8 2745.5,-312.3 2761.7,-312.3 2761.7,-267.8 2745.5,-267.8 2745.5,-223.4 2761.7,-223.4 2761.7,-178.9 2745.5,-178.9 
		2745.5,-134.5 2688.6,-134.5 2688.6,-150.6 2615.5,-150.6 2615.5,-134.5 2571,-134.5 2571,-150.6 2526.5,-150.6 2526.5,-134.5 
		2482.1,-134.5 2482.1,-150.6 2437.6,-150.6 2437.6,-134.5 2393.2,-134.5 2393.2,-150.6 2348.7,-150.6 2348.7,-134.5 2304.2,-134.5 
		2304.2,-150.6 2259.8,-150.6 2259.8,-134.5 2215.3,-134.5 2215.3,-150.6 2142.2,-150.6 2142.2,-134.5 2085.3,-134.5 2085.3,-178.9 
		2069.1,-178.9 2069.1,-223.4 2085.3,-223.4 2085.3,-267.8 2069.1,-267.8 2069.1,-312.3 2085.3,-312.3 	"/>
</g>
<g transform="translate(607.5, 315) ">
	<polygon class="st0" points="2085.3,-427 2142.2,-427 2142.2,-410.8 2215.3,-410.8 2215.3,-427 2259.8,-427 2259.8,-410.8 
		2304.2,-410.8 2304.2,-427 2348.7,-427 2348.7,-410.8 2393.2,-410.8 2393.2,-427 2437.6,-427 2437.6,-410.8 2482.1,-410.8 
		2482.1,-427 2526.5,-427 2526.5,-410.8 2571,-410.8 2571,-427 2615.5,-427 2615.5,-410.8 2688.6,-410.8 2688.6,-427 2745.5,-427 
		2745.5,-382.5 2761.7,-382.5 2761.7,-338 2745.5,-338 2745.5,-293.6 2761.7,-293.6 2761.7,-249.1 2745.5,-249.1 2745.5,-204.7 
		2688.6,-204.7 2688.6,-220.8 2615.5,-220.8 2615.5,-204.7 2571,-204.7 2571,-220.8 2526.5,-220.8 2526.5,-204.7 2482.1,-204.7 
		2482.1,-220.8 2437.6,-220.8 2437.6,-204.7 2393.2,-204.7 2393.2,-220.8 2348.7,-220.8 2348.7,-204.7 2304.2,-204.7 2304.2,-220.8 
		2259.8,-220.8 2259.8,-204.7 2215.3,-204.7 2215.3,-220.8 2142.2,-220.8 2142.2,-204.7 2085.3,-204.7 2085.3,-249.1 2069.1,-249.1 
		2069.1,-293.6 2085.3,-293.6 2085.3,-338 2069.1,-338 2069.1,-382.5 2085.3,-382.5 	"/>
</g>
<g transform="translate(22.5, 315) ">
	<polygon class="st0" points="2225.7,-410.8 2254,-410.8 2254,-427 2298.4,-427 2298.4,-410.8 2342.9,-410.8 2342.9,-427 
		2387.4,-427 2387.4,-410.8 2415.7,-410.8 2415.7,-353.8 2431.8,-353.8 2431.8,-280.7 2415.7,-280.7 2415.7,-236.3 2431.8,-236.3 
		2431.8,-191.8 2415.7,-191.8 2415.7,-147.4 2431.8,-147.4 2431.8,-102.9 2415.7,-102.9 2415.7,-58.4 2431.8,-58.4 2431.8,-14 
		2415.7,-14 2415.7,30.5 2431.8,30.5 2431.8,74.9 2415.7,74.9 2415.7,119.4 2431.8,119.4 2431.8,192.5 2415.7,192.5 2415.7,249.5 
		2387.4,249.5 2387.4,265.6 2342.9,265.6 2342.9,249.5 2298.4,249.5 2298.4,265.6 2254,265.6 2254,249.5 2225.7,249.5 2225.7,192.5 
		2209.5,192.5 2209.5,119.4 2225.7,119.4 2225.7,74.9 2209.5,74.9 2209.5,30.5 2225.7,30.5 2225.7,-14 2209.5,-14 2209.5,-58.4 
		2225.7,-58.4 2225.7,-102.9 2209.5,-102.9 2209.5,-147.4 2225.7,-147.4 2225.7,-191.8 2209.5,-191.8 2209.5,-236.3 2225.7,-236.3 
		2225.7,-280.7 2209.5,-280.7 2209.5,-353.8 2225.7,-353.8 	"/>
</g>
<g transform="translate(315, 315) ">
	<polygon class="st0" points="2155.5,-410.8 2183.8,-410.8 2183.8,-427 2228.2,-427 2228.2,-410.8 2272.7,-410.8 2272.7,-427 
		2317.2,-427 2317.2,-410.8 2345.5,-410.8 2345.5,-353.8 2361.6,-353.8 2361.6,-280.7 2345.5,-280.7 2345.5,-236.3 2361.6,-236.3 
		2361.6,-191.8 2345.5,-191.8 2345.5,-147.4 2361.6,-147.4 2361.6,-102.9 2345.5,-102.9 2345.5,-58.4 2361.6,-58.4 2361.6,-14 
		2345.5,-14 2345.5,30.5 2361.6,30.5 2361.6,74.9 2345.5,74.9 2345.5,119.4 2361.6,119.4 2361.6,192.5 2345.5,192.5 2345.5,249.5 
		2317.2,249.5 2317.2,265.6 2272.7,265.6 2272.7,249.5 2228.2,249.5 2228.2,265.6 2183.8,265.6 2183.8,249.5 2155.5,249.5 
		2155.5,192.5 2139.3,192.5 2139.3,119.4 2155.5,119.4 2155.5,74.9 2139.3,74.9 2139.3,30.5 2155.5,30.5 2155.5,-14 2139.3,-14 
		2139.3,-58.4 2155.5,-58.4 2155.5,-102.9 2139.3,-102.9 2139.3,-147.4 2155.5,-147.4 2155.5,-191.8 2139.3,-191.8 2139.3,-236.3 
		2155.5,-236.3 2155.5,-280.7 2139.3,-280.7 2139.3,-353.8 2155.5,-353.8 	"/>
</g>
<g>
	<line class="st1" x1="2377.3" y1="622.2" x2="1938.2" y2="622.2"/>
	<line class="st1" x1="1938.2" y1="622.2" x2="1938.2" y2="1177.2"/>
	<line class="st1" x1="1938.2" y1="1177.2" x2="2377.3" y2="1177.2"/>
	<line class="st1" x1="2377.3" y1="1177.2" x2="2377.3" y2="622.2"/>
</g>
<g>
	<line class="st1" x1="1537.1" y1="622.2" x2="1537.1" y2="931.1"/>
	<line class="st1" x1="1537.1" y1="931.1" x2="1845.9" y2="931.1"/>
	<line class="st1" x1="1845.9" y1="931.1" x2="1845.9" y2="622.2"/>
	<line class="st1" x1="1537.1" y1="622.2" x2="1845.9" y2="622.2"/>
</g>
<g>
	<line class="st1" x1="1541.4" y1="972.1" x2="1746.6" y2="972.1"/>
	<line class="st1" x1="1746.6" y1="972.1" x2="1746.6" y2="1177.2"/>
	<line class="st1" x1="1541.4" y1="972.1" x2="1541.4" y2="1177.2"/>
	<line class="st1" x1="1537.1" y1="1177.2" x2="1746.6" y2="1177.2"/>
</g>
<g>
	<line class="st1" x1="1537.1" y1="-370.5" x2="2111.4" y2="-370.5"/>
	<line class="st1" x1="2111.4" y1="-370.5" x2="2111.4" y2="612.9"/>
	<line class="st1" x1="2111.4" y1="611.6" x2="1537.1" y2="611.6"/>
	<line class="st1" x1="1537.1" y1="612.9" x2="1537.1" y2="-370.5"/>
</g>
<g>
	<line class="st2" x1="2032.9" y1="48.8" x2="1615.7" y2="48.8"/>
	<line class="st2" x1="1615.7" y1="48.8" x2="1615.7" y2="576"/>
	<line class="st2" x1="1615.7" y1="576" x2="2032.9" y2="576"/>
	<line class="st2" x1="2032.9" y1="576" x2="2032.9" y2="48.8"/>
</g>
<g>
	<line class="st2" x1="1665.5" y1="-343.4" x2="1665.5" y2="-50"/>
	<line class="st2" x1="1665.5" y1="-50" x2="1958.9" y2="-50"/>
	<line class="st2" x1="1958.9" y1="-50" x2="1958.9" y2="-343.4"/>
	<line class="st2" x1="1665.5" y1="-343.4" x2="1958.9" y2="-343.4"/>
</g>
<g>
	<line class="st1" x1="3228" y1="136.9" x2="2726.1" y2="136.9"/>
	<line class="st1" x1="2726.1" y1="136.9" x2="2726.1" y2="643.6"/>
	<line class="st1" x1="2726.1" y1="643.6" x2="3228" y2="643.6"/>
	<line class="st1" x1="3228" y1="643.6" x2="3228" y2="136.9"/>
</g>
<path class="st1" d="M2885.4,457.8"/>
<path class="st1" d="M3090.5,462.7"/>
<path class="st1" d="M2885.4,462.7"/>
<path class="st1" d="M3086.1,486.8"/>
<g>
	<line class="st2" x1="2890.4" y1="286.8" x2="3085.2" y2="286.8"/>
	<line class="st2" x1="3085.2" y1="286.8" x2="3085.2" y2="481.7"/>
	<line class="st2" x1="2890.4" y1="286.8" x2="2890.4" y2="481.7"/>
	<line class="st2" x1="2886.2" y1="481.7" x2="3085.2" y2="481.7"/>
</g>
<rect x="2407.9" y="622.2" class="st1" width="38.2" height="74.9"/>
<rect x="2491.7" y="622.2" class="st1" width="38.2" height="74.9"/>
<rect x="2407.9" y="727.6" class="st1" width="38.2" height="74.9"/>
<rect x="2491.7" y="727.6" class="st1" width="38.2" height="74.9"/>
<rect x="2579.3" y="622.2" class="st1" width="38.2" height="74.9"/>
<rect x="3123.4" y="198.1" class="st2" width="34.4" height="67.6"/>
<rect x="2579.3" y="727.6" class="st1" width="38.2" height="74.9"/>
<rect x="2663.2" y="727.6" class="st1" width="38.2" height="74.9"/>
<rect x="2446" y="843.9" class="st1" width="82.1" height="218.9"/>
<rect x="2565.5" y="833.7" class="st1" width="192.2" height="131"/>
<rect x="2791.1" y="678.2" class="st1" width="123.1" height="155.5"/>
<rect x="2791.1" y="863.4" class="st1" width="155.5" height="135.4"/>
<rect x="2557.4" y="972.8" class="st1" width="82.1" height="98.5"/>
<rect x="2661.6" y="982.4" class="st1" width="102.6" height="102.6"/>
<rect x="2985.7" y="659.6" class="st1" width="249.8" height="249.8"/>
<rect x="2813.1" y="1017.2" class="st1" width="55.8" height="114.9"/>
<rect x="2740.5" y="314.2" class="st2" width="34.4" height="67.6"/>
<rect x="2805.2" y="516" class="st2" width="34.4" height="67.6"/>
<rect x="2752.1" y="398.5" class="st2" width="78" height="93.6"/>
<rect x="3014" y="972.1" class="st1" width="36.3" height="71.1"/>
<rect x="2946.6" y="1027.2" class="st1" width="36.3" height="71.1"/>
<rect x="3092.5" y="972.1" class="st1" width="36.3" height="71.1"/>
<rect x="3307.6" y="403.9" class="st1" width="123.1" height="155.5"/>
<g>
	<g id="XMLID_2_">
		<g>
			<defs>
				<rect id="SVGID_7_" x="4438.6" y="887.2" width="368" height="102.2"/>
			</defs>
			<clipPath id="SVGID_1_">
				<use xlink:href="#SVGID_7_"  style="overflow:visible;"/>
			</clipPath>
			<g class="st3">
				<defs>
					<rect id="SVGID_8_" x="4438.6" y="887.2" width="368" height="102.2"/>
				</defs>
				<clipPath id="SVGID_2_">
					<use xlink:href="#SVGID_8_"  style="overflow:visible;"/>
				</clipPath>
				<path class="st4" d="M4633.8,887.2h-26.5c-1.4,0-2.4,0.4-3.3,1.4c-0.9,0.9-1.3,2-1.3,3.3v19.9c0,1.2,0.4,2.3,1.4,3.2
					c1.9,1.9,4.6,1.9,6.5,0.1c1-1,1.4-2,1.4-3.3v-15.3h17.2v83.6H4612v-41.5c0-1.4-0.4-2.5-1.3-3.5c-0.9-1-2-1.5-3.3-1.5h-21.9
					v-41.5c0-1.4-0.4-2.5-1.3-3.5c-0.9-1-2-1.5-3.3-1.5h-26.5c-1.4,0-2.4,0.4-3.3,1.3c-0.9,0.9-1.4,2-1.4,3.3v92.9
					c0,1.3,0.4,2.4,1.3,3.3c0.9,0.9,2,1.4,3.3,1.4h26.5c1.3,0,2.4-0.5,3.3-1.5c0.9-1,1.3-2.1,1.3-3.5v-19.6c0-1.2-0.5-2.3-1.4-3.2
					c-2-1.9-4.7-1.8-6.6,0c-0.9,0.9-1.3,2-1.3,3.3v15.3h-17.3v-83.6h17.3v41.8c0,1.3,0.4,2.4,1.3,3.3c0.9,0.9,2,1.3,3.3,1.3h21.9
					v41.8c0,1.3,0.4,2.4,1.3,3.3c0.9,0.9,2,1.4,3.3,1.4h26.5c1.4,0,2.4-0.4,3.3-1.4c0.9-0.9,1.3-2,1.3-3.3v-92.9
					c0-1.3-0.4-2.4-1.3-3.3C4636.2,887.7,4635.2,887.2,4633.8,887.2"/>
				<path class="st4" d="M4614.2,918.4c0,3.8-3.1,7-7,7c-3.8,0-6.9-3.1-6.9-7s3.1-6.9,6.9-6.9
					C4611.1,911.4,4614.2,914.5,4614.2,918.4"/>
				<path class="st4" d="M4695.7,887.2h-26.5c-1.3,0-2.3,0.4-3.2,1.4c-1,1-1.4,2-1.4,3.3c0,1.3,0.4,2.4,1.4,3.3
					c0.9,0.9,2,1.3,3.3,1.3h21.8v83.6h-17.2v-61.7c0-1.3-0.4-2.3-1.4-3.2c-1-1-2-1.4-3.3-1.4c-1.3,0-2.4,0.4-3.3,1.4
					c-0.9,0.9-1.3,2-1.3,3.3v66.4c0,1.3,0.4,2.4,1.3,3.3c0.9,0.9,2,1.4,3.3,1.4h26.5c1.4,0,2.4-0.4,3.3-1.4c0.9-0.9,1.3-2,1.3-3.3
					v-92.9c0-1.3-0.4-2.4-1.3-3.3C4698.1,887.7,4697.1,887.2,4695.7,887.2"/>
				<path class="st4" d="M4676,918.4c0,3.8-3.1,7-7,7c-3.8,0-6.9-3.1-6.9-7s3.1-6.9,6.9-6.9C4672.8,911.4,4676,914.5,4676,918.4"/>
				<path class="st4" d="M4527.5,971.1c0-1.3-0.4-2.3-1.3-3.2c-2-2-4.9-1.9-6.8,0.1l-1.4,1.5l-0.2-0.2c-7.8,7.2-17.3,10.9-28.1,10.9
					c-11.5,0-21.4-4.1-29.5-12.3c-8.1-8.1-12.3-18.1-12.3-29.6c0-11.5,4.1-21.4,12.3-29.6c8.1-8.1,18-12.3,29.5-12.3
					c11.5,0,21.4,4.1,29.6,12.3c1.9,1.8,4.7,1.8,6.6,0c0.9-0.9,1.3-1.9,1.3-3.3c0-1.3-0.4-2.3-1.4-3.2c-9.9-10-22.1-15-36.1-15
					c-14,0-26.1,5-36.1,15c-9.9,10-14.9,22.1-14.9,36.1c0,14,5,26.2,14.9,36.1c10,10,22.1,15,36.1,15c13.3,0,25.1-4.7,34.9-13.9
					l0.4-0.3C4526.7,974.3,4527.5,973,4527.5,971.1"/>
				<path class="st4" d="M4500.5,927.5c1.9,1.9,4.7,1.8,6.5,0c0.9-0.9,1.3-2,1.3-3.3c0-1.3-0.4-2.4-1.3-3.3
					c-5-4.9-10.6-7.2-17.4-7.2c-6.8,0-12.5,2.3-17.3,7.2c-4.8,4.8-7.2,10.5-7.2,17.4s2.3,12.5,7.2,17.4c4.8,4.8,10.5,7.2,17.3,7.2
					c6.9,0,12.5-2.3,17.4-7.2c0.9-0.9,1.3-2,1.3-3.3s-0.4-2.4-1.4-3.3l-1.3-1.3h-2c-1.3,0-2.3,0.4-3.2,1.3l-0.3,0.3
					c-3,2.8-6.5,4.2-10.6,4.2c-4.2,0-7.8-1.5-10.8-4.5c-2.9-2.9-4.4-6.6-4.4-10.8c0-4.2,1.5-7.8,4.4-10.8c3-3,6.6-4.5,10.8-4.5
					c4.1,0,7.7,1.4,10.5,4.2L4500.5,927.5z"/>
				<path class="st4" d="M4530.9,907.7c0,3.8-3.1,6.9-7,6.9c-3.8,0-6.9-3.1-6.9-6.9s3.1-6.9,6.9-6.9
					C4527.8,900.8,4530.9,903.9,4530.9,907.7"/>
				<path class="st4" d="M4523.9,975.2c-1.2,0-2.3-0.5-3.2-1.4l-18.3-19.3c-1.7-1.8-1.6-4.6,0.2-6.2c1.8-1.7,4.5-1.6,6.2,0.2
					l18.3,19.3c1.7,1.8,1.6,4.5-0.2,6.2C4526.1,974.8,4525,975.2,4523.9,975.2"/>
				<path class="st4" d="M4778.7,921.7c0.9-0.9,1.3-2,1.3-3.3c0-1.3-0.4-2.3-1.3-3.2c-0.9-0.9-2-1.4-3.2-1.4h-19.9
					c-1.4,0-2.5,0.5-3.4,1.5c-0.9,1-1.3,2.1-1.3,3.5v66c0,1.3,0.4,2.4,1.4,3.3c1.8,1.7,4.6,1.9,6.5-0.1c1-0.9,1.4-2,1.4-3.2V923
					h15.3C4776.8,923,4777.8,922.6,4778.7,921.7"/>
				<path class="st4" d="M4800.3,938.4c4.2-5.6,6.4-12.3,6.4-20c0-8.2-3-15.3-9.1-21.6c-6.3-6.4-13.5-9.5-22-9.5H4729
					c-1.4,0-2.4,0.4-3.3,1.4c-0.9,0.9-1.3,1.9-1.3,3.3v92.9c0,1.3,0.4,2.3,1.4,3.2c1.9,2,4.7,1.9,6.6,0.1c0.9-0.9,1.3-2,1.3-3.3
					v-88.3h42.3c5.8,0.1,10.9,2.5,15.2,7.1c4.1,4.4,6.2,9.4,6.2,14.8c0,9.3-3.7,16-10.9,19.9c-0.6,0.3-1.8,0.8-5.9,2.2
					c-2.1,0.7-3.1,2.1-3.1,4.4c0,1.6,0.6,2.8,2,3.7c1.4,1,2.7,1.2,4.2,0.6C4790.6,947.5,4796.1,943.9,4800.3,938.4"/>
				<path class="st4" d="M4784.6,918.4c0,3.8-3.1,7-7,7c-3.8,0-6.9-3.1-6.9-7s3.1-6.9,6.9-6.9
					C4781.5,911.4,4784.6,914.5,4784.6,918.4"/>
				<path class="st4" d="M4755.6,989.4h-25.8c-2.4,0-4.4-2-4.4-4.4s2-4.4,4.4-4.4h25.8c2.4,0,4.4,2,4.4,4.4S4758,989.4,4755.6,989.4
					"/>
			</g>
		</g>
	</g>
	<path id="XMLID_32_" class="st5" d="M4574.1,759.1c-0.2-0.8-0.7-1.6-1.6-2.2c-1.2-0.3-2.2,0.2-3.3,0.3c-2,2.7-4.9,4-7.4,7.4
		c-2.4,0.7-5.6,2.8-6.6,5.4c-1.7-0.5-3.1,1.6-3.5,3.3c-2.8,1-5,3.9-7.1,6.9c-4.7,4.2-9.3,8.4-12.1,13.8c-0.4-0.2-0.9-0.5-1.1,0.1
		c-3,4.9-7.5,7.1-9.8,13.3c-3.6,2.4-6.4,7.7-8.7,11.9c-2.3-0.3-3.2,4.1-5.3,4.8c0.6,2.3-2.4,3.8-3.5,5.3c-0.7,1.1,0.1,1.8-0.9,3
		c-0.6,0.1-1.1,0.3-1.6,0.5c-5.2,8.2-9.3,12.6-14.6,19.1c1.2-2.1,0.8-3.8,2.6-5.5c-0.3-0.4-1.6-0.4-1.2-1c0.6-1.1,1.6-1.2,2.3-1.8
		c-0.3-5,4.1-10.1,2.9-14.6c3.4-2.3,0.9-6.3,1.9-9.3c-2.7-1.4-2.6-2.3-5.4-3.5c-1,0.8-2.4,0.4-3.7,0.5c-1.5,2.8-3.3,4.7-5.7,4.9
		c-3.4,5.7-9.6,8-13.4,14.9c-2.7,0.7-5.5,4.7-7.1,8.2c-0.9,0.4-1.9,0.8-2.8,1.3c-3.3,5.2-8.6,10.6-10.4,15.8
		c-0.6,0.1-1.3-0.4-1.6,0.5c-2,4.7-6.1,6.9-8.4,10.7c1.2-2.5,1.5-5.5,3.3-6.8c-0.4-2.7,1.9-5.6,2.2-8.1c3.8-4,5.3-11.2,9.6-16.9
		c0.6-0.8,1.9-1.4,2.5-2.1c3-3.6,4.6-6.8,6.3-9.4c1-0.3,1.9-1.2,2.8-2c1.3-4.6,6.1-6,8.2-12.2c0.6-0.7,1.6,0,2.1-1.3
		c-0.3-2.6,0-5.4-0.2-8c-3-3.8-7.3-3.7-10.7-0.5c-0.4,2.9-2.1,3.2-3.1,5.2c-1,0-2.2-0.9-2.7,0.6c-0.4,0.7,1.8,0.7,1.3,1.4
		c-5,8.7-9.3,18.1-13.8,24.7c-0.5,4.1-3.4,4.7-5.9,7.2c-3.5,3.7-7.6,8.7-11.3,10.9c-0.3,2.6-2.8,3.1-3.9,5.5c-3.5,1.1-5.5,4.1-8,6.7
		c-1.3,1.4-4,1.6-5.6,2.9c-1.8,1.3-2.8,2.9-4.3,4.2c-0.7-0.4-0.3-0.7-1.1-0.6c-2.6,3.1-6,3.2-8.7,6c-0.3-0.3-0.3-0.7-0.9-0.8
		c-2.4,3.4-6.6,1.1-9.3,3.3c-0.3,2.2-0.3,4.7,2.6,4.1c-0.4,0.7-0.5,1.2,0.2,1.5c1.7,0.9,2.9,0.2,4.5,0.6c3.8-2.8,8.2-3.8,12.1-4.6
		c1.1-1.5,2-3.6,3.9-2.8c0-1.5,2.1-2.7,3.8-3.9c1.3-0.9,3.5-1.3,4.5-2.1c0.9-0.7,1.2-1.8,2-2.4c1.5-1.2,3.6-1.6,4.8-2.6
		c3.1-2.3,4.6-5.1,7.6-6.6c-0.4,4.9-2.6,9.5-5.4,14c0.4,0.2,0.9,0.5,0.5,1c-3.7,5.7-3.1,11.3-7.3,15.7c1.6,2-0.8,4.4-2.2,6.1
		c0.3,0.6,1.1,1,0.4,1.9c-0.4,1.2-1.4,0.5-1.7,1.9c-0.5,3.2-0.9,4.6-2.5,8.6c0.3,2.1,2.4,2.6,2.5,4.4c2.1-0.6,3.4,0.6,5.1,1.3
		c-0.3-1.9,2.1-2.4,3.1-4.5c-2.3-2.6,2.3-6.2,0.8-9.2c1.6-2.4,4.2-4.6,4.1-7.8c4-5.9,6.8-10.9,10.9-17.3c2.6-1.6,5.3-5.9,6.6-9.2
		c4.3-3.9,6.5-9.4,10.3-14.2c0.6-0.8,1.7-1.1,2.5-2.1c1.5-2,2.6-4.8,4.2-6.7c3.2-3.7,7.4-6.6,9.4-11.2c2.2,0.1,4.2-2.8,5-4.9
		c3.4-1.2,5.9-5.5,9.3-7.1c-1.4,5.3-1.5,11.2-5,15.9c0.2,3.5-2.8,7.9-3,11.5c-0.4,0.7-1.1,0.9-1.5,1.6c0.5,2.8-2.5,4.5-1.8,7.3
		c-0.7,0.6-1.4,1.2-2.1,2c-1.3,6-7.5,11.1-7.1,17.2c2.1,0.8,0.4,2.9,3.3,3.5c0.8,0.1,1.1-1.3,1.8-1.5c0.1,0.9,0,1.8,1.6,2.2
		c0.6-0.6,1.4-0.8,2.3-0.5c0.4-1.9,1.2-2.3,2.3-3.6c0.8-0.8-0.3-1.1,0.3-1.9c14.1-21.1,24.9-38.6,38.7-58.2c0.5-0.7,1.4-0.3,1.8-1.5
		c1.1-3.6,5-4.7,5.4-8.8c4.5-4.4,9.4-8.9,12.5-15.7c0.3,0.2,0.2,0.5,0.7,0.7c0.7-0.9,0.3-1.5,0.9-2.3c0.5,0.3,0,0.9,0.8,1.1
		c0.1-0.9,0.6-1.8,1.2-2.8c0.4-0.1,0.8-0.3,1.2-0.4c5.4-9.2,13.4-12.3,19.8-20.4c3-1.2,5.3-4.6,8.4-5.5c0.7,1.4-1,2.3-1.6,3.6
		c-0.9,2.3-1.1,4.9-2.5,7.3c-2.2,3.7-4.7,6.8-5.3,10.6c-0.4,0.7-1.2,0.1-1.5,0.9c-2,4.7-5.8,13.7-8.4,17.2c0,0.8-0.4,1.8-0.3,2.6
		c-6.2,9.2-8.6,18.2-11.8,26.8c-1.8,4.7-5,9.3-4.7,14.7c-3.7,4.2-2.7,12.3-6.7,17.1c0.2,2.3,0.4,4.9-1.8,7.3c0,1,0.6,1.9,0.5,3
		c-2.2,5.7-2.6,11.3-4.5,17.6c1.2,3.5-1.8,8.3,0.4,11.5c-2.6,4.3,0.4,8.7-0.5,13.2c1.1,0.4,1.1,0.2,1.5,1.1c-1.7,3.2,0.7,5.2,1,7.7
		c0.4,0.1,0.7,0.2,1.1,0.2c1-0.4,1.9-0.7,2.6-2c-1.5-1.8-2.1-4.3-0.4-6.4c-0.2-0.9-1.5-0.2-1.7-1.3c1-2-0.4-3.9-0.3-6
		c0.3-5.1,2.3-10.2,1.4-15c2.9-5.1,1.7-12,4.6-17.1c-0.1-1,0-1.9,0.2-3c3.2-5.5,2.3-13,5.9-18.2c1.4-4.4,3.6-10.2,3.8-14.9
		c0.5-0.9,1-1.6,1.7-1.9c1.7-4.9,4.5-9.7,5.4-15.4c4.4-7.3,8.6-18.4,12.4-26.7c1.8-2.4,4.5-5.2,5.6-8.7c0.3-0.8,0-1.8,0.3-2.6
		c0.7-1.5,2.3-2.5,3.2-4.1c1.4-2.3,2.1-5.2,3.3-7.5c3.1-5.8,5.1-10,5.3-15.8C4576.4,759.7,4576.2,759.1,4574.1,759.1z"/>
	<path id="XMLID_29_" class="st5" d="M4795.9,838.4c5.1-18.1,15.7-41.7,22.1-58.5c-0.8-1.9-2,0.8-4.2-1c-0.4-2.1-1.2-4.7-4.2-4.3
		c0.1,3.1-3.4,4.1-3.2,7.9c-2.6-0.2-3.6,2.6-3.9,5c-9.1,11.1-19.6,24.5-27.3,35.5c0-0.2,0.1-0.4,0.1-0.7c-0.1,0.1-0.1,0.3-0.2,0.4
		c-0.2,0.2-0.3,0.3-0.4,0.5c0.1,0.4,0.2,0.8-0.2,1.4c-6.9,8.2-15,18.2-22.3,29.7c-14.8,6.8-30.3,12.1-45.3,18.5
		c-6,1.3-13.7,3.2-18,6.4c0.1,0.3,0.1,0.6,0.3,0.8c4.1-0.5,10.4-2,12.8-4.6c1,3,3.7,0.5,6-0.2c4.5-1.4,10.3-2.3,13-4.6
		c-0.1,0.7,0.3,1.1,0.7,1.6c5.2-3.7,12.9-6.2,21.4-7.8c-1.4,2.5-7.4,7.8-8,12.1c-7.6,3.4-11.6,14.1-18.5,19.1c0,0.2-0.1,0.5-0.2,0.7
		c-0.4,0.5-0.6,1.1-0.6,1.6c0.2,0.4,0.4,0.7,0.6,1c0.2,0,0.4,0.1,0.6,0.1c1.9,0.3,3.8,0.8,5.6,0.8c1.1,0,2-0.2,3-0.5
		c5.8-5.6,11.5-13.5,13.9-20.7c3.3-0.1,5.5-5.2,6.4-7.9c3.9-0.1,4.8-6.2,6.7-8.5c-0.2,0.2,0.5,1.3,0.9,1c1.6-1.4,3.8-5.6,7.1-6.3
		c-0.2,0.9,1,1.1,1.2,1.8c5.1-5.9,17-4.9,22.2-6.9c-1,4.6-2.7,8.5-2.6,11.9c0.1,1.5-1.5,2.4-1.9,3.9c-0.4,1.8-0.8,4.7-1.2,6.9
		c2.4,2.8,8.2,4.6,8.2,0.7c-2.8-7.3,4.6-17.6,6.6-28.1c9.2-7.2,21.4-0.4,30.8-6.7C4819.5,829.5,4805.1,837.5,4795.9,838.4z
		 M4789.9,828.8c1.5,2.9-1.3,5.1-0.9,8.8c-1.5-1.4-1.2,1.7-2.7,0.2c0.9,2-0.4,2-0.4,4.4c-7.4,2.4-14.9,4.5-21.6,8.4
		c-1-0.5,0.4-2-1-2.4c1.2-1.7,4.4-2.7,3.6-5.8c1,3,4.9-5.5,5.4-3.7c2.4-5.6,4.2-9.4,8.4-13c-0.1-0.7-1.1-1.1-0.5-2.1
		c7.5-5.6,13.1-15.8,19.8-23.5c0.9,7-5.3,16.7-7.5,23.8c0.2,0.7,0.7,1.3,1.2,1.8C4791.1,826,4792.9,830.1,4789.9,828.8z"/>
	<g id="XMLID_24_">
		<path id="XMLID_26_" class="st5" d="M4700,772.8c5.3,0.8,11.2,0.4,15.8-2.2c0-0.2,0.1-0.5,0.2-0.7c-3.1,0.4-7.6-0.4-10.3,2.6
			c-8.8-1.9-18.4,2.7-27.9,3.5c0.2,2.3-2,3.8-2.2,1.8c0.2-1.2,1.3-0.2,1.6-1.2c-6.1,2-13.5,1-19.1,4.4
			c-17.7,1.3-38.5,13.4-54.9,15.9c-2.1,4.7-4.6,2.7-7.9,5.1c0.2-0.8,1.1-1.5,0.4-2.1c-0.7,1.7-2,1.8-2.9,3.1
			c-4.1-1.1-6.4,2.1-9.2,4.1c-7.5-1-14.9,6.8-22,7.5c-1.5,1.8-3.6,2.1-5.3,3.4c-0.9,2,1.8,3.1,0.3,3.7c-0.6-0.3-0.6-1.3-1.1-1.7
			c-0.1,2.1,0.4,3.4,1.7,4c6.3-5.8,11.6-7,16.6-9.3c3.5-1.6,9.8-2.7,14.8-6.7c2.3,1.7,10.6-1.2,12.5-4.2c0.7,2.4,1.2-0.3,1.5-0.5
			c3.8,1.4,4.4-1.3,8-2.9c-0.2,0.9-0.9,0.5-1.1,1.3c2.9-1,6.4-6.9,8.9-2.7c0.4-2.1,2.1-3.8,3.1-1.6c-0.1-4.7,8-6.1,5.7-3.3
			c1.2-0.5,3.9,0.3,2.2-1.8c0.9-1.7,2.1,2.1,2.7,0.5c-0.3-0.8-0.7-1.6-1-2.4c2.2-0.6,0.8,2.7,2.4,2.7c1.9-1.3-1.6-2.2,0-2.9
			c1.7,3.6,4.9-0.4,6.4,1.2c1-1.2,0.4-3.4,1.2-4.2c2.3,1,4.8-2.6,6.2-0.3c-1.6,0.1-3.2,0.4-4.1,2.2c2.4,0.3,4-1.2,6.3-1
			c1.1-2.4-1.5-0.7-1-2.4c6.3,3,18.2-5.7,23.8-4.2c3.9-4.3,10.7-1.5,13.6-5.5c-0.3-0.2-0.9-0.2-0.8-0.9c2.6,3.1,14.5-0.2,15.8-1.4
			C4700.6,773.9,4699.8,773.2,4700,772.8z M4634.9,790.5c0.3-0.5,0.7-1.1,0.8-2.1c1.1,0,1.7,0.5,2.2,1.2
			C4637.2,790.7,4635.8,790,4634.9,790.5z"/>
		<path id="XMLID_25_" class="st5" d="M4560.1,875.9c5.2-8.5,9.9-18.8,15-31.4c5.2-4.3,10.9-4.6,17-8.5c0,0.7-0.5,0.8-0.7,1.3
			c14.9-5.4,31.5-9,44.5-17.7c2.3,1.4,2.8-2.3,5.9-0.6c0.1-2.5,2.8-2.5,2.6-5.2c-19.2,4.8-36.4,12.5-56.3,17
			c-0.4,2.4-5.5,3.3-6.5,1.3c3.2-6.7,8.1-11.5,11.1-18.3c-1.8-2.2-3.6-4.2-6.5-5.2c-5.2,10.8-11.9,17.7-15,29.4
			c-4.1,3.5-11.8,3.5-14.4,8.5c1.2,1,2.3,2.1,3.3,3.3c2.6,0.2,2.7-2.1,5.2-2c-6.9,12.5-11.7,27.2-20.3,38c0.9,0.4,1.2,1.4,1.3,2.6
			c2.2-0.2,2.9-1.9,5.9-1.3c-0.3,0.8-0.4,1.4-0.5,2.2c0.1,0.2,0.3,0.4,0.3,0.7c0.3,0.1,0.6,0.2,0.8,0.2c2.9-2.6,9.2-1.7,11.2-6.4
			c9.1-2.5,17.9-10.9,26.8-15.7c7.3-2,12.1-6.6,18.3-9.8h2.6c4.7-3,9.3-6.7,14.4-9.2c7.3-3.6,17-4.6,22.3-11.8
			C4619.9,846.7,4591.9,863.5,4560.1,875.9z"/>
	</g>
	<g id="XMLID_22_">
		<path id="XMLID_23_" class="st5" d="M4751.3,752.4c0.5,0,0.9,0,1.4,0c1.5,0.5,3.6,0.8,3.7,2.3c0.1,1.5-2.8,3.5-3.9,4.7
			c-1.7,1.8-3,3.2-4.6,4c-0.8,2.3-2.8,4-4.4,6.6c-1,1.5-4.3,5-4.3,6.8c0,1.4,1.6,1.9,2.3,3c0,4.1-2.3,5.4-4.7,7.8
			c-2.8,2.8-4.9,4.9-7.6,7.8c-1.2,1.3-2.5,3.7-4.4,3.4c-0.8-0.1-1.6-1-2.4-1.4c-1-0.5-1.9-0.6-2.7-1.3c1-2.3,2-4.7,4.7-5.3
			c-1.1-3.7,2.9-4.7,3.3-8c-14.6,4.9-24.4,16-36.7,23.7c-0.2,0.7,0.4,0.5,0.4,1c-10.6,7.9-18.4,18.6-28.2,27.2
			c5.2,1.5,7.8-3.2,12.3-3.9c0.6-0.1,1.4,0.1,2,0c0.8-0.2,1.2-1,2-1.4c1.2-0.7,3.1-1.1,4.8-1.7c8.3-2.9,17.2-4.6,25.7-7.4
			c5.1-1.7,10.9-4.1,16.7-2.1c0.6,0,0.2-1,0.6-1.3c9,0.8,24.5-5.3,28.7,2c-0.6,0-1.1,0-1.7,0c-0.1,0.8,1,1.2,0.6,1.9
			c-8.5,1.3-17.2,2.5-26,3.6c-0.7-0.1-0.2-0.3-0.1-0.7c-0.8,0.3-1.7,0.5-2.7,0.6c-0.6,0,0-0.1,0-0.3c-12.3,1.1-24,3.5-34.2,6.6
			c-3.6,1-6.9,2.5-10.3,3.4c-0.9,0.3-2.1,0.5-2.9,0c-4.7,3.6-13.7,3-19.8,5.1c-0.2,0.6,0.2,1.7,0,2.4c-0.3,0.9-3.1,2.5-4.1,3.4
			c-3,2.5-5.2,4.8-7,8.1c-0.8,1.6-2.5,4.9-1.6,6.6c11.1,0,18.4-5.1,25.7-9c2.6-1.4,5.2-2.3,8.1-3.6c3.6-1.5,6.8-3.9,10.3-5.7
			c8.7-4.7,17.3-9,26.2-13.7c1.3-0.7,4.5-2.8,5.4-2.6c1.1,0.3,0.7,2,1.4,2.9c-0.2,0.9-1.3,0.8-1.6,1.6c1.4,0.8,1.9-1.2,3.1-0.6
			c-0.5,1.7-1.7,3.1-2.7,4.6c-3.2,4.5-7,8.6-11.4,11.7c-0.1,0.8,0.6,0.8,0.6,1.6c-4.9,3.5-7.7,8.9-12.1,12.8
			c-7.2,10.5-17,18.4-22.8,30.4c-3.3,1-5.8,6.3-8.1,9.4c-1.6,2-3,3-2.9,6c-0.5,0.4-1.4,0.5-2.1,0.7c-1.3,1.6-0.6,4.8-2.4,5.8
			c-0.6,0.4-1.4,0.1-2.1,0.7c0.7,4-2.6,6.5-4.7,8.7c-1.8,1.9-4,4.1-4.8,6.3c-0.7,1.8-0.2,3.3-2.6,4.1c-2-2.7,1.9-5.3,0.9-7.4
			c5.4-7.3,6.9-18.5,14.5-23.5c-0.5-7.8,7.9-8,7.7-16c2.5,0.2,1.9-2.7,4.3-2.6c-0.6-3.5,2.8-4.1,5-5.3c0.5-6.7,5.3-9,8.8-12.7
			c0-0.6-0.6-0.7-0.6-1.4c4.5-4.5,9.2-8.8,12.1-14.8c0.5-0.2,1.3-0.1,2-0.1c-0.3-4.6,4.2-4.2,5-7.7c-11.4,4.2-21.7,11.5-33.1,16.1
			c-1.7,0.7-3.6,1-5.3,1.9c-1.3,0.6-2.2,1.8-3.4,2.4c-1.3,0.7-2.7,1.2-4.3,1.7c-6.2,2-19.6,3.9-22.4-2.3c0-0.6,0-1.2,0-1.9
			c0.3-0.8,0.6-2,1-2.9c2.5-5.2,7.2-9.3,11.3-13.4c4.3-4.3,8.7-8.2,12.5-12.3c0.1-0.9-0.8-0.8-0.7-1.7c1.8-0.4,2.8-1.7,4.1-2.6
			c0-0.5,0.1-1.2-0.1-1.4c1.4,0.2,1-1.6,1.7-2.1c0.5-0.4,0.5,0.1,1.3-0.1c0.3-0.7,0.4-1.5,0.9-2c0.3,1.1,1.1-0.1,2-0.1
			c0.2-0.2-0.6-0.7-0.4-1.3c1.3-0.2,2.3-0.7,2.9-1.7c0.4-0.2-0.5-0.3-0.6-0.6c2.1-0.8,2.8-3.1,5.7-3.1c-0.3-0.1-0.8-0.1-0.9-0.6
			c0.8-1.6,1.7-3.2,3.8-3.6c3.1-3,5.7-6.6,8.8-9.3c1.1-0.9,2.4-1.5,3.7-2.4c1.3-1,2.4-2.3,3.7-3.4c8.9-7.8,19-14.3,30.2-19.7
			c1.5,0.4,3.4-0.8,4.4,0.3c0.4-2.3,3.5-3.1,4.1-4.8c0.2-0.6-0.1-1.4,0.1-2c0.5-1.2,2-1.9,3.4-2.1c1.1-1.7,3.2-2.6,3.1-5
			c0.9-0.2,1-1.1,1.7-1.4c0.5-0.3,1.1-0.1,1.7-0.4C4749.7,757.2,4749.5,754,4751.3,752.4z"/>
	</g>
</g>
<g id="HkY0sk.tif">
	
		<image style="overflow:visible;" width="322" height="112" id="Layer_0_1_" xlink:href="2D915E5B583149D7.png"  transform="matrix(1 0 0 1 4463.4795 1048.0117)">
	</image>
</g>
<g>
	<circle id="XMLID_69_" class="st6" cx="4245.5" cy="1110.5" r="60.9"/>
	<circle id="XMLID_109_" class="st6" cx="4245.5" cy="1110.5" r="102.1"/>
	<g id="XMLID_110_">
		<g id="XMLID_133_">
			<path id="XMLID_143_" class="st7" d="M4169.1,1118c0.1,0,0.1-0.1,0.2-0.1c0.1-0.1,0.1-0.2,0.1-0.3l0-1.9c0-0.2-0.2-0.4-0.4-0.4
				l-9.4,0.1l9.6-8.8c0.1-0.1,0.1-0.2,0.1-0.3l0-1.9c0-0.2-0.2-0.4-0.4-0.4l-13.2,0.1c-0.1,0-0.2,0-0.3,0.1
				c-0.1,0.1-0.1,0.2-0.1,0.3l0,1.9c0,0.2,0.2,0.4,0.4,0.4l9.4-0.1l-9.6,8.8c-0.1,0.1-0.1,0.2-0.1,0.3l0,1.9c0,0.1,0,0.2,0.1,0.3
				c0.1,0.1,0.2,0.1,0.3,0.1L4169.1,1118C4169.1,1118,4169.1,1118,4169.1,1118z"/>
			<path id="XMLID_142_" class="st7" d="M4171.5,1091.7l4.4-12.5c0-0.1,0-0.2,0-0.3c0-0.1-0.1-0.2-0.2-0.2l-1.8-0.6
				c-0.2-0.1-0.4,0-0.5,0.2l-3.7,10.3l-2.8-1l3-8.5c0-0.1,0-0.2,0-0.3c0-0.1-0.1-0.2-0.2-0.2l-1.8-0.6c-0.2-0.1-0.4,0-0.5,0.2
				l-3,8.5l-2.8-1l3.7-10.3c0-0.1,0-0.2,0-0.3c0-0.1-0.1-0.2-0.2-0.2l-1.8-0.6c-0.2-0.1-0.4,0-0.5,0.2l-4.4,12.5
				c-0.1,0.2,0,0.4,0.2,0.5l12.5,4.4c0.1,0,0.1,0,0.2,0c0,0,0.1,0,0.1,0C4171.4,1091.9,4171.5,1091.8,4171.5,1091.7z"/>
			<path id="XMLID_141_" class="st7" d="M4190.2,1057.9c-0.1-0.1-0.2-0.2-0.4-0.2l-8.2,0.1l-1.7-8c0-0.1-0.1-0.3-0.3-0.3
				c-0.1,0-0.3,0-0.4,0.1l-1.5,1.9c-0.1,0.1-0.1,0.2-0.1,0.3l1.3,6l-6.1,0.1c-0.1,0-0.2,0.1-0.3,0.1l-1.5,1.9
				c-0.1,0.1-0.1,0.3,0,0.4s0.2,0.2,0.4,0.2l8.2-0.1l1.7,8c0,0.1,0.1,0.3,0.3,0.3c0.1,0,0.1,0,0.2,0c0.1,0,0.2-0.1,0.2-0.1l1.5-1.9
				c0.1-0.1,0.1-0.2,0.1-0.3l-1.3-6l6.1,0c0.1,0,0.2-0.1,0.3-0.1l1.5-1.9C4190.2,1058.2,4190.3,1058,4190.2,1057.9z"/>
			<path id="XMLID_140_" class="st7" d="M4203,1031.3l-11.2,7c-0.2,0.1-0.2,0.4-0.1,0.5l1,1.6c0.1,0.2,0.4,0.2,0.5,0.1l4.5-2.8
				l5.8,9.3c0.1,0.1,0.3,0.2,0.4,0.2c0,0,0.1,0,0.1-0.1l1.6-1c0.1-0.1,0.1-0.1,0.2-0.2c0-0.1,0-0.2-0.1-0.3l-5.8-9.3l4.5-2.8
				c0.1-0.1,0.2-0.1,0.2-0.2s0-0.2-0.1-0.3l-1-1.6C4203.4,1031.3,4203.1,1031.2,4203,1031.3z"/>
			<path id="XMLID_139_" class="st7" d="M4247.2,1021l-13.2,0.6c-0.2,0-0.4,0.2-0.4,0.4l0.1,1.9c0,0.2,0.2,0.4,0.4,0.4l5.3-0.3
				l0.5,10.9c0,0.1,0.1,0.2,0.1,0.3c0.1,0.1,0.2,0.1,0.3,0.1l1.9-0.1c0,0,0,0,0.1,0c0.2,0,0.3-0.2,0.3-0.4l-0.5-10.9l5.3-0.3
				c0.2,0,0.4-0.2,0.4-0.4l-0.1-1.9c0-0.1-0.1-0.2-0.1-0.3C4247.4,1021,4247.3,1021,4247.2,1021z"/>
			<path id="XMLID_138_" class="st7" d="M4274.8,1026.3c-0.2-0.1-0.4,0.1-0.5,0.3l-1.5,5.1l-8.3-2.5l1.5-5.1
				c0.1-0.2-0.1-0.4-0.3-0.5l-1.8-0.5c-0.1,0-0.2,0-0.3,0c-0.1,0-0.2,0.1-0.2,0.2l-3.8,12.7c-0.1,0.2,0.1,0.4,0.3,0.5l1.8,0.5
				c0.1,0,0.2,0,0.3,0c0.1,0,0.2-0.1,0.2-0.2l1.5-5.1l8.3,2.5l-1.5,5.1c0,0.1,0,0.2,0,0.3c0,0.1,0.1,0.2,0.2,0.2l1.8,0.5
				c0.1,0,0.1,0,0.2,0c0.1,0,0.3-0.1,0.3-0.3l3.8-12.7c0-0.1,0-0.2,0-0.3c0-0.1-0.1-0.2-0.2-0.2L4274.8,1026.3z"/>
			<path id="XMLID_137_" class="st7" d="M4286.2,1047.5c0.1,0,0.2-0.1,0.2-0.2l7.1-11.2c0.1-0.1,0.1-0.2,0.1-0.3
				c0-0.1-0.1-0.2-0.2-0.2l-1.6-1c-0.2-0.1-0.4-0.1-0.5,0.1l-7.1,11.2c-0.1,0.2-0.1,0.4,0.1,0.5l1.6,1
				C4286,1047.5,4286.1,1047.5,4286.2,1047.5z"/>
			<path id="XMLID_136_" class="st7" d="M4296.6,1055.4l1.3,1.4c0.1,0.2,0.4,0.2,0.6,0l7-6.3l-1.3,13c0,0.1,0,0.2,0.1,0.3l1.3,1.4
				c0.1,0.1,0.2,0.1,0.4,0.1c0.1,0,0.1,0,0.2-0.1l9.9-8.8c0.1-0.1,0.1-0.2,0.1-0.3c0-0.1,0-0.2-0.1-0.3l-1.3-1.4
				c-0.1-0.2-0.4-0.2-0.6,0l-7,6.3l1.3-13c0-0.1,0-0.2-0.1-0.3l-1.3-1.4c-0.1-0.1-0.2-0.1-0.3-0.1c-0.1,0-0.2,0-0.3,0.1l-9.9,8.8
				C4296.5,1055,4296.4,1055.3,4296.6,1055.4z"/>
			<path id="XMLID_135_" class="st7" d="M4327.5,1076.7c-0.7-1.8-2-3.1-3.8-3.8c-1.8-0.7-3.6-0.8-5.4,0c-1.8,0.7-3.1,2-3.8,3.8
				c-0.7,1.8-0.7,3.6,0,5.4c0.7,1.8,2,3,3.8,3.8c1.3,0.6,2.7,0.7,4.1,0.4c0.4-0.1,0.9-0.2,1.3-0.4l0.9-0.4c0.2-0.1,0.3-0.3,0.2-0.5
				l-2.9-7c0-0.1-0.1-0.2-0.2-0.2c-0.1,0-0.2,0-0.3,0l-1.7,0.7c-0.2,0.1-0.3,0.3-0.2,0.5l1.9,4.7c-0.3,0-0.7,0-1,0
				c-0.5-0.1-1-0.2-1.4-0.5c-0.4-0.2-0.8-0.5-1.2-0.9c-0.3-0.4-0.6-0.8-0.8-1.3c-0.2-0.5-0.3-1.1-0.3-1.7c0-0.6,0.1-1.1,0.3-1.6
				c0.2-0.5,0.5-1,0.9-1.4c0.4-0.4,0.9-0.7,1.4-1c0.6-0.2,1.1-0.3,1.7-0.3c0.6,0,1.1,0.1,1.6,0.3c0.5,0.2,1,0.5,1.4,0.9
				c0.4,0.4,0.7,0.9,1,1.4c0.5,1.1,0.5,2.2,0,3.3c0,0.1,0,0.2,0,0.3c0,0.1,0.1,0.2,0.2,0.2l1.7,0.7c0.1,0,0.2,0,0.3,0
				c0.1,0,0.2-0.1,0.2-0.2C4328.3,1080.2,4328.3,1078.4,4327.5,1076.7z"/>
		</g>
		<g id="XMLID_111_">
			<path id="XMLID_132_" class="st7" d="M4175,1145.8c-1.7-0.5-3.3-0.3-4.8,0.5c-1.5,0.8-2.4,2.1-2.8,3.9c-0.4,1.7-0.1,3.4,0.8,4.9
				c0.3,0.5,0.6,1,1.1,1.4c0.4,0.4,0.9,0.8,1.3,1.1c0.5,0.3,1,0.5,1.5,0.7c0.5,0.2,1.1,0.3,1.6,0.3c0,0,0.1,0,0.1,0
				c0.1,0,0.1-0.1,0.2-0.1c0.1-0.1,0.1-0.2,0.1-0.3l0-1.7c0-0.2-0.2-0.4-0.4-0.4c-0.3,0-0.7-0.1-1-0.2c-0.3-0.1-0.6-0.2-0.9-0.4
				c-0.3-0.2-0.6-0.4-0.8-0.7c-0.3-0.3-0.5-0.6-0.7-0.9c-0.3-0.5-0.5-1-0.5-1.6c-0.1-0.5-0.1-1.1,0-1.6c0.1-0.5,0.3-1,0.6-1.4
				c0.3-0.4,0.6-0.7,1.1-1c0.4-0.3,0.9-0.4,1.4-0.4c0.5,0,1,0,1.5,0.2c0.5,0.2,0.9,0.4,1.4,0.8c0.4,0.3,0.8,0.8,1.1,1.3
				c0.2,0.3,0.3,0.7,0.4,1c0.1,0.4,0.2,0.7,0.2,1.1c0,0.4,0,0.7-0.1,1c-0.1,0.3-0.2,0.7-0.3,0.9c-0.1,0.2,0,0.4,0.1,0.5l1.4,0.9
				c0.1,0.1,0.2,0.1,0.3,0c0.1,0,0.2-0.1,0.2-0.2c0.2-0.5,0.4-1,0.6-1.5c0.1-0.5,0.2-1.1,0.2-1.6c0-0.6-0.1-1.1-0.2-1.7
				c-0.2-0.6-0.4-1.1-0.7-1.6C4178,1147.4,4176.7,1146.3,4175,1145.8z"/>
			<path id="XMLID_129_" class="st7" d="M4194.4,1170.4c-1.7,0.2-3,1-4.1,2.4c-1,1.4-1.4,2.9-1.2,4.6c0.2,1.7,1,3.1,2.4,4.1
				c1.3,1,2.9,1.4,4.6,1.2c0.2,0,0.3,0,0.5-0.1c1.5-0.3,2.7-1.1,3.6-2.3c1-1.4,1.4-2.9,1.2-4.6c-0.2-1.7-1-3.1-2.4-4.1
				C4197.6,1170.6,4196,1170.2,4194.4,1170.4z M4197.1,1179.7c-0.4,0.2-0.9,0.4-1.4,0.5c-0.5,0.1-1,0-1.4-0.1
				c-0.5-0.1-0.9-0.3-1.3-0.6c-0.4-0.3-0.7-0.7-1-1.1c-0.2-0.4-0.4-0.9-0.5-1.4c-0.1-0.5,0-1,0.1-1.4c0.1-0.5,0.3-0.9,0.6-1.3
				c0.3-0.4,0.7-0.7,1.1-1c0.4-0.2,0.7-0.3,1.1-0.4c0.1,0,0.2,0,0.2,0c0.5-0.1,1,0,1.4,0.1c0.5,0.1,0.9,0.3,1.3,0.6c0,0,0,0,0,0
				c0.4,0.3,0.7,0.7,1,1.1c0.2,0.4,0.4,0.9,0.5,1.4c0.1,0.5,0,1-0.1,1.4c-0.1,0.5-0.3,0.9-0.6,1.3
				C4197.9,1179.2,4197.5,1179.5,4197.1,1179.7z"/>
			<path id="XMLID_128_" class="st7" d="M4234,1186.3c-0.1,0-0.3,0-0.4,0.1l-6.7,6.7l-3.3-8.9c0-0.1-0.2-0.2-0.3-0.2l-1.9-0.4
				c-0.1,0-0.2,0-0.3,0.1c-0.1,0.1-0.1,0.1-0.2,0.2l-2.5,11.3c0,0.2,0.1,0.4,0.3,0.5l1.6,0.4c0.1,0,0.2,0,0.3-0.1
				c0.1-0.1,0.1-0.1,0.2-0.2l1.6-7.5l2.6,6.9c0,0.1,0.2,0.2,0.3,0.2l2.1,0.5c0.1,0,0.3,0,0.4-0.1l5.2-5.2l-1.6,7.5
				c0,0.1,0,0.2,0.1,0.3c0.1,0.1,0.1,0.1,0.2,0.2l1.6,0.4c0.1,0,0.1,0,0.2,0c0.1,0,0.3-0.1,0.3-0.3l2.5-11.3c0-0.1,0-0.2-0.1-0.3
				c-0.1-0.1-0.1-0.1-0.2-0.2L4234,1186.3z"/>
			<path id="XMLID_124_" class="st7" d="M4266.8,1185c-0.4-0.3-0.8-0.4-1.3-0.5c-0.5-0.1-1-0.1-1.5,0l-8.1,1.8
				c-0.1,0-0.2,0.1-0.2,0.2c-0.1,0.1-0.1,0.2-0.1,0.3l2.6,11.3c0,0.1,0.1,0.2,0.2,0.2c0.1,0.1,0.2,0.1,0.3,0.1c0,0,0,0,0,0l1.6-0.4
				c0.2,0,0.3-0.3,0.3-0.5l-1-4.5l6.1-1.4c0.5-0.1,0.9-0.3,1.3-0.6c0.4-0.3,0.7-0.6,1-1c0.3-0.4,0.4-0.8,0.5-1.3
				c0.1-0.5,0.1-1,0-1.5c-0.1-0.5-0.3-0.9-0.6-1.3C4267.6,1185.6,4267.2,1185.2,4266.8,1185z M4259,1190.7l-0.6-2.5l6.1-1.4
				c0.2,0,0.3,0,0.5,0c0.2,0,0.3,0.1,0.5,0.2c0.1,0.1,0.3,0.2,0.4,0.3c0.1,0.1,0.2,0.3,0.2,0.4c0,0.2,0,0.3,0,0.5
				c0,0.2-0.1,0.3-0.2,0.5c-0.1,0.1-0.2,0.2-0.3,0.4c-0.1,0.1-0.3,0.2-0.4,0.2L4259,1190.7z"/>
			<path id="XMLID_114_" class="st7" d="M4290.4,1172.1c-0.1-0.1-0.3-0.1-0.4,0l-1.5,1.1c-0.1,0.1-0.2,0.2-0.2,0.4l2.1,12.7
				c0,0.1,0.1,0.2,0.2,0.3c0.1,0,0.2,0,0.2,0c0.1,0,0.1,0,0.1-0.1l1.5-1.1c0.1-0.1,0.2-0.2,0.2-0.4l-0.4-2.5l5.4-3.9l2.2,1.2
				c0.1,0.1,0.3,0.1,0.4,0l1.5-1.1c0.1-0.1,0.2-0.2,0.2-0.3c0-0.1-0.1-0.3-0.2-0.3L4290.4,1172.1z M4295.3,1177.5l-3.4,2.5l-0.8-4.7
				L4295.3,1177.5z"/>
			<path id="XMLID_113_" class="st7" d="M4314,1144.2c-0.1-0.1-0.2-0.1-0.3,0c-0.1,0-0.2,0.1-0.2,0.2l-0.8,1.4
				c-0.1,0.2,0,0.4,0.1,0.5l7,4.1l-11.1,2.3c-0.1,0-0.2,0.1-0.3,0.2l-0.8,1.4c-0.1,0.2,0,0.4,0.1,0.5l10,5.9c0.1,0,0.2,0.1,0.3,0
				c0,0,0,0,0,0c0.1,0,0.2-0.1,0.2-0.2l0.8-1.4c0.1-0.2,0-0.4-0.1-0.5l-7-4.1l11.1-2.3c0.1,0,0.2-0.1,0.3-0.2l0.8-1.4
				c0.1-0.2,0-0.4-0.1-0.5L4314,1144.2z"/>
			<path id="XMLID_112_" class="st7" d="M4332.5,1120.3l-4.3-0.5l-6.3-5.7c-0.1-0.1-0.3-0.1-0.4-0.1c-0.1,0.1-0.2,0.2-0.2,0.3
				l-0.3,2c0,0.1,0,0.3,0.1,0.3l4.5,4l-5.3,2.8c-0.1,0.1-0.2,0.2-0.2,0.3l-0.3,2c0,0.1,0,0.3,0.2,0.4c0.1,0.1,0.2,0.1,0.3,0.1
				c0,0,0.1,0,0.1,0l7.5-4l4.3,0.5c0.2,0,0.4-0.1,0.4-0.3l0.2-1.6c0-0.1,0-0.2-0.1-0.3C4332.7,1120.4,4332.6,1120.3,4332.5,1120.3z"
				/>
		</g>
	</g>
	<g id="XMLID_1_">
		<g>
			<defs>
				<rect id="SVGID_5_" x="4190.1" y="1079.2" width="84.7" height="84.7"/>
			</defs>
			<clipPath id="SVGID_3_">
				<use xlink:href="#SVGID_5_"  style="overflow:visible;"/>
			</clipPath>
			<g class="st8">
				<defs>
					<rect id="SVGID_6_" x="4190.1" y="1079.2" width="84.7" height="84.7"/>
				</defs>
				<clipPath id="SVGID_4_">
					<use xlink:href="#SVGID_6_"  style="overflow:visible;"/>
				</clipPath>
				<path class="st9" d="M4272.2,1106.4c1.4,0,2.6-1.2,2.6-2.6c0-1.4-1.2-2.6-2.6-2.6h-8.4v-8.4c0-1.4-1.2-2.6-2.6-2.6h-8.4v-8.4
					c0-1.4-1.2-2.6-2.6-2.6c-1.4,0-2.6,1.2-2.6,2.6v8.4h-12.6v-8.4c0-1.4-1.2-2.6-2.6-2.6s-2.6,1.2-2.6,2.6v8.4h-12.6v-8.4
					c0-1.4-1.2-2.6-2.6-2.6s-2.6,1.2-2.6,2.6v8.4h-8.4c-1.4,0-2.6,1.2-2.6,2.6v8.4h-8.4c-1.4,0-2.6,1.2-2.6,2.6
					c0,1.4,1.2,2.6,2.6,2.6h8.4v12.6h-8.4c-1.4,0-2.6,1.2-2.6,2.6c0,1.4,1.2,2.6,2.6,2.6h8.4v12.6h-8.4c-1.4,0-2.6,1.2-2.6,2.6
					c0,1.4,1.2,2.6,2.6,2.6h8.4v8.4c0,1.4,1.2,2.6,2.6,2.6h8.4v8.4c0,1.4,1.2,2.6,2.6,2.6s2.6-1.2,2.6-2.6v-8.4h12.6v8.4
					c0,1.4,1.2,2.6,2.6,2.6s2.6-1.2,2.6-2.6v-8.4h12.6v8.4c0,1.4,1.2,2.6,2.6,2.6c1.4,0,2.6-1.2,2.6-2.6v-8.4h8.4
					c1.4,0,2.6-1.2,2.6-2.6v-8.4h8.4c1.4,0,2.6-1.2,2.6-2.6c0-1.4-1.2-2.6-2.6-2.6h-8.4v-12.6h8.4c1.4,0,2.6-1.2,2.6-2.6
					c0-1.4-1.2-2.6-2.6-2.6h-8.4v-12.6H4272.2z M4222.8,1104.4c-4.1,0-7.5,3.4-7.5,7.5c0,4.1,3.4,7.5,7.5,7.5c1.1,0,2.2-0.3,3.1-0.7
					c3.8,2.6,10.9,5.4,24.2,5.4h8.4v23.5h-52.3v-52.3h52.3v23.5h-8.4c-11.5,0-17.5-2.2-20.5-4c0.4-0.9,0.6-1.9,0.6-3
					C4230.4,1107.8,4227,1104.4,4222.8,1104.4"/>
			</g>
		</g>
	</g>
</g>
</svg>
