<?xml version="1.0" encoding="utf-8"?>
<!-- Generator: Adobe Illustrator 19.0.0, SVG Export Plug-In . SVG Version: 6.00 Build 0)  -->
<svg version="1.1" id="Layer_1" xmlns="http://www.w3.org/2000/svg" xmlns:xlink="http://www.w3.org/1999/xlink" x="0px" y="0px"
	 viewBox="1422 -468 3456 1728" style="enable-background:new 1422 -468 3456 1728;" xml:space="preserve">
<style type="text/css">
	.st0{fill:none;stroke:#ED1C24;stroke-width:3;stroke-miterlimit:10;}
	.st1{fill:none;}
	.st2{fill:none;stroke:#000000;stroke-width:3;stroke-miterlimit:10;}
	.st3{fill:none;stroke:#009444;stroke-width:3;stroke-miterlimit:10;}
	.st4{clip-path:url(#SVGID_2_);}
	.st5{clip-path:url(#SVGID_4_);fill:#29292A;}
	.st6{fill-rule:evenodd;clip-rule:evenodd;fill:#8BC53F;stroke:#8BC53F;stroke-width:3;stroke-miterlimit:10;}
	.st7{fill:none;stroke:#231F20;stroke-width:6;stroke-miterlimit:10;}
	.st8{fill:#000002;}
	.st9{clip-path:url(#SVGID_6_);}
	.st10{clip-path:url(#SVGID_8_);fill:#242629;}
</style>
<line class="st0" x1="3969.8" y1="-403.5" x2="3969.8" y2="1203"/>
<line class="st0" x1="1507.4" y1="-333.2" x2="1507.4" y2="1200.8"/>
<line class="st0" x1="3948.4" y1="-421.2" x2="1591.8" y2="-421.2"/>
<line class="st0" x1="3952" y1="1220.4" x2="1529.1" y2="1220.4"/>
<line class="st0" x1="1588.1" y1="-419.8" x2="1510.1" y2="-341.9"/>
<line class="st1" x1="1746.3" y1="-421.2" x2="1746.3" y2="-146.1"/>
<g>
	<line class="st2" x1="1794.7" y1="-416.1" x2="3682.5" y2="-416.1"/>
	<line class="st2" x1="3682.5" y1="-416.1" x2="3682.5" y2="-221.2"/>
	<line class="st2" x1="3682.5" y1="-221.2" x2="1794.7" y2="-221.2"/>
	<line class="st2" x1="1794.7" y1="-221.2" x2="1794.7" y2="-416.1"/>
</g>
<g>
	<line class="st1" x1="1792.8" y1="972.6" x2="1792.8" y2="1214"/>
	<line class="st2" x1="1792.8" y1="1008.6" x2="3680.5" y2="1008.6"/>
	<line class="st2" x1="3680.5" y1="1008.6" x2="3680.5" y2="1214"/>
	<line class="st2" x1="3680.5" y1="1214" x2="1792.8" y2="1214"/>
	<line class="st2" x1="1792.8" y1="1214" x2="1792.8" y2="1008.6"/>
</g>
<line class="st2" x1="3963.9" y1="840.9" x2="3738.1" y2="840.9"/>
<line class="st2" x1="3738.1" y1="840.9" x2="3738.1" y2="1210.7"/>
<line class="st2" x1="3738.1" y1="1210.7" x2="3945" y2="1210.7"/>
<line class="st2" x1="3963.9" y1="1190.3" x2="3963.9" y2="840.9"/>
<line class="st2" x1="3343.3" y1="-146.1" x2="3343.3" y2="249.6"/>
<line class="st2" x1="3343.3" y1="249.6" x2="3957.1" y2="249.6"/>
<g>
	<line class="st2" x1="3305.1" y1="433.8" x2="3969.8" y2="433.8"/>
	<line class="st2" x1="3969.8" y1="433.8" x2="3969.8" y2="605.7"/>
	<line class="st2" x1="3969.8" y1="605.7" x2="3305.1" y2="605.7"/>
	<line class="st2" x1="3305.1" y1="605.7" x2="3305.1" y2="433.8"/>
</g>
<path class="st3" d="M3534,874.4c0-32.1,26-58.1,58.1-58.1c32.1,0,58.1,26,58.1,58.1c0,32.1-26,58.1-58.1,58.1
	C3560,932.5,3534,906.5,3534,874.4z"/>
<path class="st3" d="M1579.8,874.4c0-32.1,26-58.1,58.1-58.1c32.1,0,58.1,26,58.1,58.1c0,32.1-26,58.1-58.1,58.1
	C1605.8,932.5,1579.8,906.5,1579.8,874.4z"/>
<path class="st3" d="M1579.8-78.4c0-32.1,26-58.1,58.1-58.1c32.1,0,58.1,26,58.1,58.1c0,32.1-26,58.1-58.1,58.1
	C1605.8-20.3,1579.8-46.3,1579.8-78.4z"/>
<g>
	<line class="st2" x1="2069.2" y1="88.5" x2="1592.4" y2="88.5"/>
	<line class="st2" x1="1592.4" y1="88.5" x2="1592.4" y2="569.9"/>
	<line class="st2" x1="1592.4" y1="569.9" x2="2069.2" y2="569.9"/>
	<line class="st2" x1="2069.2" y1="569.9" x2="2069.2" y2="88.5"/>
</g>
<g>
	<line class="st2" x1="2154" y1="-25" x2="2699.6" y2="-25"/>
	<line class="st2" x1="2699.6" y1="-25" x2="2699.6" y2="909.1"/>
	<line class="st2" x1="2699.6" y1="908" x2="2154" y2="908"/>
	<line class="st2" x1="2154" y1="909.1" x2="2154" y2="-25"/>
</g>
<path class="st2" d="M1739.1,396.8"/>
<path class="st2" d="M1944.2,401.6"/>
<path class="st2" d="M1739.1,401.6"/>
<path class="st2" d="M1939.8,425.7"/>
<line class="st2" x1="3343.3" y1="-146.1" x2="3957.1" y2="-146.1"/>
<path class="st0" d="M3969.8-401.3c0.1-10.9-9.5-19.8-21.4-19.9"/>
<path class="st0" d="M3950,1220.4c10.9,0,19.8-9.6,19.8-21.5"/>
<path class="st0" d="M1507.4,1200.8c0.1,10.9,9.8,19.7,21.7,19.6"/>
<path class="st0" d="M1507.4-333.2c0-4.8,0.7-6.6,2.7-8.7"/>
<path class="st0" d="M1588.1-419.8c1.1-1.1,2.1-1.4,3.7-1.4"/>
<rect x="2887.7" y="-43.5" class="st2" width="36.3" height="71.1"/>
<rect x="2752" y="142.4" class="st2" width="36.3" height="71.1"/>
<rect x="2937.4" y="772.2" class="st2" width="71.1" height="36.3"/>
<rect x="2802.3" y="772.2" class="st2" width="71.1" height="36.3"/>
<rect x="2828.9" y="142.4" class="st2" width="36.3" height="71.1"/>
<rect x="2784.2" y="-7.9" class="st2" width="36.3" height="71.1"/>
<rect x="3230.9" y="199.4" class="st2" width="36.3" height="71.1"/>
<rect x="3230.9" y="366" class="st2" width="36.3" height="71.1"/>
<rect x="1835.9" y="-98.3" class="st2" width="207.9" height="78"/>
<rect x="1848.5" y="665.8" class="st2" width="182.6" height="124.5"/>
<rect x="2756.5" y="296.6" class="st2" width="117" height="147.7"/>
<rect x="2923.9" y="505.1" class="st2" width="128.6" height="147.7"/>
<rect x="3052.5" y="39.8" class="st2" width="97.5" height="97.5"/>
<rect x="2948.3" y="177.9" class="st2" width="237.3" height="237.3"/>
<rect x="3101.3" y="-136.5" class="st2" width="147.7" height="128.6"/>
<path class="st2" d="M4371.6-98.3c0-42.7,34.6-77.3,77.3-77.3c42.7,0,77.3,34.6,77.3,77.3c0,42.7-34.6,77.3-77.3,77.3
	C4406.2-21,4371.6-55.6,4371.6-98.3z"/>
<path class="st2" d="M4170.7-98.3c0-153.7,124.6-278.3,278.3-278.3c153.6,0,278.2,124.6,278.2,278.3
	c0,153.6-124.6,278.2-278.2,278.2C4295.2,179.9,4170.7,55.4,4170.7-98.3z"/>
<g>
	<g id="XMLID_2_">
		<g>
			<defs>
				<rect id="SVGID_1_" x="4438.6" y="887.2" width="368" height="102.2"/>
			</defs>
			<clipPath id="SVGID_2_">
				<use xlink:href="#SVGID_1_"  style="overflow:visible;"/>
			</clipPath>
			<g class="st4">
				<defs>
					<rect id="SVGID_3_" x="4438.6" y="887.2" width="368" height="102.2"/>
				</defs>
				<clipPath id="SVGID_4_">
					<use xlink:href="#SVGID_3_"  style="overflow:visible;"/>
				</clipPath>
				<path class="st5" d="M4633.8,887.2h-26.5c-1.4,0-2.4,0.4-3.3,1.4c-0.9,0.9-1.3,2-1.3,3.3v19.9c0,1.2,0.4,2.3,1.4,3.2
					c1.9,1.9,4.6,1.9,6.5,0.1c1-1,1.4-2,1.4-3.3v-15.3h17.2v83.6H4612v-41.5c0-1.4-0.4-2.5-1.3-3.5c-0.9-1-2-1.5-3.3-1.5h-21.9
					v-41.5c0-1.4-0.4-2.5-1.3-3.5c-0.9-1-2-1.5-3.3-1.5h-26.5c-1.4,0-2.4,0.4-3.3,1.3c-0.9,0.9-1.4,2-1.4,3.3v92.9
					c0,1.3,0.4,2.4,1.3,3.3c0.9,0.9,2,1.4,3.3,1.4h26.5c1.3,0,2.4-0.5,3.3-1.5c0.9-1,1.3-2.1,1.3-3.5v-19.6c0-1.2-0.5-2.3-1.4-3.2
					c-2-1.9-4.7-1.8-6.6,0c-0.9,0.9-1.3,2-1.3,3.3v15.3h-17.3v-83.6h17.3v41.8c0,1.3,0.4,2.4,1.3,3.3c0.9,0.9,2,1.3,3.3,1.3h21.9
					v41.8c0,1.3,0.4,2.4,1.3,3.3c0.9,0.9,2,1.4,3.3,1.4h26.5c1.4,0,2.4-0.4,3.3-1.4c0.9-0.9,1.3-2,1.3-3.3v-92.9
					c0-1.3-0.4-2.4-1.3-3.3C4636.2,887.7,4635.2,887.2,4633.8,887.2"/>
				<path class="st5" d="M4614.2,918.4c0,3.8-3.1,7-7,7c-3.8,0-6.9-3.1-6.9-7s3.1-6.9,6.9-6.9
					C4611.1,911.4,4614.2,914.5,4614.2,918.4"/>
				<path class="st5" d="M4695.7,887.2h-26.5c-1.3,0-2.3,0.4-3.2,1.4c-1,1-1.4,2-1.4,3.3c0,1.3,0.4,2.4,1.4,3.3
					c0.9,0.9,2,1.3,3.3,1.3h21.8v83.6h-17.2v-61.7c0-1.3-0.4-2.3-1.4-3.2c-1-1-2-1.4-3.3-1.4c-1.3,0-2.4,0.4-3.3,1.4
					c-0.9,0.9-1.3,2-1.3,3.3v66.4c0,1.3,0.4,2.4,1.3,3.3c0.9,0.9,2,1.4,3.3,1.4h26.5c1.4,0,2.4-0.4,3.3-1.4c0.9-0.9,1.3-2,1.3-3.3
					v-92.9c0-1.3-0.4-2.4-1.3-3.3C4698.1,887.7,4697.1,887.2,4695.7,887.2"/>
				<path class="st5" d="M4676,918.4c0,3.8-3.1,7-7,7c-3.8,0-6.9-3.1-6.9-7s3.1-6.9,6.9-6.9C4672.8,911.4,4676,914.5,4676,918.4"/>
				<path class="st5" d="M4527.5,971.1c0-1.3-0.4-2.3-1.3-3.2c-2-2-4.9-1.9-6.8,0.1l-1.4,1.5l-0.2-0.2c-7.8,7.2-17.3,10.9-28.1,10.9
					c-11.5,0-21.4-4.1-29.5-12.3c-8.1-8.1-12.3-18.1-12.3-29.6c0-11.5,4.1-21.4,12.3-29.6c8.1-8.1,18-12.3,29.5-12.3
					c11.5,0,21.4,4.1,29.6,12.3c1.9,1.8,4.7,1.8,6.6,0c0.9-0.9,1.3-1.9,1.3-3.3c0-1.3-0.4-2.3-1.4-3.2c-9.9-10-22.1-15-36.1-15
					c-14,0-26.1,5-36.1,15c-9.9,10-14.9,22.1-14.9,36.1c0,14,5,26.2,14.9,36.1c10,10,22.1,15,36.1,15c13.3,0,25.1-4.7,34.9-13.9
					l0.4-0.3C4526.7,974.3,4527.5,973,4527.5,971.1"/>
				<path class="st5" d="M4500.5,927.5c1.9,1.9,4.7,1.8,6.5,0c0.9-0.9,1.3-2,1.3-3.3c0-1.3-0.4-2.4-1.3-3.3
					c-5-4.9-10.6-7.2-17.4-7.2c-6.8,0-12.5,2.3-17.3,7.2c-4.8,4.8-7.2,10.5-7.2,17.4s2.3,12.5,7.2,17.4c4.8,4.8,10.5,7.2,17.3,7.2
					c6.9,0,12.5-2.3,17.4-7.2c0.9-0.9,1.3-2,1.3-3.3s-0.4-2.4-1.4-3.3l-1.3-1.3h-2c-1.3,0-2.3,0.4-3.2,1.3l-0.3,0.3
					c-3,2.8-6.5,4.2-10.6,4.2c-4.2,0-7.8-1.5-10.8-4.5c-2.9-2.9-4.4-6.6-4.4-10.8c0-4.2,1.5-7.8,4.4-10.8c3-3,6.6-4.5,10.8-4.5
					c4.1,0,7.7,1.4,10.5,4.2L4500.5,927.5z"/>
				<path class="st5" d="M4530.9,907.7c0,3.8-3.1,6.9-7,6.9c-3.8,0-6.9-3.1-6.9-6.9s3.1-6.9,6.9-6.9
					C4527.8,900.8,4530.9,903.9,4530.9,907.7"/>
				<path class="st5" d="M4523.9,975.2c-1.2,0-2.3-0.5-3.2-1.4l-18.3-19.3c-1.7-1.8-1.6-4.6,0.2-6.2c1.8-1.7,4.5-1.6,6.2,0.2
					l18.3,19.3c1.7,1.8,1.6,4.5-0.2,6.2C4526.1,974.8,4525,975.2,4523.9,975.2"/>
				<path class="st5" d="M4778.7,921.7c0.9-0.9,1.3-2,1.3-3.3c0-1.3-0.4-2.3-1.3-3.2c-0.9-0.9-2-1.4-3.2-1.4h-19.9
					c-1.4,0-2.5,0.5-3.4,1.5c-0.9,1-1.3,2.1-1.3,3.5v66c0,1.3,0.4,2.4,1.4,3.3c1.8,1.7,4.6,1.9,6.5-0.1c1-0.9,1.4-2,1.4-3.2V923
					h15.3C4776.8,923,4777.8,922.6,4778.7,921.7"/>
				<path class="st5" d="M4800.3,938.4c4.2-5.6,6.4-12.3,6.4-20c0-8.2-3-15.3-9.1-21.6c-6.3-6.4-13.5-9.5-22-9.5H4729
					c-1.4,0-2.4,0.4-3.3,1.4c-0.9,0.9-1.3,1.9-1.3,3.3v92.9c0,1.3,0.4,2.3,1.4,3.2c1.9,2,4.7,1.9,6.6,0.1c0.9-0.9,1.3-2,1.3-3.3
					v-88.3h42.3c5.8,0.1,10.9,2.5,15.2,7.1c4.1,4.4,6.2,9.4,6.2,14.8c0,9.3-3.7,16-10.9,19.9c-0.6,0.3-1.8,0.8-5.9,2.2
					c-2.1,0.7-3.1,2.1-3.1,4.4c0,1.6,0.6,2.8,2,3.7c1.4,1,2.7,1.2,4.2,0.6C4790.6,947.5,4796.1,943.9,4800.3,938.4"/>
				<path class="st5" d="M4784.6,918.4c0,3.8-3.1,7-7,7c-3.8,0-6.9-3.1-6.9-7s3.1-6.9,6.9-6.9
					C4781.5,911.4,4784.6,914.5,4784.6,918.4"/>
				<path class="st5" d="M4755.6,989.4h-25.8c-2.4,0-4.4-2-4.4-4.4s2-4.4,4.4-4.4h25.8c2.4,0,4.4,2,4.4,4.4S4758,989.4,4755.6,989.4
					"/>
			</g>
		</g>
	</g>
	<path id="XMLID_32_" class="st6" d="M4561.1,770.1c-0.2-0.8-0.7-1.6-1.6-2.2c-1.2-0.3-2.2,0.2-3.3,0.3c-2,2.7-4.9,4-7.4,7.4
		c-2.4,0.7-5.6,2.8-6.6,5.4c-1.7-0.5-3.1,1.6-3.5,3.3c-2.8,1-5,3.9-7.1,6.9c-4.7,4.2-9.3,8.4-12.1,13.8c-0.4-0.2-0.9-0.5-1.1,0.1
		c-3,4.9-7.5,7.1-9.8,13.3c-3.6,2.4-6.4,7.7-8.7,11.9c-2.3-0.3-3.2,4.1-5.3,4.8c0.6,2.3-2.4,3.8-3.5,5.3c-0.7,1.1,0.1,1.8-0.9,3
		c-0.6,0.1-1.1,0.3-1.6,0.5c-5.2,8.2-9.3,12.6-14.6,19.1c1.2-2.1,0.8-3.8,2.6-5.5c-0.3-0.4-1.6-0.4-1.2-1c0.6-1.1,1.6-1.2,2.3-1.8
		c-0.3-5,4.1-10.1,2.9-14.6c3.4-2.3,0.9-6.3,1.9-9.3c-2.7-1.4-2.6-2.3-5.4-3.5c-1,0.8-2.4,0.4-3.7,0.5c-1.5,2.8-3.3,4.7-5.7,4.9
		c-3.4,5.7-9.6,8-13.4,14.9c-2.7,0.7-5.5,4.7-7.1,8.2c-0.9,0.4-1.9,0.8-2.8,1.3c-3.3,5.2-8.6,10.6-10.4,15.8
		c-0.6,0.1-1.3-0.4-1.6,0.5c-2,4.7-6.1,6.9-8.4,10.7c1.2-2.5,1.5-5.5,3.3-6.8c-0.4-2.7,1.9-5.6,2.2-8.1c3.8-4,5.3-11.2,9.6-16.9
		c0.6-0.8,1.9-1.4,2.5-2.1c3-3.6,4.6-6.8,6.3-9.4c1-0.3,1.9-1.2,2.8-2c1.3-4.6,6.1-6,8.2-12.2c0.6-0.7,1.6,0,2.1-1.3
		c-0.3-2.6,0-5.4-0.2-8c-3-3.8-7.3-3.7-10.7-0.5c-0.4,2.9-2.1,3.2-3.1,5.2c-1,0-2.2-0.9-2.7,0.6c-0.4,0.7,1.8,0.7,1.3,1.4
		c-5,8.7-9.3,18.1-13.8,24.7c-0.5,4.1-3.4,4.7-5.9,7.2c-3.5,3.7-7.6,8.7-11.3,10.9c-0.3,2.6-2.8,3.1-3.9,5.5c-3.5,1.1-5.5,4.1-8,6.7
		c-1.3,1.4-4,1.6-5.6,2.9c-1.8,1.3-2.8,2.9-4.3,4.2c-0.7-0.4-0.3-0.7-1.1-0.6c-2.6,3.1-6,3.2-8.7,6c-0.3-0.3-0.3-0.7-0.9-0.8
		c-2.4,3.4-6.6,1.1-9.3,3.3c-0.3,2.2-0.3,4.7,2.6,4.1c-0.4,0.7-0.5,1.2,0.2,1.5c1.7,0.9,2.9,0.2,4.5,0.6c3.8-2.8,8.2-3.8,12.1-4.6
		c1.1-1.5,2-3.6,3.9-2.8c0-1.5,2.1-2.7,3.8-3.9c1.3-0.9,3.5-1.3,4.5-2.1c0.9-0.7,1.2-1.8,2-2.4c1.5-1.2,3.6-1.6,4.8-2.6
		c3.1-2.3,4.6-5.1,7.6-6.6c-0.4,4.9-2.6,9.5-5.4,14c0.4,0.2,0.9,0.5,0.5,1c-3.7,5.7-3.1,11.3-7.3,15.7c1.6,2-0.8,4.4-2.2,6.1
		c0.3,0.6,1.1,1,0.4,1.9c-0.4,1.2-1.4,0.5-1.7,1.9c-0.5,3.2-0.9,4.6-2.5,8.6c0.3,2.1,2.4,2.6,2.5,4.4c2.1-0.6,3.4,0.6,5.1,1.3
		c-0.3-1.9,2.1-2.4,3.1-4.5c-2.3-2.6,2.3-6.2,0.8-9.2c1.6-2.4,4.2-4.6,4.1-7.8c4-5.9,6.8-10.9,10.9-17.3c2.6-1.6,5.3-5.9,6.6-9.2
		c4.3-3.9,6.5-9.4,10.3-14.2c0.6-0.8,1.7-1.1,2.5-2.1c1.5-2,2.6-4.8,4.2-6.7c3.2-3.7,7.4-6.6,9.4-11.2c2.2,0.1,4.2-2.8,5-4.9
		c3.4-1.2,5.9-5.5,9.3-7.1c-1.4,5.3-1.5,11.2-5,15.9c0.2,3.5-2.8,7.9-3,11.5c-0.4,0.7-1.1,0.9-1.5,1.6c0.5,2.8-2.5,4.5-1.8,7.3
		c-0.7,0.6-1.4,1.2-2.1,2c-1.3,6-7.5,11.1-7.1,17.2c2.1,0.8,0.4,2.9,3.3,3.5c0.8,0.1,1.1-1.3,1.8-1.5c0.1,0.9,0,1.8,1.6,2.2
		c0.6-0.6,1.4-0.8,2.3-0.5c0.4-1.9,1.2-2.3,2.3-3.6c0.8-0.8-0.3-1.1,0.3-1.9c14.1-21.1,24.9-38.6,38.7-58.2c0.5-0.7,1.4-0.3,1.8-1.5
		c1.1-3.6,5-4.7,5.4-8.8c4.5-4.4,9.4-8.9,12.5-15.7c0.3,0.2,0.2,0.5,0.7,0.7c0.7-0.9,0.3-1.5,0.9-2.3c0.5,0.3,0,0.9,0.8,1.1
		c0.1-0.9,0.6-1.8,1.2-2.8c0.4-0.1,0.8-0.3,1.2-0.4c5.4-9.2,13.4-12.3,19.8-20.4c3-1.2,5.3-4.6,8.4-5.5c0.7,1.4-1,2.3-1.6,3.6
		c-0.9,2.3-1.1,4.9-2.5,7.3c-2.2,3.7-4.7,6.8-5.3,10.6c-0.4,0.7-1.2,0.1-1.5,0.9c-2,4.7-5.8,13.7-8.4,17.2c0,0.8-0.4,1.8-0.3,2.6
		c-6.2,9.2-8.6,18.2-11.8,26.8c-1.8,4.7-5,9.3-4.7,14.7c-3.7,4.2-2.7,12.3-6.7,17.1c0.2,2.3,0.4,4.9-1.8,7.3c0,1,0.6,1.9,0.5,3
		c-2.2,5.7-2.6,11.3-4.5,17.6c1.2,3.5-1.8,8.3,0.4,11.5c-2.6,4.3,0.4,8.7-0.5,13.2c1.1,0.4,1.1,0.2,1.5,1.1c-1.7,3.2,0.7,5.2,1,7.7
		c0.4,0.1,0.7,0.2,1.1,0.2c1-0.4,1.9-0.7,2.6-2c-1.5-1.8-2.1-4.3-0.4-6.4c-0.2-0.9-1.5-0.2-1.7-1.3c1-2-0.4-3.9-0.3-6
		c0.3-5.1,2.3-10.2,1.4-15c2.9-5.1,1.7-12,4.6-17.1c-0.1-1,0-1.9,0.2-3c3.2-5.5,2.3-13,5.9-18.2c1.4-4.4,3.6-10.2,3.8-14.9
		c0.5-0.9,1-1.6,1.7-1.9c1.7-4.9,4.5-9.7,5.4-15.4c4.4-7.3,8.6-18.4,12.4-26.7c1.8-2.4,4.5-5.2,5.6-8.7c0.3-0.8,0-1.8,0.3-2.6
		c0.7-1.5,2.3-2.5,3.2-4.1c1.4-2.3,2.1-5.2,3.3-7.5c3.1-5.8,5.1-10,5.3-15.8C4563.4,770.7,4563.2,770.1,4561.1,770.1z"/>
	<path id="XMLID_29_" class="st6" d="M4782.9,849.4c5.1-18.1,15.7-41.7,22.1-58.5c-0.8-1.9-2,0.8-4.2-1c-0.4-2.1-1.2-4.7-4.2-4.3
		c0.1,3.1-3.4,4.1-3.2,7.9c-2.6-0.2-3.6,2.6-3.9,5c-9.1,11.1-19.6,24.5-27.3,35.5c0-0.2,0.1-0.4,0.1-0.7c-0.1,0.1-0.1,0.3-0.2,0.4
		c-0.2,0.2-0.3,0.3-0.4,0.5c0.1,0.4,0.2,0.8-0.2,1.4c-6.9,8.2-15,18.2-22.3,29.7c-14.8,6.8-30.3,12.1-45.3,18.5
		c-6,1.3-13.7,3.2-18,6.4c0.1,0.3,0.1,0.6,0.3,0.8c4.1-0.5,10.4-2,12.8-4.6c1,3,3.7,0.5,6-0.2c4.5-1.4,10.3-2.3,13-4.6
		c-0.1,0.7,0.3,1.1,0.7,1.6c5.2-3.7,12.9-6.2,21.4-7.8c-1.4,2.5-7.4,7.8-8,12.1c-7.6,3.4-11.6,14.1-18.5,19.1c0,0.2-0.1,0.5-0.2,0.7
		c-0.4,0.5-0.6,1.1-0.6,1.6c0.2,0.4,0.4,0.7,0.6,1c0.2,0,0.4,0.1,0.6,0.1c1.9,0.3,3.8,0.8,5.6,0.8c1.1,0,2-0.2,3-0.5
		c5.8-5.6,11.5-13.5,13.9-20.7c3.3-0.1,5.5-5.2,6.4-7.9c3.9-0.1,4.8-6.2,6.7-8.5c-0.2,0.2,0.5,1.3,0.9,1c1.6-1.4,3.8-5.6,7.1-6.3
		c-0.2,0.9,1,1.1,1.2,1.8c5.1-5.9,17-4.9,22.2-6.9c-1,4.6-2.7,8.5-2.6,11.9c0.1,1.5-1.5,2.4-1.9,3.9c-0.4,1.8-0.8,4.7-1.2,6.9
		c2.4,2.8,8.2,4.6,8.2,0.7c-2.8-7.3,4.6-17.6,6.6-28.1c9.2-7.2,21.4-0.4,30.8-6.7C4806.5,840.5,4792.1,848.5,4782.9,849.4z
		 M4776.9,839.8c1.5,2.9-1.3,5.1-0.9,8.8c-1.5-1.4-1.2,1.7-2.7,0.2c0.9,2-0.4,2-0.4,4.4c-7.4,2.4-14.9,4.5-21.6,8.4
		c-1-0.5,0.4-2-1-2.4c1.2-1.7,4.4-2.7,3.6-5.8c1,3,4.9-5.5,5.4-3.7c2.4-5.6,4.2-9.4,8.4-13c-0.1-0.7-1.1-1.1-0.5-2.1
		c7.5-5.6,13.1-15.8,19.8-23.5c0.9,7-5.3,16.7-7.5,23.8c0.2,0.7,0.7,1.3,1.2,1.8C4778.1,837,4779.9,841.1,4776.9,839.8z"/>
	<g id="XMLID_24_">
		<path id="XMLID_26_" class="st6" d="M4687,783.8c5.3,0.8,11.2,0.4,15.8-2.2c0-0.2,0.1-0.5,0.2-0.7c-3.1,0.4-7.6-0.4-10.3,2.6
			c-8.8-1.9-18.4,2.7-27.9,3.5c0.2,2.3-2,3.8-2.2,1.8c0.2-1.2,1.3-0.2,1.6-1.2c-6.1,2-13.5,1-19.1,4.4
			c-17.7,1.3-38.5,13.4-54.9,15.9c-2.1,4.7-4.6,2.7-7.9,5.1c0.2-0.8,1.1-1.5,0.4-2.1c-0.7,1.7-2,1.8-2.9,3.1
			c-4.1-1.1-6.4,2.1-9.2,4.1c-7.5-1-14.9,6.8-22,7.5c-1.5,1.8-3.6,2.1-5.3,3.4c-0.9,2,1.8,3.1,0.3,3.7c-0.6-0.3-0.6-1.3-1.1-1.7
			c-0.1,2.1,0.4,3.4,1.7,4c6.3-5.8,11.6-7,16.6-9.3c3.5-1.6,9.8-2.7,14.8-6.7c2.3,1.7,10.6-1.2,12.5-4.2c0.7,2.4,1.2-0.3,1.5-0.5
			c3.8,1.4,4.4-1.3,8-2.9c-0.2,0.9-0.9,0.5-1.1,1.3c2.9-1,6.4-6.9,8.9-2.7c0.4-2.1,2.1-3.8,3.1-1.6c-0.1-4.7,8-6.1,5.7-3.3
			c1.2-0.5,3.9,0.3,2.2-1.8c0.9-1.7,2.1,2.1,2.7,0.5c-0.3-0.8-0.7-1.6-1-2.4c2.2-0.6,0.8,2.7,2.4,2.7c1.9-1.3-1.6-2.2,0-2.9
			c1.7,3.6,4.9-0.4,6.4,1.2c1-1.2,0.4-3.4,1.2-4.2c2.3,1,4.8-2.6,6.2-0.3c-1.6,0.1-3.2,0.4-4.1,2.2c2.4,0.3,4-1.2,6.3-1
			c1.1-2.4-1.5-0.7-1-2.4c6.3,3,18.2-5.7,23.8-4.2c3.9-4.3,10.7-1.5,13.6-5.5c-0.3-0.2-0.9-0.2-0.8-0.9c2.6,3.1,14.5-0.2,15.8-1.4
			C4687.6,784.9,4686.8,784.2,4687,783.8z M4621.9,801.5c0.3-0.5,0.7-1.1,0.8-2.1c1.1,0,1.7,0.5,2.2,1.2
			C4624.2,801.7,4622.8,801,4621.9,801.5z"/>
		<path id="XMLID_25_" class="st6" d="M4547.1,886.9c5.2-8.5,9.9-18.8,15-31.4c5.2-4.3,10.9-4.6,17-8.5c0,0.7-0.5,0.8-0.7,1.3
			c14.9-5.4,31.5-9,44.5-17.7c2.3,1.4,2.8-2.3,5.9-0.6c0.1-2.5,2.8-2.5,2.6-5.2c-19.2,4.8-36.4,12.5-56.3,17
			c-0.4,2.4-5.5,3.3-6.5,1.3c3.2-6.7,8.1-11.5,11.1-18.3c-1.8-2.2-3.6-4.2-6.5-5.2c-5.2,10.8-11.9,17.7-15,29.4
			c-4.1,3.5-11.8,3.5-14.4,8.5c1.2,1,2.3,2.1,3.3,3.3c2.6,0.2,2.7-2.1,5.2-2c-6.9,12.5-11.7,27.2-20.3,38c0.9,0.4,1.2,1.4,1.3,2.6
			c2.2-0.2,2.9-1.9,5.9-1.3c-0.3,0.8-0.4,1.4-0.5,2.2c0.1,0.2,0.3,0.4,0.3,0.7c0.3,0.1,0.6,0.2,0.8,0.2c2.9-2.6,9.2-1.7,11.2-6.4
			c9.1-2.5,17.9-10.9,26.8-15.7c7.3-2,12.1-6.6,18.3-9.8h2.6c4.7-3,9.3-6.7,14.4-9.2c7.3-3.6,17-4.6,22.3-11.8
			C4606.9,857.7,4578.9,874.5,4547.1,886.9z"/>
	</g>
	<g id="XMLID_22_">
		<path id="XMLID_23_" class="st6" d="M4738.3,763.4c0.5,0,0.9,0,1.4,0c1.5,0.5,3.6,0.8,3.7,2.3c0.1,1.5-2.8,3.5-3.9,4.7
			c-1.7,1.8-3,3.2-4.6,4c-0.8,2.3-2.8,4-4.4,6.6c-1,1.5-4.3,5-4.3,6.8c0,1.4,1.6,1.9,2.3,3c0,4.1-2.3,5.4-4.7,7.8
			c-2.8,2.8-4.9,4.9-7.6,7.8c-1.2,1.3-2.5,3.7-4.4,3.4c-0.8-0.1-1.6-1-2.4-1.4c-1-0.5-1.9-0.6-2.7-1.3c1-2.3,2-4.7,4.7-5.3
			c-1.1-3.7,2.9-4.7,3.3-8c-14.6,4.9-24.4,16-36.7,23.7c-0.2,0.7,0.4,0.5,0.4,1c-10.6,7.9-18.4,18.6-28.2,27.2
			c5.2,1.5,7.8-3.2,12.3-3.9c0.6-0.1,1.4,0.1,2,0c0.8-0.2,1.2-1,2-1.4c1.2-0.7,3.1-1.1,4.8-1.7c8.3-2.9,17.2-4.6,25.7-7.4
			c5.1-1.7,10.9-4.1,16.7-2.1c0.6,0,0.2-1,0.6-1.3c9,0.8,24.5-5.3,28.7,2c-0.6,0-1.1,0-1.7,0c-0.1,0.8,1,1.2,0.6,1.9
			c-8.5,1.3-17.2,2.5-26,3.6c-0.7-0.1-0.2-0.3-0.1-0.7c-0.8,0.3-1.7,0.5-2.7,0.6c-0.6,0,0-0.1,0-0.3c-12.3,1.1-24,3.5-34.2,6.6
			c-3.6,1-6.9,2.5-10.3,3.4c-0.9,0.3-2.1,0.5-2.9,0c-4.7,3.6-13.7,3-19.8,5.1c-0.2,0.6,0.2,1.7,0,2.4c-0.3,0.9-3.1,2.5-4.1,3.4
			c-3,2.5-5.2,4.8-7,8.1c-0.8,1.6-2.5,4.9-1.6,6.6c11.1,0,18.4-5.1,25.7-9c2.6-1.4,5.2-2.3,8.1-3.6c3.6-1.5,6.8-3.9,10.3-5.7
			c8.7-4.7,17.3-9,26.2-13.7c1.3-0.7,4.5-2.8,5.4-2.6c1.1,0.3,0.7,2,1.4,2.9c-0.2,0.9-1.3,0.8-1.6,1.6c1.4,0.8,1.9-1.2,3.1-0.6
			c-0.5,1.7-1.7,3.1-2.7,4.6c-3.2,4.5-7,8.6-11.4,11.7c-0.1,0.8,0.6,0.8,0.6,1.6c-4.9,3.5-7.7,8.9-12.1,12.8
			c-7.2,10.5-17,18.4-22.8,30.4c-3.3,1-5.8,6.3-8.1,9.4c-1.6,2-3,3-2.9,6c-0.5,0.4-1.4,0.5-2.1,0.7c-1.3,1.6-0.6,4.8-2.4,5.8
			c-0.6,0.4-1.4,0.1-2.1,0.7c0.7,4-2.6,6.5-4.7,8.7c-1.8,1.9-4,4.1-4.8,6.3c-0.7,1.8-0.2,3.3-2.6,4.1c-2-2.7,1.9-5.3,0.9-7.4
			c5.4-7.3,6.9-18.5,14.5-23.5c-0.5-7.8,7.9-8,7.7-16c2.5,0.2,1.9-2.7,4.3-2.6c-0.6-3.5,2.8-4.1,5-5.3c0.5-6.7,5.3-9,8.8-12.7
			c0-0.6-0.6-0.7-0.6-1.4c4.5-4.5,9.2-8.8,12.1-14.8c0.5-0.2,1.3-0.1,2-0.1c-0.3-4.6,4.2-4.2,5-7.7c-11.4,4.2-21.7,11.5-33.1,16.1
			c-1.7,0.7-3.6,1-5.3,1.9c-1.3,0.6-2.2,1.8-3.4,2.4c-1.3,0.7-2.7,1.2-4.3,1.7c-6.2,2-19.6,3.9-22.4-2.3c0-0.6,0-1.2,0-1.9
			c0.3-0.8,0.6-2,1-2.9c2.5-5.2,7.2-9.3,11.3-13.4c4.3-4.3,8.7-8.2,12.5-12.3c0.1-0.9-0.8-0.8-0.7-1.7c1.8-0.4,2.8-1.7,4.1-2.6
			c0-0.5,0.1-1.2-0.1-1.4c1.4,0.2,1-1.6,1.7-2.1c0.5-0.4,0.5,0.1,1.3-0.1c0.3-0.7,0.4-1.5,0.9-2c0.3,1.1,1.1-0.1,2-0.1
			c0.2-0.2-0.6-0.7-0.4-1.3c1.3-0.2,2.3-0.7,2.9-1.7c0.4-0.2-0.5-0.3-0.6-0.6c2.1-0.8,2.8-3.1,5.7-3.1c-0.3-0.1-0.8-0.1-0.9-0.6
			c0.8-1.6,1.7-3.2,3.8-3.6c3.1-3,5.7-6.6,8.8-9.3c1.1-0.9,2.4-1.5,3.7-2.4c1.3-1,2.4-2.3,3.7-3.4c8.9-7.8,19-14.3,30.2-19.7
			c1.5,0.4,3.4-0.8,4.4,0.3c0.4-2.3,3.5-3.1,4.1-4.8c0.2-0.6-0.1-1.4,0.1-2c0.5-1.2,2-1.9,3.4-2.1c1.1-1.7,3.2-2.6,3.1-5
			c0.9-0.2,1-1.1,1.7-1.4c0.5-0.3,1.1-0.1,1.7-0.4C4736.7,768.2,4736.5,765,4738.3,763.4z"/>
	</g>
</g>
<g id="HkY0sk.tif">
	
		<image style="overflow:visible;" width="322" height="112" id="Layer_0_1_" xlink:href="DA2E01126E2261D1.png"  transform="matrix(1 0 0 1 4450.4795 1059.0117)">
	</image>
</g>
<g>
	<circle id="XMLID_69_" class="st7" cx="4232.5" cy="1121.5" r="60.9"/>
	<circle id="XMLID_109_" class="st7" cx="4232.5" cy="1121.5" r="102.1"/>
	<g id="XMLID_110_">
		<g id="XMLID_133_">
			<path id="XMLID_143_" class="st8" d="M4156.1,1129c0.1,0,0.1-0.1,0.2-0.1c0.1-0.1,0.1-0.2,0.1-0.3l0-1.9c0-0.2-0.2-0.4-0.4-0.4
				l-9.4,0.1l9.6-8.8c0.1-0.1,0.1-0.2,0.1-0.3l0-1.9c0-0.2-0.2-0.4-0.4-0.4l-13.2,0.1c-0.1,0-0.2,0-0.3,0.1
				c-0.1,0.1-0.1,0.2-0.1,0.3l0,1.9c0,0.2,0.2,0.4,0.4,0.4l9.4-0.1l-9.6,8.8c-0.1,0.1-0.1,0.2-0.1,0.3l0,1.9c0,0.1,0,0.2,0.1,0.3
				c0.1,0.1,0.2,0.1,0.3,0.1L4156.1,1129C4156.1,1129,4156.1,1129,4156.1,1129z"/>
			<path id="XMLID_142_" class="st8" d="M4158.5,1102.7l4.4-12.5c0-0.1,0-0.2,0-0.3c0-0.1-0.1-0.2-0.2-0.2l-1.8-0.6
				c-0.2-0.1-0.4,0-0.5,0.2l-3.7,10.3l-2.8-1l3-8.5c0-0.1,0-0.2,0-0.3c0-0.1-0.1-0.2-0.2-0.2l-1.8-0.6c-0.2-0.1-0.4,0-0.5,0.2
				l-3,8.5l-2.8-1l3.7-10.3c0-0.1,0-0.2,0-0.3c0-0.1-0.1-0.2-0.2-0.2l-1.8-0.6c-0.2-0.1-0.4,0-0.5,0.2l-4.4,12.5
				c-0.1,0.2,0,0.4,0.2,0.5l12.5,4.4c0.1,0,0.1,0,0.2,0c0,0,0.1,0,0.1,0C4158.4,1102.9,4158.5,1102.8,4158.5,1102.7z"/>
			<path id="XMLID_141_" class="st8" d="M4177.2,1068.9c-0.1-0.1-0.2-0.2-0.4-0.2l-8.2,0.1l-1.7-8c0-0.1-0.1-0.3-0.3-0.3
				c-0.1,0-0.3,0-0.4,0.1l-1.5,1.9c-0.1,0.1-0.1,0.2-0.1,0.3l1.3,6l-6.1,0.1c-0.1,0-0.2,0.1-0.3,0.1l-1.5,1.9
				c-0.1,0.1-0.1,0.3,0,0.4s0.2,0.2,0.4,0.2l8.2-0.1l1.7,8c0,0.1,0.1,0.3,0.3,0.3c0.1,0,0.1,0,0.2,0c0.1,0,0.2-0.1,0.2-0.1l1.5-1.9
				c0.1-0.1,0.1-0.2,0.1-0.3l-1.3-6l6.1,0c0.1,0,0.2-0.1,0.3-0.1l1.5-1.9C4177.2,1069.2,4177.3,1069,4177.2,1068.9z"/>
			<path id="XMLID_140_" class="st8" d="M4190,1042.3l-11.2,7c-0.2,0.1-0.2,0.4-0.1,0.5l1,1.6c0.1,0.2,0.4,0.2,0.5,0.1l4.5-2.8
				l5.8,9.3c0.1,0.1,0.3,0.2,0.4,0.2c0,0,0.1,0,0.1-0.1l1.6-1c0.1-0.1,0.1-0.1,0.2-0.2c0-0.1,0-0.2-0.1-0.3l-5.8-9.3l4.5-2.8
				c0.1-0.1,0.2-0.1,0.2-0.2s0-0.2-0.1-0.3l-1-1.6C4190.4,1042.3,4190.1,1042.2,4190,1042.3z"/>
			<path id="XMLID_139_" class="st8" d="M4234.2,1032l-13.2,0.6c-0.2,0-0.4,0.2-0.4,0.4l0.1,1.9c0,0.2,0.2,0.4,0.4,0.4l5.3-0.3
				l0.5,10.9c0,0.1,0.1,0.2,0.1,0.3c0.1,0.1,0.2,0.1,0.3,0.1l1.9-0.1c0,0,0,0,0.1,0c0.2,0,0.3-0.2,0.3-0.4l-0.5-10.9l5.3-0.3
				c0.2,0,0.4-0.2,0.4-0.4l-0.1-1.9c0-0.1-0.1-0.2-0.1-0.3S4234.3,1032,4234.2,1032z"/>
			<path id="XMLID_138_" class="st8" d="M4261.8,1037.3c-0.2-0.1-0.4,0.1-0.5,0.3l-1.5,5.1l-8.3-2.5l1.5-5.1
				c0.1-0.2-0.1-0.4-0.3-0.5l-1.8-0.5c-0.1,0-0.2,0-0.3,0c-0.1,0-0.2,0.1-0.2,0.2l-3.8,12.7c-0.1,0.2,0.1,0.4,0.3,0.5l1.8,0.5
				c0.1,0,0.2,0,0.3,0c0.1,0,0.2-0.1,0.2-0.2l1.5-5.1l8.3,2.5l-1.5,5.1c0,0.1,0,0.2,0,0.3c0,0.1,0.1,0.2,0.2,0.2l1.8,0.5
				c0.1,0,0.1,0,0.2,0c0.1,0,0.3-0.1,0.3-0.3l3.8-12.7c0-0.1,0-0.2,0-0.3c0-0.1-0.1-0.2-0.2-0.2L4261.8,1037.3z"/>
			<path id="XMLID_137_" class="st8" d="M4273.2,1058.5c0.1,0,0.2-0.1,0.2-0.2l7.1-11.2c0.1-0.1,0.1-0.2,0.1-0.3
				c0-0.1-0.1-0.2-0.2-0.2l-1.6-1c-0.2-0.1-0.4-0.1-0.5,0.1l-7.1,11.2c-0.1,0.2-0.1,0.4,0.1,0.5l1.6,1
				C4273,1058.5,4273.1,1058.5,4273.2,1058.5z"/>
			<path id="XMLID_136_" class="st8" d="M4283.6,1066.4l1.3,1.4c0.1,0.2,0.4,0.2,0.6,0l7-6.3l-1.3,13c0,0.1,0,0.2,0.1,0.3l1.3,1.4
				c0.1,0.1,0.2,0.1,0.4,0.1c0.1,0,0.1,0,0.2-0.1l9.9-8.8c0.1-0.1,0.1-0.2,0.1-0.3c0-0.1,0-0.2-0.1-0.3l-1.3-1.4
				c-0.1-0.2-0.4-0.2-0.6,0l-7,6.3l1.3-13c0-0.1,0-0.2-0.1-0.3l-1.3-1.4c-0.1-0.1-0.2-0.1-0.3-0.1c-0.1,0-0.2,0-0.3,0.1l-9.9,8.8
				C4283.5,1066,4283.4,1066.3,4283.6,1066.4z"/>
			<path id="XMLID_135_" class="st8" d="M4314.5,1087.7c-0.7-1.8-2-3.1-3.8-3.8c-1.8-0.7-3.6-0.8-5.4,0c-1.8,0.7-3.1,2-3.8,3.8
				c-0.7,1.8-0.7,3.6,0,5.4c0.7,1.8,2,3,3.8,3.8c1.3,0.6,2.7,0.7,4.1,0.4c0.4-0.1,0.9-0.2,1.3-0.4l0.9-0.4c0.2-0.1,0.3-0.3,0.2-0.5
				l-2.9-7c0-0.1-0.1-0.2-0.2-0.2c-0.1,0-0.2,0-0.3,0l-1.7,0.7c-0.2,0.1-0.3,0.3-0.2,0.5l1.9,4.7c-0.3,0-0.7,0-1,0
				c-0.5-0.1-1-0.2-1.4-0.5c-0.4-0.2-0.8-0.5-1.2-0.9c-0.3-0.4-0.6-0.8-0.8-1.3c-0.2-0.5-0.3-1.1-0.3-1.7c0-0.6,0.1-1.1,0.3-1.6
				c0.2-0.5,0.5-1,0.9-1.4c0.4-0.4,0.9-0.7,1.4-1c0.6-0.2,1.1-0.3,1.7-0.3c0.6,0,1.1,0.1,1.6,0.3c0.5,0.2,1,0.5,1.4,0.9
				c0.4,0.4,0.7,0.9,1,1.4c0.5,1.1,0.5,2.2,0,3.3c0,0.1,0,0.2,0,0.3c0,0.1,0.1,0.2,0.2,0.2l1.7,0.7c0.1,0,0.2,0,0.3,0
				c0.1,0,0.2-0.1,0.2-0.2C4315.3,1091.2,4315.3,1089.4,4314.5,1087.7z"/>
		</g>
		<g id="XMLID_111_">
			<path id="XMLID_132_" class="st8" d="M4162,1156.8c-1.7-0.5-3.3-0.3-4.8,0.5c-1.5,0.8-2.4,2.1-2.8,3.9c-0.4,1.7-0.1,3.4,0.8,4.9
				c0.3,0.5,0.6,1,1.1,1.4c0.4,0.4,0.9,0.8,1.3,1.1c0.5,0.3,1,0.5,1.5,0.7c0.5,0.2,1.1,0.3,1.6,0.3c0,0,0.1,0,0.1,0
				c0.1,0,0.1-0.1,0.2-0.1c0.1-0.1,0.1-0.2,0.1-0.3l0-1.7c0-0.2-0.2-0.4-0.4-0.4c-0.3,0-0.7-0.1-1-0.2c-0.3-0.1-0.6-0.2-0.9-0.4
				c-0.3-0.2-0.6-0.4-0.8-0.7c-0.3-0.3-0.5-0.6-0.7-0.9c-0.3-0.5-0.5-1-0.5-1.6c-0.1-0.5-0.1-1.1,0-1.6c0.1-0.5,0.3-1,0.6-1.4
				c0.3-0.4,0.6-0.7,1.1-1c0.4-0.3,0.9-0.4,1.4-0.4c0.5,0,1,0,1.5,0.2c0.5,0.2,0.9,0.4,1.4,0.8c0.4,0.3,0.8,0.8,1.1,1.3
				c0.2,0.3,0.3,0.7,0.4,1c0.1,0.4,0.2,0.7,0.2,1.1c0,0.4,0,0.7-0.1,1c-0.1,0.3-0.2,0.7-0.3,0.9c-0.1,0.2,0,0.4,0.1,0.5l1.4,0.9
				c0.1,0.1,0.2,0.1,0.3,0c0.1,0,0.2-0.1,0.2-0.2c0.2-0.5,0.4-1,0.6-1.5c0.1-0.5,0.2-1.1,0.2-1.6c0-0.6-0.1-1.1-0.2-1.7
				c-0.2-0.6-0.4-1.1-0.7-1.6C4165,1158.4,4163.7,1157.3,4162,1156.8z"/>
			<path id="XMLID_129_" class="st8" d="M4181.4,1181.4c-1.7,0.2-3,1-4.1,2.4c-1,1.4-1.4,2.9-1.2,4.6c0.2,1.7,1,3.1,2.4,4.1
				c1.3,1,2.9,1.4,4.6,1.2c0.2,0,0.3,0,0.5-0.1c1.5-0.3,2.7-1.1,3.6-2.3c1-1.4,1.4-2.9,1.2-4.6c-0.2-1.7-1-3.1-2.4-4.1
				C4184.6,1181.6,4183,1181.2,4181.4,1181.4z M4184.1,1190.7c-0.4,0.2-0.9,0.4-1.4,0.5c-0.5,0.1-1,0-1.4-0.1
				c-0.5-0.1-0.9-0.3-1.3-0.6c-0.4-0.3-0.7-0.7-1-1.1c-0.2-0.4-0.4-0.9-0.5-1.4c-0.1-0.5,0-1,0.1-1.4c0.1-0.5,0.3-0.9,0.6-1.3
				c0.3-0.4,0.7-0.7,1.1-1c0.4-0.2,0.7-0.3,1.1-0.4c0.1,0,0.2,0,0.2,0c0.5-0.1,1,0,1.4,0.1c0.5,0.1,0.9,0.3,1.3,0.6c0,0,0,0,0,0
				c0.4,0.3,0.7,0.7,1,1.1c0.2,0.4,0.4,0.9,0.5,1.4c0.1,0.5,0,1-0.1,1.4c-0.1,0.5-0.3,0.9-0.6,1.3
				C4184.9,1190.2,4184.5,1190.5,4184.1,1190.7z"/>
			<path id="XMLID_128_" class="st8" d="M4221,1197.3c-0.1,0-0.3,0-0.4,0.1l-6.7,6.7l-3.3-8.9c0-0.1-0.2-0.2-0.3-0.2l-1.9-0.4
				c-0.1,0-0.2,0-0.3,0.1c-0.1,0.1-0.1,0.1-0.2,0.2l-2.5,11.3c0,0.2,0.1,0.4,0.3,0.5l1.6,0.4c0.1,0,0.2,0,0.3-0.1
				c0.1-0.1,0.1-0.1,0.2-0.2l1.6-7.5l2.6,6.9c0,0.1,0.2,0.2,0.3,0.2l2.1,0.5c0.1,0,0.3,0,0.4-0.1l5.2-5.2l-1.6,7.5
				c0,0.1,0,0.2,0.1,0.3c0.1,0.1,0.1,0.1,0.2,0.2l1.6,0.4c0.1,0,0.1,0,0.2,0c0.1,0,0.3-0.1,0.3-0.3l2.5-11.3c0-0.1,0-0.2-0.1-0.3
				c-0.1-0.1-0.1-0.1-0.2-0.2L4221,1197.3z"/>
			<path id="XMLID_124_" class="st8" d="M4253.8,1196c-0.4-0.3-0.8-0.4-1.3-0.5c-0.5-0.1-1-0.1-1.5,0l-8.1,1.8
				c-0.1,0-0.2,0.1-0.2,0.2c-0.1,0.1-0.1,0.2-0.1,0.3l2.6,11.3c0,0.1,0.1,0.2,0.2,0.2c0.1,0.1,0.2,0.1,0.3,0.1c0,0,0,0,0,0l1.6-0.4
				c0.2,0,0.3-0.3,0.3-0.5l-1-4.5l6.1-1.4c0.5-0.1,0.9-0.3,1.3-0.6c0.4-0.3,0.7-0.6,1-1c0.3-0.4,0.4-0.8,0.5-1.3
				c0.1-0.5,0.1-1,0-1.5c-0.1-0.5-0.3-0.9-0.6-1.3C4254.6,1196.6,4254.2,1196.2,4253.8,1196z M4246,1201.7l-0.6-2.5l6.1-1.4
				c0.2,0,0.3,0,0.5,0c0.2,0,0.3,0.1,0.5,0.2c0.1,0.1,0.3,0.2,0.4,0.3c0.1,0.1,0.2,0.3,0.2,0.4c0,0.2,0,0.3,0,0.5
				c0,0.2-0.1,0.3-0.2,0.5c-0.1,0.1-0.2,0.2-0.3,0.4c-0.1,0.1-0.3,0.2-0.4,0.2L4246,1201.7z"/>
			<path id="XMLID_114_" class="st8" d="M4277.4,1183.1c-0.1-0.1-0.3-0.1-0.4,0l-1.5,1.1c-0.1,0.1-0.2,0.2-0.2,0.4l2.1,12.7
				c0,0.1,0.1,0.2,0.2,0.3c0.1,0,0.2,0,0.2,0c0.1,0,0.1,0,0.1-0.1l1.5-1.1c0.1-0.1,0.2-0.2,0.2-0.4l-0.4-2.5l5.4-3.9l2.2,1.2
				c0.1,0.1,0.3,0.1,0.4,0l1.5-1.1c0.1-0.1,0.2-0.2,0.2-0.3c0-0.1-0.1-0.3-0.2-0.3L4277.4,1183.1z M4282.3,1188.5l-3.4,2.5l-0.8-4.7
				L4282.3,1188.5z"/>
			<path id="XMLID_113_" class="st8" d="M4301,1155.2c-0.1-0.1-0.2-0.1-0.3,0c-0.1,0-0.2,0.1-0.2,0.2l-0.8,1.4
				c-0.1,0.2,0,0.4,0.1,0.5l7,4.1l-11.1,2.3c-0.1,0-0.2,0.1-0.3,0.2l-0.8,1.4c-0.1,0.2,0,0.4,0.1,0.5l10,5.9c0.1,0,0.2,0.1,0.3,0
				c0,0,0,0,0,0c0.1,0,0.2-0.1,0.2-0.2l0.8-1.4c0.1-0.2,0-0.4-0.1-0.5l-7-4.1l11.1-2.3c0.1,0,0.2-0.1,0.3-0.2l0.8-1.4
				c0.1-0.2,0-0.4-0.1-0.5L4301,1155.2z"/>
			<path id="XMLID_112_" class="st8" d="M4319.5,1131.3l-4.3-0.5l-6.3-5.7c-0.1-0.1-0.3-0.1-0.4-0.1c-0.1,0.1-0.2,0.2-0.2,0.3
				l-0.3,2c0,0.1,0,0.3,0.1,0.3l4.5,4l-5.3,2.8c-0.1,0.1-0.2,0.2-0.2,0.3l-0.3,2c0,0.1,0,0.3,0.2,0.4c0.1,0.1,0.2,0.1,0.3,0.1
				c0,0,0.1,0,0.1,0l7.5-4l4.3,0.5c0.2,0,0.4-0.1,0.4-0.3l0.2-1.6c0-0.1,0-0.2-0.1-0.3C4319.7,1131.4,4319.6,1131.3,4319.5,1131.3z"
				/>
		</g>
	</g>
	<g id="XMLID_1_">
		<g>
			<defs>
				<rect id="SVGID_5_" x="4190.1" y="1079.2" width="84.7" height="84.7"/>
			</defs>
			<clipPath id="SVGID_6_">
				<use xlink:href="#SVGID_5_"  style="overflow:visible;"/>
			</clipPath>
			<g class="st9">
				<defs>
					<rect id="SVGID_7_" x="4190.1" y="1079.2" width="84.7" height="84.7"/>
				</defs>
				<clipPath id="SVGID_8_">
					<use xlink:href="#SVGID_7_"  style="overflow:visible;"/>
				</clipPath>
				<path class="st10" d="M4272.2,1106.4c1.4,0,2.6-1.2,2.6-2.6c0-1.4-1.2-2.6-2.6-2.6h-8.4v-8.4c0-1.4-1.2-2.6-2.6-2.6h-8.4v-8.4
					c0-1.4-1.2-2.6-2.6-2.6c-1.4,0-2.6,1.2-2.6,2.6v8.4h-12.6v-8.4c0-1.4-1.2-2.6-2.6-2.6s-2.6,1.2-2.6,2.6v8.4h-12.6v-8.4
					c0-1.4-1.2-2.6-2.6-2.6s-2.6,1.2-2.6,2.6v8.4h-8.4c-1.4,0-2.6,1.2-2.6,2.6v8.4h-8.4c-1.4,0-2.6,1.2-2.6,2.6
					c0,1.4,1.2,2.6,2.6,2.6h8.4v12.6h-8.4c-1.4,0-2.6,1.2-2.6,2.6c0,1.4,1.2,2.6,2.6,2.6h8.4v12.6h-8.4c-1.4,0-2.6,1.2-2.6,2.6
					c0,1.4,1.2,2.6,2.6,2.6h8.4v8.4c0,1.4,1.2,2.6,2.6,2.6h8.4v8.4c0,1.4,1.2,2.6,2.6,2.6s2.6-1.2,2.6-2.6v-8.4h12.6v8.4
					c0,1.4,1.2,2.6,2.6,2.6s2.6-1.2,2.6-2.6v-8.4h12.6v8.4c0,1.4,1.2,2.6,2.6,2.6c1.4,0,2.6-1.2,2.6-2.6v-8.4h8.4
					c1.4,0,2.6-1.2,2.6-2.6v-8.4h8.4c1.4,0,2.6-1.2,2.6-2.6c0-1.4-1.2-2.6-2.6-2.6h-8.4v-12.6h8.4c1.4,0,2.6-1.2,2.6-2.6
					c0-1.4-1.2-2.6-2.6-2.6h-8.4v-12.6H4272.2z M4222.8,1104.4c-4.1,0-7.5,3.4-7.5,7.5c0,4.1,3.4,7.5,7.5,7.5c1.1,0,2.2-0.3,3.1-0.7
					c3.8,2.6,10.9,5.4,24.2,5.4h8.4v23.5h-52.3v-52.3h52.3v23.5h-8.4c-11.5,0-17.5-2.2-20.5-4c0.4-0.9,0.6-1.9,0.6-3
					C4230.4,1107.8,4227,1104.4,4222.8,1104.4"/>
			</g>
		</g>
	</g>
</g>
</svg>
