<?xml version="1.0" encoding="utf-8"?>
<!-- Generator: Adobe Illustrator 19.0.0, SVG Export Plug-In . SVG Version: 6.00 Build 0)  -->
<svg version="1.1" id="Layer_1" xmlns="http://www.w3.org/2000/svg" xmlns:xlink="http://www.w3.org/1999/xlink" x="0px" y="0px"
	 viewBox="1422 -468 3456 1728" style="enable-background:new 1422 -468 3456 1728;" xml:space="preserve">
<style type="text/css">
	.st0{fill:none;stroke:#FF00FF;stroke-width:2;stroke-miterlimit:10;}
	.st1{clip-path:url(#SVGID_2_);}
	.st2{clip-path:url(#SVGID_4_);fill:#29292A;}
	.st3{fill-rule:evenodd;clip-rule:evenodd;fill:#8BC53F;stroke:#8BC53F;stroke-width:3;stroke-miterlimit:10;}
	.st4{fill:none;stroke:#231F20;stroke-width:6;stroke-miterlimit:10;}
	.st5{fill:#000002;}
	.st6{clip-path:url(#SVGID_6_);}
	.st7{clip-path:url(#SVGID_8_);fill:#242629;}
	.st8{fill:none;stroke:#00FF00;stroke-width:2;stroke-miterlimit:10;}
</style>
<g transform="translate(292.5, 382.5) ">
	<polygon class="st0" points="3267.6,-736.4 3267.6,-711.5 3283.7,-711.5 3283.7,-670.4 3267.6,-670.4 3267.6,-629.4 3283.7,-629.4 
		3283.7,-588.3 3267.6,-588.3 3267.6,-563.4 3232.4,-563.4 3232.4,-547.3 3181.1,-547.3 3181.1,-563.4 3140.1,-563.4 3140.1,-547.3 
		3099,-547.3 3099,-563.4 3058,-563.4 3058,-547.3 3016.9,-547.3 3016.9,-563.4 2975.9,-563.4 2975.9,-547.3 2934.9,-547.3 
		2934.9,-563.4 2893.8,-563.4 2893.8,-547.3 2852.8,-547.3 2852.8,-563.4 2811.7,-563.4 2811.7,-547.3 2770.7,-547.3 2770.7,-563.4 
		2729.7,-563.4 2729.7,-547.3 2688.6,-547.3 2688.6,-563.4 2647.6,-563.4 2647.6,-547.3 2606.5,-547.3 2606.5,-563.4 2565.5,-563.4 
		2565.5,-547.3 2524.5,-547.3 2524.5,-563.4 2483.4,-563.4 2483.4,-547.3 2442.4,-547.3 2442.4,-563.4 2401.3,-563.4 2401.3,-547.3 
		2360.3,-547.3 2360.3,-563.4 2319.3,-563.4 2319.3,-547.3 2278.2,-547.3 2278.2,-563.4 2237.2,-563.4 2237.2,-547.3 2196.1,-547.3 
		2196.1,-563.4 2155.1,-563.4 2155.1,-547.3 2114.1,-547.3 2114.1,-563.4 2073,-563.4 2073,-547.3 2032,-547.3 2032,-563.4 
		1990.9,-563.4 1990.9,-547.3 1949.9,-547.3 1949.9,-563.4 1908.9,-563.4 1908.9,-547.3 1867.8,-547.3 1867.8,-563.4 1826.8,-563.4 
		1826.8,-547.3 1785.7,-547.3 1785.7,-563.4 1744.7,-563.4 1744.7,-547.3 1703.7,-547.3 1703.7,-563.4 1662.6,-563.4 1662.6,-547.3 
		1621.6,-547.3 1621.6,-563.4 1580.5,-563.4 1580.5,-547.2 1539.5,-547.2 1539.5,-563.4 1498.5,-563.4 1498.5,-547.2 1457.4,-547.2 
		1457.4,-563.4 1416.4,-563.4 1416.4,-547.2 1375.3,-547.2 1375.3,-563.4 1334.3,-563.4 1334.3,-547.2 1283,-547.2 1283,-563.4 
		1247.8,-563.4 1247.8,-588.3 1231.7,-588.3 1231.7,-629.3 1247.8,-629.3 1247.8,-670.4 1231.7,-670.4 1231.7,-711.4 1247.8,-711.4 
		1247.8,-736.3 1283,-736.3 1283,-752.4 1334.3,-752.4 1334.3,-736.3 1375.3,-736.3 1375.3,-752.4 1416.4,-752.4 1416.4,-736.3 
		1457.4,-736.3 1457.4,-752.4 1498.5,-752.4 1498.5,-736.3 1539.5,-736.3 1539.5,-752.4 1580.5,-752.5 1580.5,-736.3 1621.6,-736.3 
		1621.6,-752.5 1662.6,-752.5 1662.6,-736.3 1703.7,-736.3 1703.7,-752.5 1744.7,-752.5 1744.7,-736.3 1785.7,-736.3 1785.7,-752.5 
		1826.8,-752.5 1826.8,-736.3 1867.8,-736.3 1867.8,-752.5 1908.9,-752.5 1908.9,-736.3 1949.9,-736.3 1949.9,-752.5 1990.9,-752.5 
		1990.9,-736.3 2032,-736.3 2032,-752.5 2073,-752.5 2073,-736.3 2114.1,-736.3 2114.1,-752.5 2155.1,-752.5 2155.1,-736.3 
		2196.1,-736.3 2196.1,-752.5 2237.2,-752.5 2237.2,-736.3 2278.2,-736.3 2278.2,-752.5 2319.3,-752.5 2319.3,-736.3 2360.3,-736.3 
		2360.3,-752.5 2401.3,-752.5 2401.3,-736.3 2442.4,-736.3 2442.4,-752.5 2483.4,-752.5 2483.4,-736.3 2524.5,-736.3 2524.5,-752.5 
		2565.5,-752.5 2565.5,-736.3 2606.5,-736.3 2606.5,-752.5 2647.6,-752.5 2647.6,-736.3 2688.6,-736.3 2688.6,-752.5 2729.7,-752.5 
		2729.7,-736.3 2770.7,-736.3 2770.7,-752.5 2811.7,-752.5 2811.7,-736.3 2852.8,-736.3 2852.8,-752.5 2893.8,-752.5 2893.8,-736.4 
		2934.9,-736.4 2934.9,-752.5 2975.9,-752.5 2975.9,-736.4 3016.9,-736.4 3016.9,-752.5 3058,-752.5 3058,-736.4 3099,-736.4 
		3099,-752.5 3140.1,-752.5 3140.1,-736.4 3181.1,-736.4 3181.1,-752.5 3232.4,-752.5 3232.4,-736.4 	"/>
</g>
<g transform="translate(22.5, 382.5) ">
	<polygon class="st0" points="3537.6,-485.4 3537.6,-460.5 3553.8,-460.5 3553.7,-419.4 3537.6,-419.5 3537.5,-378.4 3553.7,-378.4 
		3553.6,-337.4 3537.5,-337.4 3537.5,-312.5 3502.3,-312.5 3502.3,-296.4 3451,-296.4 3451,-312.6 3410,-312.6 3410,-296.4 
		3368.9,-296.5 3368.9,-312.6 3327.9,-312.7 3327.9,-296.5 3286.9,-296.6 3286.9,-312.7 3245.8,-312.7 3245.8,-296.6 3204.8,-296.6 
		3204.8,-312.8 3163.7,-312.8 3163.7,-296.7 3122.7,-296.7 3122.7,-312.8 3081.7,-312.9 3081.7,-296.7 3040.6,-296.8 3040.6,-312.9 
		2999.6,-312.9 2999.6,-296.8 2958.5,-296.8 2958.5,-313 2917.5,-313 2917.5,-296.9 2876.5,-296.9 2876.5,-313.1 2835.4,-313.1 
		2835.4,-296.9 2794.4,-297 2794.4,-313.1 2753.3,-313.2 2753.3,-297 2712.3,-297.1 2712.3,-313.2 2671.3,-313.2 2671.3,-297.1 
		2630.2,-297.1 2630.2,-313.3 2589.2,-313.3 2589.2,-297.2 2548.1,-297.2 2548.1,-313.3 2507.1,-313.4 2507.1,-297.2 2466.1,-297.3 
		2466.1,-313.4 2425,-313.4 2425,-297.3 2384,-297.3 2384,-313.5 2342.9,-313.5 2342.9,-297.4 2301.9,-297.4 2301.9,-313.5 
		2260.9,-313.6 2260.9,-297.4 2219.8,-297.5 2219.8,-313.6 2178.8,-313.7 2178.8,-297.5 2137.7,-297.5 2137.7,-313.7 2096.7,-313.7 
		2096.7,-297.6 2055.7,-297.6 2055.7,-313.8 2014.6,-313.8 2014.6,-297.7 1973.6,-297.7 1973.6,-313.8 1932.5,-313.9 1932.5,-297.7 
		1891.5,-297.8 1891.5,-313.9 1850.5,-313.9 1850.5,-297.8 1809.4,-297.8 1809.4,-314 1768.4,-314 1768.4,-297.9 1727.3,-297.9 
		1727.3,-314 1686.3,-314.1 1686.3,-297.9 1645.3,-298 1645.3,-314.1 1604.2,-314.2 1604.2,-298 1552.9,-298.1 1552.9,-314.2 
		1517.8,-314.2 1517.8,-339.1 1501.7,-339.1 1501.7,-380.2 1517.8,-380.2 1517.9,-421.2 1501.7,-421.2 1501.8,-462.3 1517.9,-462.2 
		1517.9,-487.1 1553.1,-487.1 1553.1,-503.3 1604.4,-503.2 1604.4,-487.1 1645.4,-487 1645.4,-503.2 1686.5,-503.1 1686.5,-487 
		1727.5,-487 1727.5,-503.1 1768.6,-503.1 1768.5,-486.9 1809.6,-486.9 1809.6,-503 1850.6,-503 1850.6,-486.9 1891.7,-486.8 
		1891.7,-503 1932.7,-502.9 1932.7,-486.8 1973.7,-486.7 1973.8,-502.9 2014.8,-502.9 2014.8,-486.7 2055.8,-486.7 2055.8,-502.8 
		2096.9,-502.8 2096.9,-486.6 2137.9,-486.6 2137.9,-502.8 2179,-502.7 2178.9,-486.6 2220,-486.5 2220,-502.7 2261,-502.6 
		2261,-486.5 2302.1,-486.5 2302.1,-502.6 2343.1,-502.6 2343.1,-486.4 2384.1,-486.4 2384.2,-502.5 2425.2,-502.5 2425.2,-486.4 
		2466.2,-486.3 2466.2,-502.5 2507.3,-502.4 2507.3,-486.3 2548.3,-486.3 2548.3,-502.4 2589.4,-502.4 2589.3,-486.2 2630.4,-486.2 
		2630.4,-502.3 2671.4,-502.3 2671.4,-486.1 2712.5,-486.1 2712.5,-502.3 2753.5,-502.2 2753.5,-486.1 2794.5,-486 2794.6,-502.2 
		2835.6,-502.1 2835.6,-486 2876.6,-486 2876.6,-502.1 2917.7,-502.1 2917.7,-485.9 2958.7,-485.9 2958.7,-502 2999.8,-502 
		2999.7,-485.9 3040.8,-485.8 3040.8,-502 3081.8,-501.9 3081.8,-485.8 3122.9,-485.8 3122.9,-501.9 3163.9,-501.9 3163.9,-485.7 
		3204.9,-485.7 3205,-501.8 3246,-501.8 3246,-485.6 3287,-485.6 3287,-501.8 3328.1,-501.7 3328.1,-485.6 3369.1,-485.5 
		3369.1,-501.7 3410.1,-501.6 3410.1,-485.5 3451.2,-485.5 3451.2,-501.6 3502.5,-501.6 3502.5,-485.4 	"/>
</g>
<g transform="translate(562.5, 382.5) ">
	<polygon class="st0" points="977.8,-262.3 1013,-262.3 1013,-246.1 1064.3,-246.1 1064.3,-262.3 1105.3,-262.3 1105.3,-246.1 
		1146.4,-246.1 1146.4,-262.3 1187.4,-262.3 1187.4,-246.1 1228.5,-246.1 1228.5,-262.3 1269.5,-262.3 1269.5,-246.1 1310.5,-246.1 
		1310.5,-262.3 1351.6,-262.3 1351.6,-246.1 1392.6,-246.1 1392.6,-262.3 1433.7,-262.3 1433.7,-246.1 1474.7,-246.1 1474.7,-262.3 
		1515.7,-262.3 1515.7,-246.1 1556.8,-246.1 1556.8,-262.3 1597.8,-262.3 1597.8,-246.1 1638.9,-246.1 1638.9,-262.3 1679.9,-262.3 
		1679.9,-246.1 1720.9,-246.1 1720.9,-262.3 1762,-262.3 1762,-246.1 1803,-246.1 1803,-262.3 1844.1,-262.3 1844.1,-246.1 
		1885.1,-246.1 1885.1,-262.3 1926.1,-262.3 1926.1,-246.1 1967.2,-246.1 1967.2,-262.3 2008.2,-262.3 2008.2,-246.1 2049.3,-246.1 
		2049.3,-262.3 2090.3,-262.3 2090.3,-246.1 2131.3,-246.1 2131.3,-262.3 2172.4,-262.3 2172.4,-246.1 2213.4,-246.1 2213.4,-262.3 
		2254.5,-262.3 2254.5,-246.1 2295.5,-246.1 2295.5,-262.3 2336.5,-262.3 2336.5,-246.1 2377.6,-246.1 2377.6,-262.3 2418.6,-262.3 
		2418.6,-246.1 2459.7,-246.1 2459.7,-262.3 2500.7,-262.3 2500.7,-246.1 2541.7,-246.1 2541.7,-262.3 2582.8,-262.3 2582.8,-246.1 
		2623.8,-246.1 2623.8,-262.3 2664.9,-262.3 2664.9,-246.1 2705.9,-246.1 2705.9,-262.3 2746.9,-262.3 2746.9,-246.1 2788,-246.1 
		2788,-262.3 2829,-262.3 2829,-246.1 2870.1,-246.1 2870.1,-262.3 2911.1,-262.3 2911.1,-246.1 2962.4,-246.1 2962.4,-262.3 
		2997.6,-262.3 2997.6,-204.1 3013.7,-204.1 3013.7,-146 2997.6,-146 2997.6,-105 3013.7,-105 3013.7,-46.8 2997.6,-46.8 
		2997.6,11.3 2962.4,11.3 2962.4,-4.8 2911.1,-4.8 2911.1,11.3 2870.1,11.3 2870.1,-4.8 2829,-4.8 2829,11.3 2788,11.3 2788,-4.8 
		2746.9,-4.8 2746.9,11.3 2705.9,11.3 2705.9,-4.8 2664.9,-4.8 2664.9,11.3 2623.8,11.3 2623.8,-4.8 2582.8,-4.8 2582.8,11.3 
		2541.7,11.3 2541.7,-4.8 2500.7,-4.8 2500.7,11.3 2459.7,11.3 2459.7,-4.8 2418.6,-4.8 2418.6,11.3 2377.6,11.3 2377.6,-4.8 
		2336.5,-4.8 2336.5,11.3 2295.5,11.3 2295.5,-4.8 2254.5,-4.8 2254.5,11.3 2213.4,11.3 2213.4,-4.8 2172.4,-4.8 2172.4,11.3 
		2131.3,11.3 2131.3,-4.8 2090.3,-4.8 2090.3,11.3 2049.3,11.3 2049.3,-4.8 2008.2,-4.8 2008.2,11.3 1967.2,11.3 1967.2,-4.8 
		1926.1,-4.8 1926.1,11.3 1885.1,11.3 1885.1,-4.8 1844.1,-4.8 1844.1,11.3 1803,11.3 1803,-4.8 1762,-4.8 1762,11.3 1720.9,11.3 
		1720.9,-4.8 1679.9,-4.8 1679.9,11.3 1638.9,11.3 1638.9,-4.8 1597.8,-4.8 1597.8,11.3 1556.8,11.3 1556.8,-4.8 1515.7,-4.8 
		1515.7,11.3 1474.7,11.3 1474.7,-4.8 1433.7,-4.8 1433.7,11.3 1392.6,11.3 1392.6,-4.8 1351.6,-4.8 1351.6,11.3 1310.5,11.3 
		1310.5,-4.8 1269.5,-4.8 1269.5,11.3 1228.5,11.3 1228.5,-4.8 1187.4,-4.8 1187.4,11.3 1146.4,11.3 1146.4,-4.8 1105.3,-4.8 
		1105.3,11.3 1064.3,11.3 1064.3,-4.8 1013,-4.8 1013,11.3 977.8,11.3 977.8,-46.8 961.7,-46.8 961.7,-105 977.8,-105 977.8,-146 
		961.7,-146 961.7,-204.1 977.8,-204.1 	"/>
</g>
<g transform="translate(562.5, 22.5) ">
	<polygon class="st0" points="977.8,410.3 1013,410.3 1013,426.4 1064.3,426.4 1064.3,410.3 1105.3,410.3 1105.3,426.4 
		1146.4,426.4 1146.4,410.3 1187.4,410.3 1187.4,426.4 1228.5,426.4 1228.5,410.3 1269.5,410.3 1269.5,426.4 1310.5,426.4 
		1310.5,410.3 1351.6,410.3 1351.6,426.4 1392.6,426.4 1392.6,410.3 1433.7,410.3 1433.7,426.4 1474.7,426.4 1474.7,410.3 
		1515.7,410.3 1515.7,426.4 1556.8,426.4 1556.8,410.3 1597.8,410.3 1597.8,426.4 1638.9,426.4 1638.9,410.3 1679.9,410.3 
		1679.9,426.4 1720.9,426.4 1720.9,410.3 1762,410.3 1762,426.4 1803,426.4 1803,410.3 1844.1,410.3 1844.1,426.4 1885.1,426.4 
		1885.1,410.3 1926.1,410.3 1926.1,426.4 1967.2,426.4 1967.2,410.3 2008.2,410.3 2008.2,426.4 2049.3,426.4 2049.3,410.3 
		2090.3,410.3 2090.3,426.4 2131.3,426.4 2131.3,410.3 2172.4,410.3 2172.4,426.4 2213.4,426.4 2213.4,410.3 2254.5,410.3 
		2254.5,426.4 2295.5,426.4 2295.5,410.3 2336.5,410.3 2336.5,426.4 2377.6,426.4 2377.6,410.3 2418.6,410.3 2418.6,426.4 
		2459.7,426.4 2459.7,410.3 2500.7,410.3 2500.7,426.4 2541.7,426.4 2541.7,410.3 2582.8,410.3 2582.8,426.4 2623.8,426.4 
		2623.8,410.3 2664.9,410.3 2664.9,426.4 2705.9,426.4 2705.9,410.3 2746.9,410.3 2746.9,426.4 2788,426.4 2788,410.3 2829,410.3 
		2829,426.4 2870.1,426.4 2870.1,410.3 2911.1,410.3 2911.1,426.4 2962.4,426.4 2962.4,410.3 2997.6,410.3 2997.6,468.4 
		3013.7,468.4 3013.7,526.6 2997.6,526.6 2997.6,567.6 3013.7,567.6 3013.7,625.7 2997.6,625.7 2997.6,683.9 2962.4,683.9 
		2962.4,667.7 2911.1,667.7 2911.1,683.9 2870.1,683.9 2870.1,667.7 2829,667.7 2829,683.9 2788,683.9 2788,667.7 2746.9,667.7 
		2746.9,683.9 2705.9,683.9 2705.9,667.7 2664.9,667.7 2664.9,683.9 2623.8,683.9 2623.8,667.7 2582.8,667.7 2582.8,683.9 
		2541.7,683.9 2541.7,667.7 2500.7,667.7 2500.7,683.9 2459.7,683.9 2459.7,667.7 2418.6,667.7 2418.6,683.9 2377.6,683.9 
		2377.6,667.7 2336.5,667.7 2336.5,683.9 2295.5,683.9 2295.5,667.7 2254.5,667.7 2254.5,683.9 2213.4,683.9 2213.4,667.7 
		2172.4,667.7 2172.4,683.9 2131.3,683.9 2131.3,667.7 2090.3,667.7 2090.3,683.9 2049.3,683.9 2049.3,667.7 2008.2,667.7 
		2008.2,683.9 1967.2,683.9 1967.2,667.7 1926.1,667.7 1926.1,683.9 1885.1,683.9 1885.1,667.7 1844.1,667.7 1844.1,683.9 
		1803,683.9 1803,667.7 1762,667.7 1762,683.9 1720.9,683.9 1720.9,667.7 1679.9,667.7 1679.9,683.9 1638.9,683.9 1638.9,667.7 
		1597.8,667.7 1597.8,683.9 1556.8,683.9 1556.8,667.7 1515.7,667.7 1515.7,683.9 1474.7,683.9 1474.7,667.7 1433.7,667.7 
		1433.7,683.9 1392.6,683.9 1392.6,667.7 1351.6,667.7 1351.6,683.9 1310.5,683.9 1310.5,667.7 1269.5,667.7 1269.5,683.9 
		1228.5,683.9 1228.5,667.7 1187.4,667.7 1187.4,683.9 1146.4,683.9 1146.4,667.7 1105.3,667.7 1105.3,683.9 1064.3,683.9 
		1064.3,667.7 1013,667.7 1013,683.9 977.8,683.9 977.8,625.7 961.7,625.7 961.7,567.6 977.8,567.6 977.8,526.6 961.7,526.6 
		961.7,468.4 977.8,468.4 	"/>
</g>
<g transform="translate(22.5, 22.5) ">
	<polygon class="st0" points="1515.9,714.4 1556.9,714.4 1556.9,730.5 1598,730.5 1598,714.4 1639,714.4 1639,730.5 1680.1,730.5 
		1680.1,714.4 1721.1,714.4 1721.1,772.5 1705,772.5 1705,830.6 1721.1,830.6 1721.1,871.7 1705,871.7 1705,929.8 1721.1,929.8 
		1721.1,988 1680.1,988 1680.1,971.8 1639,971.8 1639,988 1598,988 1598,971.8 1556.9,971.8 1556.9,988 1515.9,988 1515.9,929.8 
		1532,929.8 1532,871.7 1515.9,871.7 1515.9,830.6 1532,830.6 1532,772.5 1515.9,772.5 	"/>
</g>
<g transform="translate(292.5, 22.5) ">
	<polygon class="st0" points="1451.1,714.4 1492.1,714.4 1492.1,730.5 1533.2,730.5 1533.2,714.4 1574.2,714.4 1574.2,730.5 
		1615.3,730.5 1615.3,714.4 1656.3,714.4 1656.3,772.5 1640.2,772.5 1640.2,830.6 1656.3,830.6 1656.3,871.7 1640.2,871.7 
		1640.2,929.8 1656.3,929.8 1656.3,988 1615.3,988 1615.3,971.8 1574.2,971.8 1574.2,988 1533.2,988 1533.2,971.8 1492.1,971.8 
		1492.1,988 1451.1,988 1451.1,929.8 1467.2,929.8 1467.2,871.7 1451.1,871.7 1451.1,830.6 1467.2,830.6 1467.2,772.5 1451.1,772.5 
			"/>
</g>
<g>
	<g>
		<line class="st8" x1="1565" y1="-318.2" x2="1599.5" y2="-318.2"/>
		<line class="st8" x1="1565" y1="-318.2" x2="1565" y2="-283.7"/>
		<line class="st8" x1="1565" y1="-283.7" x2="1599.5" y2="-283.7"/>
		<line class="st8" x1="1599.5" y1="-318.2" x2="1599.5" y2="-283.7"/>
	</g>
	<g>
		<line class="st8" x1="1667.3" y1="-318.2" x2="1701.9" y2="-318.2"/>
		<line class="st8" x1="1667.3" y1="-318.2" x2="1667.3" y2="-283.7"/>
		<line class="st8" x1="1667.3" y1="-283.7" x2="1701.9" y2="-283.7"/>
		<line class="st8" x1="1701.9" y1="-318.2" x2="1701.9" y2="-283.7"/>
	</g>
	<g>
		<line class="st8" x1="1765.5" y1="-318.2" x2="1800.1" y2="-318.2"/>
		<line class="st8" x1="1765.5" y1="-318.2" x2="1765.5" y2="-283.7"/>
		<line class="st8" x1="1765.5" y1="-283.7" x2="1800.1" y2="-283.7"/>
		<line class="st8" x1="1800.1" y1="-318.2" x2="1800.1" y2="-283.7"/>
	</g>
	<g>
		<line class="st8" x1="1869.1" y1="-318.2" x2="1903.7" y2="-318.2"/>
		<line class="st8" x1="1869.1" y1="-318.2" x2="1869.1" y2="-283.7"/>
		<line class="st8" x1="1869.1" y1="-283.7" x2="1903.7" y2="-283.7"/>
		<line class="st8" x1="1903.7" y1="-318.2" x2="1903.7" y2="-283.7"/>
	</g>
	<g>
		<line class="st8" x1="1972.8" y1="-318.2" x2="2007.3" y2="-318.2"/>
		<line class="st8" x1="1972.8" y1="-318.2" x2="1972.8" y2="-283.7"/>
		<line class="st8" x1="1972.8" y1="-283.7" x2="2007.3" y2="-283.7"/>
		<line class="st8" x1="2007.3" y1="-318.2" x2="2007.3" y2="-283.7"/>
	</g>
	<g>
		<line class="st8" x1="2075" y1="-318.2" x2="2109.5" y2="-318.2"/>
		<line class="st8" x1="2075" y1="-318.2" x2="2075" y2="-283.7"/>
		<line class="st8" x1="2075" y1="-283.7" x2="2109.5" y2="-283.7"/>
		<line class="st8" x1="2109.5" y1="-318.2" x2="2109.5" y2="-283.7"/>
	</g>
	<g>
		<line class="st8" x1="2177.3" y1="-318.2" x2="2211.9" y2="-318.2"/>
		<line class="st8" x1="2177.3" y1="-318.2" x2="2177.3" y2="-283.7"/>
		<line class="st8" x1="2177.3" y1="-283.7" x2="2211.9" y2="-283.7"/>
		<line class="st8" x1="2211.9" y1="-318.2" x2="2211.9" y2="-283.7"/>
	</g>
	<g>
		<line class="st8" x1="2275.5" y1="-318.2" x2="2310" y2="-318.2"/>
		<line class="st8" x1="2275.5" y1="-318.2" x2="2275.5" y2="-283.7"/>
		<line class="st8" x1="2275.5" y1="-283.7" x2="2310" y2="-283.7"/>
		<line class="st8" x1="2310" y1="-318.2" x2="2310" y2="-283.7"/>
	</g>
	<g>
		<line class="st8" x1="2379.1" y1="-318.2" x2="2413.7" y2="-318.2"/>
		<line class="st8" x1="2379.1" y1="-318.2" x2="2379.1" y2="-283.7"/>
		<line class="st8" x1="2379.1" y1="-283.7" x2="2413.7" y2="-283.7"/>
		<line class="st8" x1="2413.7" y1="-318.2" x2="2413.7" y2="-283.7"/>
	</g>
	<g>
		<line class="st8" x1="2482.7" y1="-318.2" x2="2517.3" y2="-318.2"/>
		<line class="st8" x1="2482.7" y1="-318.2" x2="2482.7" y2="-283.7"/>
		<line class="st8" x1="2482.7" y1="-283.7" x2="2517.3" y2="-283.7"/>
		<line class="st8" x1="2517.3" y1="-318.2" x2="2517.3" y2="-283.7"/>
	</g>
	<g>
		<line class="st8" x1="2584.7" y1="-318.2" x2="2619.2" y2="-318.2"/>
		<line class="st8" x1="2584.7" y1="-318.2" x2="2584.7" y2="-283.7"/>
		<line class="st8" x1="2584.7" y1="-283.7" x2="2619.2" y2="-283.7"/>
		<line class="st8" x1="2619.2" y1="-318.2" x2="2619.2" y2="-283.7"/>
	</g>
	<g>
		<line class="st8" x1="2687" y1="-318.2" x2="2721.6" y2="-318.2"/>
		<line class="st8" x1="2687" y1="-318.2" x2="2687" y2="-283.7"/>
		<line class="st8" x1="2687" y1="-283.7" x2="2721.6" y2="-283.7"/>
		<line class="st8" x1="2721.6" y1="-318.2" x2="2721.6" y2="-283.7"/>
	</g>
	<g>
		<line class="st8" x1="2785.2" y1="-318.2" x2="2819.8" y2="-318.2"/>
		<line class="st8" x1="2785.2" y1="-318.2" x2="2785.2" y2="-283.7"/>
		<line class="st8" x1="2785.2" y1="-283.7" x2="2819.8" y2="-283.7"/>
		<line class="st8" x1="2819.8" y1="-318.2" x2="2819.8" y2="-283.7"/>
	</g>
	<g>
		<line class="st8" x1="2888.9" y1="-318.2" x2="2923.4" y2="-318.2"/>
		<line class="st8" x1="2888.9" y1="-318.2" x2="2888.9" y2="-283.7"/>
		<line class="st8" x1="2888.9" y1="-283.7" x2="2923.4" y2="-283.7"/>
		<line class="st8" x1="2923.4" y1="-318.2" x2="2923.4" y2="-283.7"/>
	</g>
	<g>
		<line class="st8" x1="2992.5" y1="-318.2" x2="3027" y2="-318.2"/>
		<line class="st8" x1="2992.5" y1="-318.2" x2="2992.5" y2="-283.7"/>
		<line class="st8" x1="2992.5" y1="-283.7" x2="3027" y2="-283.7"/>
		<line class="st8" x1="3027" y1="-318.2" x2="3027" y2="-283.7"/>
	</g>
	<g>
		<line class="st8" x1="3094.7" y1="-318.2" x2="3129.2" y2="-318.2"/>
		<line class="st8" x1="3094.7" y1="-318.2" x2="3094.7" y2="-283.7"/>
		<line class="st8" x1="3094.7" y1="-283.7" x2="3129.2" y2="-283.7"/>
		<line class="st8" x1="3129.2" y1="-318.2" x2="3129.2" y2="-283.7"/>
	</g>
	<g>
		<line class="st8" x1="3197" y1="-318.2" x2="3231.6" y2="-318.2"/>
		<line class="st8" x1="3197" y1="-318.2" x2="3197" y2="-283.7"/>
		<line class="st8" x1="3197" y1="-283.7" x2="3231.6" y2="-283.7"/>
		<line class="st8" x1="3231.6" y1="-318.2" x2="3231.6" y2="-283.7"/>
	</g>
	<g>
		<line class="st8" x1="3295.2" y1="-318.2" x2="3329.7" y2="-318.2"/>
		<line class="st8" x1="3295.2" y1="-318.2" x2="3295.2" y2="-283.7"/>
		<line class="st8" x1="3295.2" y1="-283.7" x2="3329.7" y2="-283.7"/>
		<line class="st8" x1="3329.7" y1="-318.2" x2="3329.7" y2="-283.7"/>
	</g>
	<g>
		<line class="st8" x1="3398.8" y1="-318.2" x2="3433.4" y2="-318.2"/>
		<line class="st8" x1="3398.8" y1="-318.2" x2="3398.8" y2="-283.7"/>
		<line class="st8" x1="3398.8" y1="-283.7" x2="3433.4" y2="-283.7"/>
		<line class="st8" x1="3433.4" y1="-318.2" x2="3433.4" y2="-283.7"/>
	</g>
	<g>
		<line class="st8" x1="3502.5" y1="-318.2" x2="3537" y2="-318.2"/>
		<line class="st8" x1="3502.5" y1="-318.2" x2="3502.5" y2="-283.7"/>
		<line class="st8" x1="3502.5" y1="-283.7" x2="3537" y2="-283.7"/>
		<line class="st8" x1="3537" y1="-318.2" x2="3537" y2="-283.7"/>
	</g>
	<g>
		<line class="st8" x1="1565.8" y1="-251.1" x2="1600.4" y2="-251.1"/>
		<line class="st8" x1="1565.8" y1="-251.1" x2="1565.8" y2="-216.5"/>
		<line class="st8" x1="1565.8" y1="-216.5" x2="1600.4" y2="-216.5"/>
		<line class="st8" x1="1600.4" y1="-251.1" x2="1600.4" y2="-216.5"/>
	</g>
	<g>
		<line class="st8" x1="1668.2" y1="-251.1" x2="1702.7" y2="-251.1"/>
		<line class="st8" x1="1668.2" y1="-251.1" x2="1668.2" y2="-216.5"/>
		<line class="st8" x1="1668.2" y1="-216.5" x2="1702.7" y2="-216.5"/>
		<line class="st8" x1="1702.7" y1="-251.1" x2="1702.7" y2="-216.5"/>
	</g>
	<g>
		<line class="st8" x1="1766.4" y1="-251.1" x2="1800.9" y2="-251.1"/>
		<line class="st8" x1="1766.4" y1="-251.1" x2="1766.4" y2="-216.5"/>
		<line class="st8" x1="1766.4" y1="-216.5" x2="1800.9" y2="-216.5"/>
		<line class="st8" x1="1800.9" y1="-251.1" x2="1800.9" y2="-216.5"/>
	</g>
	<g>
		<line class="st8" x1="1870" y1="-251.1" x2="1904.5" y2="-251.1"/>
		<line class="st8" x1="1870" y1="-251.1" x2="1870" y2="-216.5"/>
		<line class="st8" x1="1870" y1="-216.5" x2="1904.5" y2="-216.5"/>
		<line class="st8" x1="1904.5" y1="-251.1" x2="1904.5" y2="-216.5"/>
	</g>
	<g>
		<line class="st8" x1="1973.6" y1="-251.1" x2="2008.2" y2="-251.1"/>
		<line class="st8" x1="1973.6" y1="-251.1" x2="1973.6" y2="-216.5"/>
		<line class="st8" x1="1973.6" y1="-216.5" x2="2008.2" y2="-216.5"/>
		<line class="st8" x1="2008.2" y1="-251.1" x2="2008.2" y2="-216.5"/>
	</g>
	<g>
		<line class="st8" x1="2075.8" y1="-251.1" x2="2110.3" y2="-251.1"/>
		<line class="st8" x1="2075.8" y1="-251.1" x2="2075.8" y2="-216.5"/>
		<line class="st8" x1="2075.8" y1="-216.5" x2="2110.3" y2="-216.5"/>
		<line class="st8" x1="2110.3" y1="-251.1" x2="2110.3" y2="-216.5"/>
	</g>
	<g>
		<line class="st8" x1="2178.1" y1="-251.1" x2="2212.7" y2="-251.1"/>
		<line class="st8" x1="2178.1" y1="-251.1" x2="2178.1" y2="-216.5"/>
		<line class="st8" x1="2178.1" y1="-216.5" x2="2212.7" y2="-216.5"/>
		<line class="st8" x1="2212.7" y1="-251.1" x2="2212.7" y2="-216.5"/>
	</g>
	<g>
		<line class="st8" x1="2276.3" y1="-251.1" x2="2310.9" y2="-251.1"/>
		<line class="st8" x1="2276.3" y1="-251.1" x2="2276.3" y2="-216.5"/>
		<line class="st8" x1="2276.3" y1="-216.5" x2="2310.9" y2="-216.5"/>
		<line class="st8" x1="2310.9" y1="-251.1" x2="2310.9" y2="-216.5"/>
	</g>
	<g>
		<line class="st8" x1="2380" y1="-251.1" x2="2414.5" y2="-251.1"/>
		<line class="st8" x1="2380" y1="-251.1" x2="2380" y2="-216.5"/>
		<line class="st8" x1="2380" y1="-216.5" x2="2414.5" y2="-216.5"/>
		<line class="st8" x1="2414.5" y1="-251.1" x2="2414.5" y2="-216.5"/>
	</g>
	<g>
		<line class="st8" x1="2483.6" y1="-251.1" x2="2518.1" y2="-251.1"/>
		<line class="st8" x1="2483.6" y1="-251.1" x2="2483.6" y2="-216.5"/>
		<line class="st8" x1="2483.6" y1="-216.5" x2="2518.1" y2="-216.5"/>
		<line class="st8" x1="2518.1" y1="-251.1" x2="2518.1" y2="-216.5"/>
	</g>
	<g>
		<line class="st8" x1="2585.5" y1="-251.1" x2="2620.1" y2="-251.1"/>
		<line class="st8" x1="2585.5" y1="-251.1" x2="2585.5" y2="-216.5"/>
		<line class="st8" x1="2585.5" y1="-216.5" x2="2620.1" y2="-216.5"/>
		<line class="st8" x1="2620.1" y1="-251.1" x2="2620.1" y2="-216.5"/>
	</g>
	<g>
		<line class="st8" x1="2687.9" y1="-251.1" x2="2722.4" y2="-251.1"/>
		<line class="st8" x1="2687.9" y1="-251.1" x2="2687.9" y2="-216.5"/>
		<line class="st8" x1="2687.9" y1="-216.5" x2="2722.4" y2="-216.5"/>
		<line class="st8" x1="2722.4" y1="-251.1" x2="2722.4" y2="-216.5"/>
	</g>
	<g>
		<line class="st8" x1="2786.1" y1="-251.1" x2="2820.6" y2="-251.1"/>
		<line class="st8" x1="2786.1" y1="-251.1" x2="2786.1" y2="-216.5"/>
		<line class="st8" x1="2786.1" y1="-216.5" x2="2820.6" y2="-216.5"/>
		<line class="st8" x1="2820.6" y1="-251.1" x2="2820.6" y2="-216.5"/>
	</g>
	<g>
		<line class="st8" x1="2889.7" y1="-251.1" x2="2924.2" y2="-251.1"/>
		<line class="st8" x1="2889.7" y1="-251.1" x2="2889.7" y2="-216.5"/>
		<line class="st8" x1="2889.7" y1="-216.5" x2="2924.2" y2="-216.5"/>
		<line class="st8" x1="2924.2" y1="-251.1" x2="2924.2" y2="-216.5"/>
	</g>
	<g>
		<line class="st8" x1="2993.3" y1="-251.1" x2="3027.9" y2="-251.1"/>
		<line class="st8" x1="2993.3" y1="-251.1" x2="2993.3" y2="-216.5"/>
		<line class="st8" x1="2993.3" y1="-216.5" x2="3027.9" y2="-216.5"/>
		<line class="st8" x1="3027.9" y1="-251.1" x2="3027.9" y2="-216.5"/>
	</g>
	<g>
		<line class="st8" x1="3095.5" y1="-251.1" x2="3130.1" y2="-251.1"/>
		<line class="st8" x1="3095.5" y1="-251.1" x2="3095.5" y2="-216.5"/>
		<line class="st8" x1="3095.5" y1="-216.5" x2="3130.1" y2="-216.5"/>
		<line class="st8" x1="3130.1" y1="-251.1" x2="3130.1" y2="-216.5"/>
	</g>
	<g>
		<line class="st8" x1="3197.9" y1="-251.1" x2="3232.4" y2="-251.1"/>
		<line class="st8" x1="3197.9" y1="-251.1" x2="3197.9" y2="-216.5"/>
		<line class="st8" x1="3197.9" y1="-216.5" x2="3232.4" y2="-216.5"/>
		<line class="st8" x1="3232.4" y1="-251.1" x2="3232.4" y2="-216.5"/>
	</g>
	<g>
		<line class="st8" x1="3296" y1="-251.1" x2="3330.6" y2="-251.1"/>
		<line class="st8" x1="3296" y1="-251.1" x2="3296" y2="-216.5"/>
		<line class="st8" x1="3296" y1="-216.5" x2="3330.6" y2="-216.5"/>
		<line class="st8" x1="3330.6" y1="-251.1" x2="3330.6" y2="-216.5"/>
	</g>
	<g>
		<line class="st8" x1="3399.7" y1="-251.1" x2="3434.2" y2="-251.1"/>
		<line class="st8" x1="3399.7" y1="-251.1" x2="3399.7" y2="-216.5"/>
		<line class="st8" x1="3399.7" y1="-216.5" x2="3434.2" y2="-216.5"/>
		<line class="st8" x1="3434.2" y1="-251.1" x2="3434.2" y2="-216.5"/>
	</g>
	<g>
		<line class="st8" x1="3503.3" y1="-251.1" x2="3537.8" y2="-251.1"/>
		<line class="st8" x1="3503.3" y1="-251.1" x2="3503.3" y2="-216.5"/>
		<line class="st8" x1="3503.3" y1="-216.5" x2="3537.8" y2="-216.5"/>
		<line class="st8" x1="3537.8" y1="-251.1" x2="3537.8" y2="-216.5"/>
	</g>
</g>
<g>
	<g id="XMLID_2_">
		<g>
			<defs>
				<rect id="SVGID_1_" x="4419.6" y="860.2" width="368" height="102.2"/>
			</defs>
			<clipPath id="SVGID_2_">
				<use xlink:href="#SVGID_1_"  style="overflow:visible;"/>
			</clipPath>
			<g class="st1">
				<defs>
					<rect id="SVGID_3_" x="4419.6" y="860.2" width="368" height="102.2"/>
				</defs>
				<clipPath id="SVGID_4_">
					<use xlink:href="#SVGID_3_"  style="overflow:visible;"/>
				</clipPath>
				<path class="st2" d="M4614.8,860.2h-26.5c-1.4,0-2.4,0.4-3.3,1.4c-0.9,0.9-1.3,2-1.3,3.3v19.9c0,1.2,0.4,2.3,1.4,3.2
					c1.9,1.9,4.6,1.9,6.5,0.1c1-1,1.4-2,1.4-3.3v-15.3h17.2v83.6H4593v-41.5c0-1.4-0.4-2.5-1.3-3.5c-0.9-1-2-1.5-3.3-1.5h-21.9
					v-41.5c0-1.4-0.4-2.5-1.3-3.5c-0.9-1-2-1.5-3.3-1.5h-26.5c-1.4,0-2.4,0.4-3.3,1.3c-0.9,0.9-1.4,2-1.4,3.3v92.9
					c0,1.3,0.4,2.4,1.3,3.3c0.9,0.9,2,1.4,3.3,1.4h26.5c1.3,0,2.4-0.5,3.3-1.5c0.9-1,1.3-2.1,1.3-3.5v-19.6c0-1.2-0.5-2.3-1.4-3.2
					c-2-1.9-4.7-1.8-6.6,0c-0.9,0.9-1.3,2-1.3,3.3v15.3h-17.3v-83.6h17.3v41.8c0,1.3,0.4,2.4,1.3,3.3c0.9,0.9,2,1.3,3.3,1.3h21.9
					v41.8c0,1.3,0.4,2.4,1.3,3.3c0.9,0.9,2,1.4,3.3,1.4h26.5c1.4,0,2.4-0.4,3.3-1.4c0.9-0.9,1.3-2,1.3-3.3v-92.9
					c0-1.3-0.4-2.4-1.3-3.3C4617.2,860.7,4616.2,860.2,4614.8,860.2"/>
				<path class="st2" d="M4595.2,891.4c0,3.8-3.1,7-7,7c-3.8,0-6.9-3.1-6.9-7s3.1-6.9,6.9-6.9
					C4592.1,884.4,4595.2,887.5,4595.2,891.4"/>
				<path class="st2" d="M4676.7,860.2h-26.5c-1.3,0-2.3,0.4-3.2,1.4c-1,1-1.4,2-1.4,3.3c0,1.3,0.4,2.4,1.4,3.3
					c0.9,0.9,2,1.3,3.3,1.3h21.8v83.6h-17.2v-61.7c0-1.3-0.4-2.3-1.4-3.2c-1-1-2-1.4-3.3-1.4c-1.3,0-2.4,0.4-3.3,1.4
					c-0.9,0.9-1.3,2-1.3,3.3v66.4c0,1.3,0.4,2.4,1.3,3.3c0.9,0.9,2,1.4,3.3,1.4h26.5c1.4,0,2.4-0.4,3.3-1.4c0.9-0.9,1.3-2,1.3-3.3
					v-92.9c0-1.3-0.4-2.4-1.3-3.3C4679.1,860.7,4678.1,860.2,4676.7,860.2"/>
				<path class="st2" d="M4657,891.4c0,3.8-3.1,7-7,7c-3.8,0-6.9-3.1-6.9-7s3.1-6.9,6.9-6.9C4653.8,884.4,4657,887.5,4657,891.4"/>
				<path class="st2" d="M4508.5,944.1c0-1.3-0.4-2.3-1.3-3.2c-2-2-4.9-1.9-6.8,0.1l-1.4,1.5l-0.2-0.2c-7.8,7.2-17.3,10.9-28.1,10.9
					c-11.5,0-21.4-4.1-29.5-12.3c-8.1-8.1-12.3-18.1-12.3-29.6c0-11.5,4.1-21.4,12.3-29.6c8.1-8.1,18-12.3,29.5-12.3
					c11.5,0,21.4,4.1,29.6,12.3c1.9,1.8,4.7,1.8,6.6,0c0.9-0.9,1.3-1.9,1.3-3.3c0-1.3-0.4-2.3-1.4-3.2c-9.9-10-22.1-15-36.1-15
					c-14,0-26.1,5-36.1,15c-9.9,10-14.9,22.1-14.9,36.1c0,14,5,26.2,14.9,36.1c10,10,22.1,15,36.1,15c13.3,0,25.1-4.7,34.9-13.9
					l0.4-0.3C4507.7,947.3,4508.5,946,4508.5,944.1"/>
				<path class="st2" d="M4481.5,900.5c1.9,1.9,4.7,1.8,6.5,0c0.9-0.9,1.3-2,1.3-3.3c0-1.3-0.4-2.4-1.3-3.3
					c-5-4.9-10.6-7.2-17.4-7.2c-6.8,0-12.5,2.3-17.3,7.2c-4.8,4.8-7.2,10.5-7.2,17.4s2.3,12.5,7.2,17.4c4.8,4.8,10.5,7.2,17.3,7.2
					c6.9,0,12.5-2.3,17.4-7.2c0.9-0.9,1.3-2,1.3-3.3s-0.4-2.4-1.4-3.3l-1.3-1.3h-2c-1.3,0-2.3,0.4-3.2,1.3l-0.3,0.3
					c-3,2.8-6.5,4.2-10.6,4.2c-4.2,0-7.8-1.5-10.8-4.5c-2.9-2.9-4.4-6.6-4.4-10.8c0-4.2,1.5-7.8,4.4-10.8c3-3,6.6-4.5,10.8-4.5
					c4.1,0,7.7,1.4,10.5,4.2L4481.5,900.5z"/>
				<path class="st2" d="M4511.9,880.7c0,3.8-3.1,6.9-7,6.9c-3.8,0-6.9-3.1-6.9-6.9s3.1-6.9,6.9-6.9
					C4508.8,873.8,4511.9,876.9,4511.9,880.7"/>
				<path class="st2" d="M4504.9,948.2c-1.2,0-2.3-0.5-3.2-1.4l-18.3-19.3c-1.7-1.8-1.6-4.6,0.2-6.2c1.8-1.7,4.5-1.6,6.2,0.2
					l18.3,19.3c1.7,1.8,1.6,4.5-0.2,6.2C4507.1,947.8,4506,948.2,4504.9,948.2"/>
				<path class="st2" d="M4759.7,894.7c0.9-0.9,1.3-2,1.3-3.3c0-1.3-0.4-2.3-1.3-3.2c-0.9-0.9-2-1.4-3.2-1.4h-19.9
					c-1.4,0-2.5,0.5-3.4,1.5c-0.9,1-1.3,2.1-1.3,3.5v66c0,1.3,0.4,2.4,1.4,3.3c1.8,1.7,4.6,1.9,6.5-0.1c1-0.9,1.4-2,1.4-3.2V896
					h15.3C4757.8,896,4758.8,895.6,4759.7,894.7"/>
				<path class="st2" d="M4781.3,911.4c4.2-5.6,6.4-12.3,6.4-20c0-8.2-3-15.3-9.1-21.6c-6.3-6.4-13.5-9.5-22-9.5H4710
					c-1.4,0-2.4,0.4-3.3,1.4c-0.9,0.9-1.3,1.9-1.3,3.3v92.9c0,1.3,0.4,2.3,1.4,3.2c1.9,2,4.7,1.9,6.6,0.1c0.9-0.9,1.3-2,1.3-3.3
					v-88.3h42.3c5.8,0.1,10.9,2.5,15.2,7.1c4.1,4.4,6.2,9.4,6.2,14.8c0,9.3-3.7,16-10.9,19.9c-0.6,0.3-1.8,0.8-5.9,2.2
					c-2.1,0.7-3.1,2.1-3.1,4.4c0,1.6,0.6,2.8,2,3.7c1.4,1,2.7,1.2,4.2,0.6C4771.6,920.5,4777.1,916.9,4781.3,911.4"/>
				<path class="st2" d="M4765.6,891.4c0,3.8-3.1,7-7,7c-3.8,0-6.9-3.1-6.9-7s3.1-6.9,6.9-6.9
					C4762.5,884.4,4765.6,887.5,4765.6,891.4"/>
				<path class="st2" d="M4736.6,962.4h-25.8c-2.4,0-4.4-2-4.4-4.4s2-4.4,4.4-4.4h25.8c2.4,0,4.4,2,4.4,4.4S4739,962.4,4736.6,962.4
					"/>
			</g>
		</g>
	</g>
	<path id="XMLID_32_" class="st3" d="M4542.1,743.1c-0.2-0.8-0.7-1.6-1.6-2.2c-1.2-0.3-2.2,0.2-3.3,0.3c-2,2.7-4.9,4-7.4,7.4
		c-2.4,0.7-5.6,2.8-6.6,5.4c-1.7-0.5-3.1,1.6-3.5,3.3c-2.8,1-5,3.9-7.1,6.9c-4.7,4.2-9.3,8.4-12.1,13.8c-0.4-0.2-0.9-0.5-1.1,0.1
		c-3,4.9-7.5,7.1-9.8,13.3c-3.6,2.4-6.4,7.7-8.7,11.9c-2.3-0.3-3.2,4.1-5.3,4.8c0.6,2.3-2.4,3.8-3.5,5.3c-0.7,1.1,0.1,1.8-0.9,3
		c-0.6,0.1-1.1,0.3-1.6,0.5c-5.2,8.2-9.3,12.6-14.6,19.1c1.2-2.1,0.8-3.8,2.6-5.5c-0.3-0.4-1.6-0.4-1.2-1c0.6-1.1,1.6-1.2,2.3-1.8
		c-0.3-5,4.1-10.1,2.9-14.6c3.4-2.3,0.9-6.3,1.9-9.3c-2.7-1.4-2.6-2.3-5.4-3.5c-1,0.8-2.4,0.4-3.7,0.5c-1.5,2.8-3.3,4.7-5.7,4.9
		c-3.4,5.7-9.6,8-13.4,14.9c-2.7,0.7-5.5,4.7-7.1,8.2c-0.9,0.4-1.9,0.8-2.8,1.3c-3.3,5.2-8.6,10.6-10.4,15.8
		c-0.6,0.1-1.3-0.4-1.6,0.5c-2,4.7-6.1,6.9-8.4,10.7c1.2-2.5,1.5-5.5,3.3-6.8c-0.4-2.7,1.9-5.6,2.2-8.1c3.8-4,5.3-11.2,9.6-16.9
		c0.6-0.8,1.9-1.4,2.5-2.1c3-3.6,4.6-6.8,6.3-9.4c1-0.3,1.9-1.2,2.8-2c1.3-4.6,6.1-6,8.2-12.2c0.6-0.7,1.6,0,2.1-1.3
		c-0.3-2.6,0-5.4-0.2-8c-3-3.8-7.3-3.7-10.7-0.5c-0.4,2.9-2.1,3.2-3.1,5.2c-1,0-2.2-0.9-2.7,0.6c-0.4,0.7,1.8,0.7,1.3,1.4
		c-5,8.7-9.3,18.1-13.8,24.7c-0.5,4.1-3.4,4.7-5.9,7.2c-3.5,3.7-7.6,8.7-11.3,10.9c-0.3,2.6-2.8,3.1-3.9,5.5c-3.5,1.1-5.5,4.1-8,6.7
		c-1.3,1.4-4,1.6-5.6,2.9c-1.8,1.3-2.8,2.9-4.3,4.2c-0.7-0.4-0.3-0.7-1.1-0.6c-2.6,3.1-6,3.2-8.7,6c-0.3-0.3-0.3-0.7-0.9-0.8
		c-2.4,3.4-6.6,1.1-9.3,3.3c-0.3,2.2-0.3,4.7,2.6,4.1c-0.4,0.7-0.5,1.2,0.2,1.5c1.7,0.9,2.9,0.2,4.5,0.6c3.8-2.8,8.2-3.8,12.1-4.6
		c1.1-1.5,2-3.6,3.9-2.8c0-1.5,2.1-2.7,3.8-3.9c1.3-0.9,3.5-1.3,4.5-2.1c0.9-0.7,1.2-1.8,2-2.4c1.5-1.2,3.6-1.6,4.8-2.6
		c3.1-2.3,4.6-5.1,7.6-6.6c-0.4,4.9-2.6,9.5-5.4,14c0.4,0.2,0.9,0.5,0.5,1c-3.7,5.7-3.1,11.3-7.3,15.7c1.6,2-0.8,4.4-2.2,6.1
		c0.3,0.6,1.1,1,0.4,1.9c-0.4,1.2-1.4,0.5-1.7,1.9c-0.5,3.2-0.9,4.6-2.5,8.6c0.3,2.1,2.4,2.6,2.5,4.4c2.1-0.6,3.4,0.6,5.1,1.3
		c-0.3-1.9,2.1-2.4,3.1-4.5c-2.3-2.6,2.3-6.2,0.8-9.2c1.6-2.4,4.2-4.6,4.1-7.8c4-5.9,6.8-10.9,10.9-17.3c2.6-1.6,5.3-5.9,6.6-9.2
		c4.3-3.9,6.5-9.4,10.3-14.2c0.6-0.8,1.7-1.1,2.5-2.1c1.5-2,2.6-4.8,4.2-6.7c3.2-3.7,7.4-6.6,9.4-11.2c2.2,0.1,4.2-2.8,5-4.9
		c3.4-1.2,5.9-5.5,9.3-7.1c-1.4,5.3-1.5,11.2-5,15.9c0.2,3.5-2.8,7.9-3,11.5c-0.4,0.7-1.1,0.9-1.5,1.6c0.5,2.8-2.5,4.5-1.8,7.3
		c-0.7,0.6-1.4,1.2-2.1,2c-1.3,6-7.5,11.1-7.1,17.2c2.1,0.8,0.4,2.9,3.3,3.5c0.8,0.1,1.1-1.3,1.8-1.5c0.1,0.9,0,1.8,1.6,2.2
		c0.6-0.6,1.4-0.8,2.3-0.5c0.4-1.9,1.2-2.3,2.3-3.6c0.8-0.8-0.3-1.1,0.3-1.9c14.1-21.1,24.9-38.6,38.7-58.2c0.5-0.7,1.4-0.3,1.8-1.5
		c1.1-3.6,5-4.7,5.4-8.8c4.5-4.4,9.4-8.9,12.5-15.7c0.3,0.2,0.2,0.5,0.7,0.7c0.7-0.9,0.3-1.5,0.9-2.3c0.5,0.3,0,0.9,0.8,1.1
		c0.1-0.9,0.6-1.8,1.2-2.8c0.4-0.1,0.8-0.3,1.2-0.4c5.4-9.2,13.4-12.3,19.8-20.4c3-1.2,5.3-4.6,8.4-5.5c0.7,1.4-1,2.3-1.6,3.6
		c-0.9,2.3-1.1,4.9-2.5,7.3c-2.2,3.7-4.7,6.8-5.3,10.6c-0.4,0.7-1.2,0.1-1.5,0.9c-2,4.7-5.8,13.7-8.4,17.2c0,0.8-0.4,1.8-0.3,2.6
		c-6.2,9.2-8.6,18.2-11.8,26.8c-1.8,4.7-5,9.3-4.7,14.7c-3.7,4.2-2.7,12.3-6.7,17.1c0.2,2.3,0.4,4.9-1.8,7.3c0,1,0.6,1.9,0.5,3
		c-2.2,5.7-2.6,11.3-4.5,17.6c1.2,3.5-1.8,8.3,0.4,11.5c-2.6,4.3,0.4,8.7-0.5,13.2c1.1,0.4,1.1,0.2,1.5,1.1c-1.7,3.2,0.7,5.2,1,7.7
		c0.4,0.1,0.7,0.2,1.1,0.2c1-0.4,1.9-0.7,2.6-2c-1.5-1.8-2.1-4.3-0.4-6.4c-0.2-0.9-1.5-0.2-1.7-1.3c1-2-0.4-3.9-0.3-6
		c0.3-5.1,2.3-10.2,1.4-15c2.9-5.1,1.7-12,4.6-17.1c-0.1-1,0-1.9,0.2-3c3.2-5.5,2.3-13,5.9-18.2c1.4-4.4,3.6-10.2,3.8-14.9
		c0.5-0.9,1-1.6,1.7-1.9c1.7-4.9,4.5-9.7,5.4-15.4c4.4-7.3,8.6-18.4,12.4-26.7c1.8-2.4,4.5-5.2,5.6-8.7c0.3-0.8,0-1.8,0.3-2.6
		c0.7-1.5,2.3-2.5,3.2-4.1c1.4-2.3,2.1-5.2,3.3-7.5c3.1-5.8,5.1-10,5.3-15.8C4544.4,743.7,4544.2,743.1,4542.1,743.1z"/>
	<path id="XMLID_29_" class="st3" d="M4763.9,822.4c5.1-18.1,15.7-41.7,22.1-58.5c-0.8-1.9-2,0.8-4.2-1c-0.4-2.1-1.2-4.7-4.2-4.3
		c0.1,3.1-3.4,4.1-3.2,7.9c-2.6-0.2-3.6,2.6-3.9,5c-9.1,11.1-19.6,24.5-27.3,35.5c0-0.2,0.1-0.4,0.1-0.7c-0.1,0.1-0.1,0.3-0.2,0.4
		c-0.2,0.2-0.3,0.3-0.4,0.5c0.1,0.4,0.2,0.8-0.2,1.4c-6.9,8.2-15,18.2-22.3,29.7c-14.8,6.8-30.3,12.1-45.3,18.5
		c-6,1.3-13.7,3.2-18,6.4c0.1,0.3,0.1,0.6,0.3,0.8c4.1-0.5,10.4-2,12.8-4.6c1,3,3.7,0.5,6-0.2c4.5-1.4,10.3-2.3,13-4.6
		c-0.1,0.7,0.3,1.1,0.7,1.6c5.2-3.7,12.9-6.2,21.4-7.8c-1.4,2.5-7.4,7.8-8,12.1c-7.6,3.4-11.6,14.1-18.5,19.1c0,0.2-0.1,0.5-0.2,0.7
		c-0.4,0.5-0.6,1.1-0.6,1.6c0.2,0.4,0.4,0.7,0.6,1c0.2,0,0.4,0.1,0.6,0.1c1.9,0.3,3.8,0.8,5.6,0.8c1.1,0,2-0.2,3-0.5
		c5.8-5.6,11.5-13.5,13.9-20.7c3.3-0.1,5.5-5.2,6.4-7.9c3.9-0.1,4.8-6.2,6.7-8.5c-0.2,0.2,0.5,1.3,0.9,1c1.6-1.4,3.8-5.6,7.1-6.3
		c-0.2,0.9,1,1.1,1.2,1.8c5.1-5.9,17-4.9,22.2-6.9c-1,4.6-2.7,8.5-2.6,11.9c0.1,1.5-1.5,2.4-1.9,3.9c-0.4,1.8-0.8,4.7-1.2,6.9
		c2.4,2.8,8.2,4.6,8.2,0.7c-2.8-7.3,4.6-17.6,6.6-28.1c9.2-7.2,21.4-0.4,30.8-6.7C4787.5,813.5,4773.1,821.5,4763.9,822.4z
		 M4757.9,812.8c1.5,2.9-1.3,5.1-0.9,8.8c-1.5-1.4-1.2,1.7-2.7,0.2c0.9,2-0.4,2-0.4,4.4c-7.4,2.4-14.9,4.5-21.6,8.4
		c-1-0.5,0.4-2-1-2.4c1.2-1.7,4.4-2.7,3.6-5.8c1,3,4.9-5.5,5.4-3.7c2.4-5.6,4.2-9.4,8.4-13c-0.1-0.7-1.1-1.1-0.5-2.1
		c7.5-5.6,13.1-15.8,19.8-23.5c0.9,7-5.3,16.7-7.5,23.8c0.2,0.7,0.7,1.3,1.2,1.8C4759.1,810,4760.9,814.1,4757.9,812.8z"/>
	<g id="XMLID_24_">
		<path id="XMLID_26_" class="st3" d="M4668,756.8c5.3,0.8,11.2,0.4,15.8-2.2c0-0.2,0.1-0.5,0.2-0.7c-3.1,0.4-7.6-0.4-10.3,2.6
			c-8.8-1.9-18.4,2.7-27.9,3.5c0.2,2.3-2,3.8-2.2,1.8c0.2-1.2,1.3-0.2,1.6-1.2c-6.1,2-13.5,1-19.1,4.4
			c-17.7,1.3-38.5,13.4-54.9,15.9c-2.1,4.7-4.6,2.7-7.9,5.1c0.2-0.8,1.1-1.5,0.4-2.1c-0.7,1.7-2,1.8-2.9,3.1
			c-4.1-1.1-6.4,2.1-9.2,4.1c-7.5-1-14.9,6.8-22,7.5c-1.5,1.8-3.6,2.1-5.3,3.4c-0.9,2,1.8,3.1,0.3,3.7c-0.6-0.3-0.6-1.3-1.1-1.7
			c-0.1,2.1,0.4,3.4,1.7,4c6.3-5.8,11.6-7,16.6-9.3c3.5-1.6,9.8-2.7,14.8-6.7c2.3,1.7,10.6-1.2,12.5-4.2c0.7,2.4,1.2-0.3,1.5-0.5
			c3.8,1.4,4.4-1.3,8-2.9c-0.2,0.9-0.9,0.5-1.1,1.3c2.9-1,6.4-6.9,8.9-2.7c0.4-2.1,2.1-3.8,3.1-1.6c-0.1-4.7,8-6.1,5.7-3.3
			c1.2-0.5,3.9,0.3,2.2-1.8c0.9-1.7,2.1,2.1,2.7,0.5c-0.3-0.8-0.7-1.6-1-2.4c2.2-0.6,0.8,2.7,2.4,2.7c1.9-1.3-1.6-2.2,0-2.9
			c1.7,3.6,4.9-0.4,6.4,1.2c1-1.2,0.4-3.4,1.2-4.2c2.3,1,4.8-2.6,6.2-0.3c-1.6,0.1-3.2,0.4-4.1,2.2c2.4,0.3,4-1.2,6.3-1
			c1.1-2.4-1.5-0.7-1-2.4c6.3,3,18.2-5.7,23.8-4.2c3.9-4.3,10.7-1.5,13.6-5.5c-0.3-0.2-0.9-0.2-0.8-0.9c2.6,3.1,14.5-0.2,15.8-1.4
			C4668.6,757.9,4667.8,757.2,4668,756.8z M4602.9,774.5c0.3-0.5,0.7-1.1,0.8-2.1c1.1,0,1.7,0.5,2.2,1.2
			C4605.2,774.7,4603.8,774,4602.9,774.5z"/>
		<path id="XMLID_25_" class="st3" d="M4528.1,859.9c5.2-8.5,9.9-18.8,15-31.4c5.2-4.3,10.9-4.6,17-8.5c0,0.7-0.5,0.8-0.7,1.3
			c14.9-5.4,31.5-9,44.5-17.7c2.3,1.4,2.8-2.3,5.9-0.6c0.1-2.5,2.8-2.5,2.6-5.2c-19.2,4.8-36.4,12.5-56.3,17
			c-0.4,2.4-5.5,3.3-6.5,1.3c3.2-6.7,8.1-11.5,11.1-18.3c-1.8-2.2-3.6-4.2-6.5-5.2c-5.2,10.8-11.9,17.7-15,29.4
			c-4.1,3.5-11.8,3.5-14.4,8.5c1.2,1,2.3,2.1,3.3,3.3c2.6,0.2,2.7-2.1,5.2-2c-6.9,12.5-11.7,27.2-20.3,38c0.9,0.4,1.2,1.4,1.3,2.6
			c2.2-0.2,2.9-1.9,5.9-1.3c-0.3,0.8-0.4,1.4-0.5,2.2c0.1,0.2,0.3,0.4,0.3,0.7c0.3,0.1,0.6,0.2,0.8,0.2c2.9-2.6,9.2-1.7,11.2-6.4
			c9.1-2.5,17.9-10.9,26.8-15.7c7.3-2,12.1-6.6,18.3-9.8h2.6c4.7-3,9.3-6.7,14.4-9.2c7.3-3.6,17-4.6,22.3-11.8
			C4587.9,830.7,4559.9,847.5,4528.1,859.9z"/>
	</g>
	<g id="XMLID_22_">
		<path id="XMLID_23_" class="st3" d="M4719.3,736.4c0.5,0,0.9,0,1.4,0c1.5,0.5,3.6,0.8,3.7,2.3c0.1,1.5-2.8,3.5-3.9,4.7
			c-1.7,1.8-3,3.2-4.6,4c-0.8,2.3-2.8,4-4.4,6.6c-1,1.5-4.3,5-4.3,6.8c0,1.4,1.6,1.9,2.3,3c0,4.1-2.3,5.4-4.7,7.8
			c-2.8,2.8-4.9,4.9-7.6,7.8c-1.2,1.3-2.5,3.7-4.4,3.4c-0.8-0.1-1.6-1-2.4-1.4c-1-0.5-1.9-0.6-2.7-1.3c1-2.3,2-4.7,4.7-5.3
			c-1.1-3.7,2.9-4.7,3.3-8c-14.6,4.9-24.4,16-36.7,23.7c-0.2,0.7,0.4,0.5,0.4,1c-10.6,7.9-18.4,18.6-28.2,27.2
			c5.2,1.5,7.8-3.2,12.3-3.9c0.6-0.1,1.4,0.1,2,0c0.8-0.2,1.2-1,2-1.4c1.2-0.7,3.1-1.1,4.8-1.7c8.3-2.9,17.2-4.6,25.7-7.4
			c5.1-1.7,10.9-4.1,16.7-2.1c0.6,0,0.2-1,0.6-1.3c9,0.8,24.5-5.3,28.7,2c-0.6,0-1.1,0-1.7,0c-0.1,0.8,1,1.2,0.6,1.9
			c-8.5,1.3-17.2,2.5-26,3.6c-0.7-0.1-0.2-0.3-0.1-0.7c-0.8,0.3-1.7,0.5-2.7,0.6c-0.6,0,0-0.1,0-0.3c-12.3,1.1-24,3.5-34.2,6.6
			c-3.6,1-6.9,2.5-10.3,3.4c-0.9,0.3-2.1,0.5-2.9,0c-4.7,3.6-13.7,3-19.8,5.1c-0.2,0.6,0.2,1.7,0,2.4c-0.3,0.9-3.1,2.5-4.1,3.4
			c-3,2.5-5.2,4.8-7,8.1c-0.8,1.6-2.5,4.9-1.6,6.6c11.1,0,18.4-5.1,25.7-9c2.6-1.4,5.2-2.3,8.1-3.6c3.6-1.5,6.8-3.9,10.3-5.7
			c8.7-4.7,17.3-9,26.2-13.7c1.3-0.7,4.5-2.8,5.4-2.6c1.1,0.3,0.7,2,1.4,2.9c-0.2,0.9-1.3,0.8-1.6,1.6c1.4,0.8,1.9-1.2,3.1-0.6
			c-0.5,1.7-1.7,3.1-2.7,4.6c-3.2,4.5-7,8.6-11.4,11.7c-0.1,0.8,0.6,0.8,0.6,1.6c-4.9,3.5-7.7,8.9-12.1,12.8
			c-7.2,10.5-17,18.4-22.8,30.4c-3.3,1-5.8,6.3-8.1,9.4c-1.6,2-3,3-2.9,6c-0.5,0.4-1.4,0.5-2.1,0.7c-1.3,1.6-0.6,4.8-2.4,5.8
			c-0.6,0.4-1.4,0.1-2.1,0.7c0.7,4-2.6,6.5-4.7,8.7c-1.8,1.9-4,4.1-4.8,6.3c-0.7,1.8-0.2,3.3-2.6,4.1c-2-2.7,1.9-5.3,0.9-7.4
			c5.4-7.3,6.9-18.5,14.5-23.5c-0.5-7.8,7.9-8,7.7-16c2.5,0.2,1.9-2.7,4.3-2.6c-0.6-3.5,2.8-4.1,5-5.3c0.5-6.7,5.3-9,8.8-12.7
			c0-0.6-0.6-0.7-0.6-1.4c4.5-4.5,9.2-8.8,12.1-14.8c0.5-0.2,1.3-0.1,2-0.1c-0.3-4.6,4.2-4.2,5-7.7c-11.4,4.2-21.7,11.5-33.1,16.1
			c-1.7,0.7-3.6,1-5.3,1.9c-1.3,0.6-2.2,1.8-3.4,2.4c-1.3,0.7-2.7,1.2-4.3,1.7c-6.2,2-19.6,3.9-22.4-2.3c0-0.6,0-1.2,0-1.9
			c0.3-0.8,0.6-2,1-2.9c2.5-5.2,7.2-9.3,11.3-13.4c4.3-4.3,8.7-8.2,12.5-12.3c0.1-0.9-0.8-0.8-0.7-1.7c1.8-0.4,2.8-1.7,4.1-2.6
			c0-0.5,0.1-1.2-0.1-1.4c1.4,0.2,1-1.6,1.7-2.1c0.5-0.4,0.5,0.1,1.3-0.1c0.3-0.7,0.4-1.5,0.9-2c0.3,1.1,1.1-0.1,2-0.1
			c0.2-0.2-0.6-0.7-0.4-1.3c1.3-0.2,2.3-0.7,2.9-1.7c0.4-0.2-0.5-0.3-0.6-0.6c2.1-0.8,2.8-3.1,5.7-3.1c-0.3-0.1-0.8-0.1-0.9-0.6
			c0.8-1.6,1.7-3.2,3.8-3.6c3.1-3,5.7-6.6,8.8-9.3c1.1-0.9,2.4-1.5,3.7-2.4c1.3-1,2.4-2.3,3.7-3.4c8.9-7.8,19-14.3,30.2-19.7
			c1.5,0.4,3.4-0.8,4.4,0.3c0.4-2.3,3.5-3.1,4.1-4.8c0.2-0.6-0.1-1.4,0.1-2c0.5-1.2,2-1.9,3.4-2.1c1.1-1.7,3.2-2.6,3.1-5
			c0.9-0.2,1-1.1,1.7-1.4c0.5-0.3,1.1-0.1,1.7-0.4C4717.7,741.2,4717.5,738,4719.3,736.4z"/>
	</g>
</g>
<g id="HkY0sk.tif">
	
		<image style="overflow:visible;" width="322" height="112" id="Layer_0_1_" xlink:href="6B77647AEE065FB1.png"  transform="matrix(1 0 0 1 4431.4795 1032.0117)">
	</image>
</g>
<g>
	<circle id="XMLID_69_" class="st4" cx="4213.5" cy="1094.5" r="60.9"/>
	<circle id="XMLID_109_" class="st4" cx="4213.5" cy="1094.5" r="102.1"/>
	<g id="XMLID_110_">
		<g id="XMLID_133_">
			<path id="XMLID_143_" class="st5" d="M4137.1,1102c0.1,0,0.1-0.1,0.2-0.1c0.1-0.1,0.1-0.2,0.1-0.3l0-1.9c0-0.2-0.2-0.4-0.4-0.4
				l-9.4,0.1l9.6-8.8c0.1-0.1,0.1-0.2,0.1-0.3l0-1.9c0-0.2-0.2-0.4-0.4-0.4l-13.2,0.1c-0.1,0-0.2,0-0.3,0.1
				c-0.1,0.1-0.1,0.2-0.1,0.3l0,1.9c0,0.2,0.2,0.4,0.4,0.4l9.4-0.1l-9.6,8.8c-0.1,0.1-0.1,0.2-0.1,0.3l0,1.9c0,0.1,0,0.2,0.1,0.3
				c0.1,0.1,0.2,0.1,0.3,0.1L4137.1,1102C4137.1,1102,4137.1,1102,4137.1,1102z"/>
			<path id="XMLID_142_" class="st5" d="M4139.5,1075.7l4.4-12.5c0-0.1,0-0.2,0-0.3c0-0.1-0.1-0.2-0.2-0.2l-1.8-0.6
				c-0.2-0.1-0.4,0-0.5,0.2l-3.7,10.3l-2.8-1l3-8.5c0-0.1,0-0.2,0-0.3c0-0.1-0.1-0.2-0.2-0.2l-1.8-0.6c-0.2-0.1-0.4,0-0.5,0.2
				l-3,8.5l-2.8-1l3.7-10.3c0-0.1,0-0.2,0-0.3c0-0.1-0.1-0.2-0.2-0.2l-1.8-0.6c-0.2-0.1-0.4,0-0.5,0.2l-4.4,12.5
				c-0.1,0.2,0,0.4,0.2,0.5l12.5,4.4c0.1,0,0.1,0,0.2,0c0,0,0.1,0,0.1,0C4139.4,1075.9,4139.5,1075.8,4139.5,1075.7z"/>
			<path id="XMLID_141_" class="st5" d="M4158.2,1041.9c-0.1-0.1-0.2-0.2-0.4-0.2l-8.2,0.1l-1.7-8c0-0.1-0.1-0.3-0.3-0.3
				c-0.1,0-0.3,0-0.4,0.1l-1.5,1.9c-0.1,0.1-0.1,0.2-0.1,0.3l1.3,6l-6.1,0.1c-0.1,0-0.2,0.1-0.3,0.1l-1.5,1.9
				c-0.1,0.1-0.1,0.3,0,0.4s0.2,0.2,0.4,0.2l8.2-0.1l1.7,8c0,0.1,0.1,0.3,0.3,0.3c0.1,0,0.1,0,0.2,0c0.1,0,0.2-0.1,0.2-0.1l1.5-1.9
				c0.1-0.1,0.1-0.2,0.1-0.3l-1.3-6l6.1,0c0.1,0,0.2-0.1,0.3-0.1l1.5-1.9C4158.2,1042.2,4158.3,1042,4158.2,1041.9z"/>
			<path id="XMLID_140_" class="st5" d="M4171,1015.3l-11.2,7c-0.2,0.1-0.2,0.4-0.1,0.5l1,1.6c0.1,0.2,0.4,0.2,0.5,0.1l4.5-2.8
				l5.8,9.3c0.1,0.1,0.3,0.2,0.4,0.2c0,0,0.1,0,0.1-0.1l1.6-1c0.1-0.1,0.1-0.1,0.2-0.2c0-0.1,0-0.2-0.1-0.3l-5.8-9.3l4.5-2.8
				c0.1-0.1,0.2-0.1,0.2-0.2c0-0.1,0-0.2-0.1-0.3l-1-1.6C4171.4,1015.3,4171.1,1015.2,4171,1015.3z"/>
			<path id="XMLID_139_" class="st5" d="M4215.2,1005l-13.2,0.6c-0.2,0-0.4,0.2-0.4,0.4l0.1,1.9c0,0.2,0.2,0.4,0.4,0.4l5.3-0.3
				l0.5,10.9c0,0.1,0.1,0.2,0.1,0.3c0.1,0.1,0.2,0.1,0.3,0.1l1.9-0.1c0,0,0,0,0.1,0c0.2,0,0.3-0.2,0.3-0.4l-0.5-10.9l5.3-0.3
				c0.2,0,0.4-0.2,0.4-0.4l-0.1-1.9c0-0.1-0.1-0.2-0.1-0.3C4215.4,1005,4215.3,1005,4215.2,1005z"/>
			<path id="XMLID_138_" class="st5" d="M4242.8,1010.3c-0.2-0.1-0.4,0.1-0.5,0.3l-1.5,5.1l-8.3-2.5l1.5-5.1
				c0.1-0.2-0.1-0.4-0.3-0.5l-1.8-0.5c-0.1,0-0.2,0-0.3,0c-0.1,0-0.2,0.1-0.2,0.2l-3.8,12.7c-0.1,0.2,0.1,0.4,0.3,0.5l1.8,0.5
				c0.1,0,0.2,0,0.3,0c0.1,0,0.2-0.1,0.2-0.2l1.5-5.1l8.3,2.5l-1.5,5.1c0,0.1,0,0.2,0,0.3c0,0.1,0.1,0.2,0.2,0.2l1.8,0.5
				c0.1,0,0.1,0,0.2,0c0.1,0,0.3-0.1,0.3-0.3l3.8-12.7c0-0.1,0-0.2,0-0.3c0-0.1-0.1-0.2-0.2-0.2L4242.8,1010.3z"/>
			<path id="XMLID_137_" class="st5" d="M4254.2,1031.5c0.1,0,0.2-0.1,0.2-0.2l7.1-11.2c0.1-0.1,0.1-0.2,0.1-0.3
				c0-0.1-0.1-0.2-0.2-0.2l-1.6-1c-0.2-0.1-0.4-0.1-0.5,0.1l-7.1,11.2c-0.1,0.2-0.1,0.4,0.1,0.5l1.6,1
				C4254,1031.5,4254.1,1031.5,4254.2,1031.5z"/>
			<path id="XMLID_136_" class="st5" d="M4264.6,1039.4l1.3,1.4c0.1,0.2,0.4,0.2,0.6,0l7-6.3l-1.3,13c0,0.1,0,0.2,0.1,0.3l1.3,1.4
				c0.1,0.1,0.2,0.1,0.4,0.1c0.1,0,0.1,0,0.2-0.1l9.9-8.8c0.1-0.1,0.1-0.2,0.1-0.3c0-0.1,0-0.2-0.1-0.3l-1.3-1.4
				c-0.1-0.2-0.4-0.2-0.6,0l-7,6.3l1.3-13c0-0.1,0-0.2-0.1-0.3l-1.3-1.4c-0.1-0.1-0.2-0.1-0.3-0.1c-0.1,0-0.2,0-0.3,0.1l-9.9,8.8
				C4264.5,1039,4264.4,1039.3,4264.6,1039.4z"/>
			<path id="XMLID_135_" class="st5" d="M4295.5,1060.7c-0.7-1.8-2-3.1-3.8-3.8c-1.8-0.7-3.6-0.8-5.4,0c-1.8,0.7-3.1,2-3.8,3.8
				c-0.7,1.8-0.7,3.6,0,5.4c0.7,1.8,2,3,3.8,3.8c1.3,0.6,2.7,0.7,4.1,0.4c0.4-0.1,0.9-0.2,1.3-0.4l0.9-0.4c0.2-0.1,0.3-0.3,0.2-0.5
				l-2.9-7c0-0.1-0.1-0.2-0.2-0.2c-0.1,0-0.2,0-0.3,0l-1.7,0.7c-0.2,0.1-0.3,0.3-0.2,0.5l1.9,4.7c-0.3,0-0.7,0-1,0
				c-0.5-0.1-1-0.2-1.4-0.5c-0.4-0.2-0.8-0.5-1.2-0.9c-0.3-0.4-0.6-0.8-0.8-1.3c-0.2-0.5-0.3-1.1-0.3-1.7c0-0.6,0.1-1.1,0.3-1.6
				c0.2-0.5,0.5-1,0.9-1.4c0.4-0.4,0.9-0.7,1.4-1c0.6-0.2,1.1-0.3,1.7-0.3c0.6,0,1.1,0.1,1.6,0.3c0.5,0.2,1,0.5,1.4,0.9
				c0.4,0.4,0.7,0.9,1,1.4c0.5,1.1,0.5,2.2,0,3.3c0,0.1,0,0.2,0,0.3c0,0.1,0.1,0.2,0.2,0.2l1.7,0.7c0.1,0,0.2,0,0.3,0
				c0.1,0,0.2-0.1,0.2-0.2C4296.3,1064.2,4296.3,1062.4,4295.5,1060.7z"/>
		</g>
		<g id="XMLID_111_">
			<path id="XMLID_132_" class="st5" d="M4143,1129.8c-1.7-0.5-3.3-0.3-4.8,0.5c-1.5,0.8-2.4,2.1-2.8,3.9c-0.4,1.7-0.1,3.4,0.8,4.9
				c0.3,0.5,0.6,1,1.1,1.4c0.4,0.4,0.9,0.8,1.3,1.1c0.5,0.3,1,0.5,1.5,0.7c0.5,0.2,1.1,0.3,1.6,0.3c0,0,0.1,0,0.1,0
				c0.1,0,0.1-0.1,0.2-0.1c0.1-0.1,0.1-0.2,0.1-0.3l0-1.7c0-0.2-0.2-0.4-0.4-0.4c-0.3,0-0.7-0.1-1-0.2c-0.3-0.1-0.6-0.2-0.9-0.4
				c-0.3-0.2-0.6-0.4-0.8-0.7c-0.3-0.3-0.5-0.6-0.7-0.9c-0.3-0.5-0.5-1-0.5-1.6c-0.1-0.5-0.1-1.1,0-1.6c0.1-0.5,0.3-1,0.6-1.4
				c0.3-0.4,0.6-0.7,1.1-1c0.4-0.3,0.9-0.4,1.4-0.4c0.5,0,1,0,1.5,0.2c0.5,0.2,0.9,0.4,1.4,0.8c0.4,0.3,0.8,0.8,1.1,1.3
				c0.2,0.3,0.3,0.7,0.4,1c0.1,0.4,0.2,0.7,0.2,1.1c0,0.4,0,0.7-0.1,1c-0.1,0.3-0.2,0.7-0.3,0.9c-0.1,0.2,0,0.4,0.1,0.5l1.4,0.9
				c0.1,0.1,0.2,0.1,0.3,0c0.1,0,0.2-0.1,0.2-0.2c0.2-0.5,0.4-1,0.6-1.5c0.1-0.5,0.2-1.1,0.2-1.6c0-0.6-0.1-1.1-0.2-1.7
				c-0.2-0.6-0.4-1.1-0.7-1.6C4146,1131.4,4144.7,1130.3,4143,1129.8z"/>
			<path id="XMLID_129_" class="st5" d="M4162.4,1154.4c-1.7,0.2-3,1-4.1,2.4c-1,1.4-1.4,2.9-1.2,4.6c0.2,1.7,1,3.1,2.4,4.1
				c1.3,1,2.9,1.4,4.6,1.2c0.2,0,0.3,0,0.5-0.1c1.5-0.3,2.7-1.1,3.6-2.3c1-1.4,1.4-2.9,1.2-4.6c-0.2-1.7-1-3.1-2.4-4.1
				C4165.6,1154.6,4164,1154.2,4162.4,1154.4z M4165.1,1163.7c-0.4,0.2-0.9,0.4-1.4,0.5c-0.5,0.1-1,0-1.4-0.1
				c-0.5-0.1-0.9-0.3-1.3-0.6c-0.4-0.3-0.7-0.7-1-1.1c-0.2-0.4-0.4-0.9-0.5-1.4c-0.1-0.5,0-1,0.1-1.4c0.1-0.5,0.3-0.9,0.6-1.3
				c0.3-0.4,0.7-0.7,1.1-1c0.4-0.2,0.7-0.3,1.1-0.4c0.1,0,0.2,0,0.2,0c0.5-0.1,1,0,1.4,0.1c0.5,0.1,0.9,0.3,1.3,0.6c0,0,0,0,0,0
				c0.4,0.3,0.7,0.7,1,1.1c0.2,0.4,0.4,0.9,0.5,1.4c0.1,0.5,0,1-0.1,1.4c-0.1,0.5-0.3,0.9-0.6,1.3
				C4165.9,1163.2,4165.5,1163.5,4165.1,1163.7z"/>
			<path id="XMLID_128_" class="st5" d="M4202,1170.3c-0.1,0-0.3,0-0.4,0.1l-6.7,6.7l-3.3-8.9c0-0.1-0.2-0.2-0.3-0.2l-1.9-0.4
				c-0.1,0-0.2,0-0.3,0.1c-0.1,0.1-0.1,0.1-0.2,0.2l-2.5,11.3c0,0.2,0.1,0.4,0.3,0.5l1.6,0.4c0.1,0,0.2,0,0.3-0.1
				c0.1-0.1,0.1-0.1,0.2-0.2l1.6-7.5l2.6,6.9c0,0.1,0.2,0.2,0.3,0.2l2.1,0.5c0.1,0,0.3,0,0.4-0.1l5.2-5.2l-1.6,7.5
				c0,0.1,0,0.2,0.1,0.3c0.1,0.1,0.1,0.1,0.2,0.2l1.6,0.4c0.1,0,0.1,0,0.2,0c0.1,0,0.3-0.1,0.3-0.3l2.5-11.3c0-0.1,0-0.2-0.1-0.3
				c-0.1-0.1-0.1-0.1-0.2-0.2L4202,1170.3z"/>
			<path id="XMLID_124_" class="st5" d="M4234.8,1169c-0.4-0.3-0.8-0.4-1.3-0.5c-0.5-0.1-1-0.1-1.5,0l-8.1,1.8
				c-0.1,0-0.2,0.1-0.2,0.2c-0.1,0.1-0.1,0.2-0.1,0.3l2.6,11.3c0,0.1,0.1,0.2,0.2,0.2c0.1,0.1,0.2,0.1,0.3,0.1c0,0,0,0,0,0l1.6-0.4
				c0.2,0,0.3-0.3,0.3-0.5l-1-4.5l6.1-1.4c0.5-0.1,0.9-0.3,1.3-0.6c0.4-0.3,0.7-0.6,1-1c0.3-0.4,0.4-0.8,0.5-1.3
				c0.1-0.5,0.1-1,0-1.5c-0.1-0.5-0.3-0.9-0.6-1.3C4235.6,1169.6,4235.2,1169.2,4234.8,1169z M4227,1174.7l-0.6-2.5l6.1-1.4
				c0.2,0,0.3,0,0.5,0c0.2,0,0.3,0.1,0.5,0.2c0.1,0.1,0.3,0.2,0.4,0.3c0.1,0.1,0.2,0.3,0.2,0.4c0,0.2,0,0.3,0,0.5
				c0,0.2-0.1,0.3-0.2,0.5c-0.1,0.1-0.2,0.2-0.3,0.4c-0.1,0.1-0.3,0.2-0.4,0.2L4227,1174.7z"/>
			<path id="XMLID_114_" class="st5" d="M4258.4,1156.1c-0.1-0.1-0.3-0.1-0.4,0l-1.5,1.1c-0.1,0.1-0.2,0.2-0.2,0.4l2.1,12.7
				c0,0.1,0.1,0.2,0.2,0.3c0.1,0,0.2,0,0.2,0c0.1,0,0.1,0,0.1-0.1l1.5-1.1c0.1-0.1,0.2-0.2,0.2-0.4l-0.4-2.5l5.4-3.9l2.2,1.2
				c0.1,0.1,0.3,0.1,0.4,0l1.5-1.1c0.1-0.1,0.2-0.2,0.2-0.3c0-0.1-0.1-0.3-0.2-0.3L4258.4,1156.1z M4263.3,1161.5l-3.4,2.5l-0.8-4.7
				L4263.3,1161.5z"/>
			<path id="XMLID_113_" class="st5" d="M4282,1128.2c-0.1-0.1-0.2-0.1-0.3,0c-0.1,0-0.2,0.1-0.2,0.2l-0.8,1.4
				c-0.1,0.2,0,0.4,0.1,0.5l7,4.1l-11.1,2.3c-0.1,0-0.2,0.1-0.3,0.2l-0.8,1.4c-0.1,0.2,0,0.4,0.1,0.5l10,5.9c0.1,0,0.2,0.1,0.3,0
				c0,0,0,0,0,0c0.1,0,0.2-0.1,0.2-0.2l0.8-1.4c0.1-0.2,0-0.4-0.1-0.5l-7-4.1l11.1-2.3c0.1,0,0.2-0.1,0.3-0.2l0.8-1.4
				c0.1-0.2,0-0.4-0.1-0.5L4282,1128.2z"/>
			<path id="XMLID_112_" class="st5" d="M4300.5,1104.3l-4.3-0.5l-6.3-5.7c-0.1-0.1-0.3-0.1-0.4-0.1c-0.1,0.1-0.2,0.2-0.2,0.3
				l-0.3,2c0,0.1,0,0.3,0.1,0.3l4.5,4l-5.3,2.8c-0.1,0.1-0.2,0.2-0.2,0.3l-0.3,2c0,0.1,0,0.3,0.2,0.4c0.1,0.1,0.2,0.1,0.3,0.1
				c0,0,0.1,0,0.1,0l7.5-4l4.3,0.5c0.2,0,0.4-0.1,0.4-0.3l0.2-1.6c0-0.1,0-0.2-0.1-0.3C4300.7,1104.4,4300.6,1104.3,4300.5,1104.3z"
				/>
		</g>
	</g>
	<g id="XMLID_1_">
		<g>
			<defs>
				<rect id="SVGID_5_" x="4171.1" y="1052.2" width="84.7" height="84.7"/>
			</defs>
			<clipPath id="SVGID_6_">
				<use xlink:href="#SVGID_5_"  style="overflow:visible;"/>
			</clipPath>
			<g class="st6">
				<defs>
					<rect id="SVGID_7_" x="4171.1" y="1052.2" width="84.7" height="84.7"/>
				</defs>
				<clipPath id="SVGID_8_">
					<use xlink:href="#SVGID_7_"  style="overflow:visible;"/>
				</clipPath>
				<path class="st7" d="M4253.2,1079.4c1.4,0,2.6-1.2,2.6-2.6c0-1.4-1.2-2.6-2.6-2.6h-8.4v-8.4c0-1.4-1.2-2.6-2.6-2.6h-8.4v-8.4
					c0-1.4-1.2-2.6-2.6-2.6c-1.4,0-2.6,1.2-2.6,2.6v8.4h-12.6v-8.4c0-1.4-1.2-2.6-2.6-2.6s-2.6,1.2-2.6,2.6v8.4h-12.6v-8.4
					c0-1.4-1.2-2.6-2.6-2.6s-2.6,1.2-2.6,2.6v8.4h-8.4c-1.4,0-2.6,1.2-2.6,2.6v8.4h-8.4c-1.4,0-2.6,1.2-2.6,2.6
					c0,1.4,1.2,2.6,2.6,2.6h8.4v12.6h-8.4c-1.4,0-2.6,1.2-2.6,2.6c0,1.4,1.2,2.6,2.6,2.6h8.4v12.6h-8.4c-1.4,0-2.6,1.2-2.6,2.6
					c0,1.4,1.2,2.6,2.6,2.6h8.4v8.4c0,1.4,1.2,2.6,2.6,2.6h8.4v8.4c0,1.4,1.2,2.6,2.6,2.6s2.6-1.2,2.6-2.6v-8.4h12.6v8.4
					c0,1.4,1.2,2.6,2.6,2.6s2.6-1.2,2.6-2.6v-8.4h12.6v8.4c0,1.4,1.2,2.6,2.6,2.6c1.4,0,2.6-1.2,2.6-2.6v-8.4h8.4
					c1.4,0,2.6-1.2,2.6-2.6v-8.4h8.4c1.4,0,2.6-1.2,2.6-2.6c0-1.4-1.2-2.6-2.6-2.6h-8.4v-12.6h8.4c1.4,0,2.6-1.2,2.6-2.6
					c0-1.4-1.2-2.6-2.6-2.6h-8.4v-12.6H4253.2z M4203.8,1077.4c-4.1,0-7.5,3.4-7.5,7.5c0,4.1,3.4,7.5,7.5,7.5c1.1,0,2.2-0.3,3.1-0.7
					c3.8,2.6,10.9,5.4,24.2,5.4h8.4v23.5h-52.3v-52.3h52.3v23.5h-8.4c-11.5,0-17.5-2.2-20.5-4c0.4-0.9,0.6-1.9,0.6-3
					C4211.4,1080.8,4208,1077.4,4203.8,1077.4"/>
			</g>
		</g>
	</g>
</g>
</svg>
